<?xml version="1.0" ?><svg xmlns="http://www.w3.org/2000/svg" xmlns:xlink="http://www.w3.org/1999/xlink" version="1.1" id="Layer_1" viewBox="0 0 32 32" style="enable-background:new 0 0 32 32;" xml:space="preserve"><style type="text/css">
	.st0{fill:none;stroke:#000000;stroke-linecap:round;stroke-linejoin:round;stroke-miterlimit:10;}
</style><g><path class="st0" d="M29.6,25.3c0,2.9-2.4,5.3-5.3,5.3c-0.3,0-0.6,0-0.9-0.1h-0.1C20.8,30,19,27.9,19,25.3c0-2.9,2.4-5.3,5.3-5.3   c0.1,0,0.1,0,0.2,0l0,0C27.3,20.2,29.6,22.5,29.6,25.3z"/><g><g><path class="st0" d="M25.7,23.4h-1.1h-0.7c-0.5,0-1,0.4-1,1l0,0c0,0.5,0.4,1,1,1h0.9"/><path class="st0" d="M24.7,25.3c0.5,0,1,0.4,1,1l0,0c0,0.5-0.4,1-1,1h-1.9"/></g><line class="st0" x1="24.5" y1="22.3" x2="24.5" y2="23.4"/><line class="st0" x1="24.5" y1="27.3" x2="24.5" y2="28.4"/></g><line class="st0" x1="5.8" y1="8.4" x2="11.1" y2="8.4"/><line class="st0" x1="5.8" y1="12.3" x2="15.5" y2="12.3"/><line class="st0" x1="5.8" y1="16.1" x2="15.5" y2="16.1"/><line class="st0" x1="5.8" y1="19.9" x2="15.5" y2="19.9"/><line class="st0" x1="5.8" y1="23.8" x2="15.5" y2="23.8"/><line class="st0" x1="5.8" y1="27.6" x2="15.5" y2="27.6"/><path class="st0" d="M24.5,6v14l0,0c-0.1,0-0.1,0-0.2,0c-2.9,0-5.3,2.4-5.3,5.3c0,2.6,1.9,4.8,4.3,5.2h0.1C23,30.8,22.5,31,21.9,31   H5c-1.4,0-2.5-1.1-2.5-2.5V6c0-1.4,1.1-2.5,2.5-2.5h4.9C9.7,3.9,9.6,4.3,9.6,4.8V5h7.7V4.8c0-0.5-0.1-0.9-0.3-1.4h4.9   C23.4,3.5,24.5,4.6,24.5,6z"/><path class="st0" d="M17.3,4.8V5H9.6V4.8c0-2.1,1.7-3.8,3.8-3.8l0,0C15.6,1,17.3,2.7,17.3,4.8z"/></g></svg>