<?xml version="1.0" ?><!DOCTYPE svg  PUBLIC '-//W3C//DTD SVG 1.1//EN'  'http://www.w3.org/Graphics/SVG/1.1/DTD/svg11.dtd'><svg enable-background="new 0 0 70 70" height="70px" id="Icons" version="1.1" viewBox="0 0 70 70" width="70px" xml:space="preserve" xmlns="http://www.w3.org/2000/svg" xmlns:xlink="http://www.w3.org/1999/xlink"><g><path d="M37,19.117V15h-4v4.117C24.001,20.113,17,27.736,17,37c0,4.25,1.481,8.148,3.944,11.227l-2.915,2.915l2.828,2.828   l2.915-2.915C26.852,53.519,30.75,55,35,55s8.148-1.481,11.227-3.944l2.915,2.915l2.828-2.828l-2.915-2.915   C51.519,45.148,53,41.25,53,37C53,27.736,45.999,20.113,37,19.117z M35,51c-7.732,0-14-6.268-14-14c0-7.732,6.268-14,14-14   s14,6.268,14,14C49,44.732,42.732,51,35,51z"/><polygon points="37,27 33,27 33,38 39.125,44.125 41.953,41.297 37,36.343  "/><rect height="10" transform="matrix(0.7071 0.7071 -0.7071 0.7071 19.4599 -8.0606)" width="4" x="17.46" y="14.46"/><rect height="4" transform="matrix(0.7071 0.7071 -0.7071 0.7071 28.5286 -30.1209)" width="10" x="45.623" y="17.377"/></g></svg>