<?xml version="1.0" ?><svg height="24px" version="1.1" viewBox="0 0 24 24" width="24px" xmlns="http://www.w3.org/2000/svg" xmlns:xlink="http://www.w3.org/1999/xlink"><title/><desc/><defs/><g fill="none" fill-rule="evenodd" id="Account-(Settings)" stroke="none" stroke-width="1"><g fill="#000000" id="apps"><path d="M12,23 C5.92486775,23 1,18.0751322 1,12 C1,5.92486775 5.92486775,1 12,1 C18.0751322,1 23,5.92486775 23,12 C23,18.0751322 18.0751322,23 12,23 L12,23 Z M12,21 C16.9705627,21 21,16.9705627 21,12 C21,7.02943725 16.9705627,3 12,3 C7.02943725,3 3,7.02943725 3,12 C3,16.9705627 7.02943725,21 12,21 L12,21 Z M10.0672269,16.6590909 C9.773668,16.5432258 9.50140182,16.3983966 9.25042017,16.2245989 C8.99943852,16.0508013 8.78095331,15.8458122 8.59495798,15.6096257 C8.40896266,15.3734391 8.26330585,15.104948 8.15798319,14.8041444 C8.05266054,14.5033407 8,14.1702336 8,14 L10.0235294,14 C10.0235294,14.098932 10.0705878,14.3484838 10.1647059,14.5534759 C10.258824,14.758468 10.3899151,14.9244646 10.5579832,15.0514706 C10.7260513,15.1784766 10.9288504,15.2709445 11.1663866,15.328877 C11.4039228,15.3868096 11.6683459,15.4157754 11.9596639,15.4157754 C12.2196091,15.4157754 12.4459374,15.3879236 12.6386555,15.3322193 C12.8313735,15.2765149 12.9904756,15.199644 13.1159664,15.1016043 C13.2414572,15.0035646 13.3344535,14.8865871 13.394958,14.7506684 C13.4554625,14.6147498 13.4857143,14.4688065 13.4857143,14.3128342 C13.4857143,14.1434929 13.4610647,13.9908652 13.4117647,13.8549465 C13.3624647,13.7190278 13.2672276,13.5931378 13.1260504,13.4772727 C12.9848732,13.3614076 12.7899172,13.2477724 12.5411765,13.1363636 C12.2924357,13.0249549 11.9708703,12.9068634 11.5764706,12.7820856 C11.1282891,12.6394824 10.7058843,12.4790561 10.3092437,12.3008021 C9.91260306,12.1225481 9.5652676,11.9119887 9.26722689,11.6691176 C8.96918618,11.4262466 8.73389442,11.1466148 8.56134454,10.8302139 C8.38879466,10.513813 8.30252101,10.1439415 8.30252101,9.72058824 C8.30252101,9.31506036 8.39103553,8.94407477 8.56806723,8.60762032 C8.74509892,8.27116588 8.99383593,7.98484967 9.31428571,7.7486631 C9.6347355,7.51247654 10.0156841,7.32865485 10.4571429,7.19719251 C10.6312956,7.14533144 10.8122477,7.10369996 11,7.07229794 L11,6.5046623 C11,5.94980263 11.4438648,5.5 12,5.5 L12,5.5 C12.5522847,5.5 13,5.94114965 13,6.49486538 L13,7.11442839 C13.1345406,7.14485941 13.2650727,7.1813601 13.3915966,7.22393048 C13.8352963,7.37321822 14.214004,7.58154947 14.5277311,7.84893048 C14.8414582,8.1163115 15.0834725,8.43382169 15.2537815,8.80147059 C15.4240905,9.16911949 15.5092437,9.57129906 15.5092437,10.0080214 L13.492437,10.0080214 C13.492437,9.80302928 13.4599443,9.61363723 13.394958,9.43983957 C13.3299717,9.26604191 13.2302528,9.11675642 13.0957983,8.99197861 C12.9613439,8.8672008 12.7932783,8.77027664 12.5915966,8.70120321 C12.389915,8.63212978 12.1523823,8.59759358 11.8789916,8.59759358 C11.6145645,8.59759358 11.3848749,8.62655943 11.189916,8.68449198 C10.994957,8.74242453 10.8336141,8.82263763 10.7058824,8.92513369 C10.5781506,9.02762975 10.481793,9.1479494 10.4168067,9.28609626 C10.3518204,9.42424311 10.3193277,9.57130047 10.3193277,9.72727273 C10.3193277,10.0481299 10.484032,10.316621 10.8134454,10.532754 C11.1428588,10.748887 11.6257671,10.9505338 12.2621849,11.1377005 C12.7955209,11.3025855 13.264984,11.4852931 13.6705882,11.6858289 C14.0761925,11.8863646 14.4145645,12.1136351 14.6857143,12.3676471 C14.9568641,12.621659 15.1619041,12.9068612 15.3008403,13.223262 C15.4397766,13.5396629 15.5092437,13.8983937 15.5092437,14.2994652 C15.5092437,14.7272749 15.4252109,15.1082871 15.2571429,15.4425134 C15.0890748,15.7767396 14.8504217,16.0585996 14.5411765,16.2881016 C14.2319312,16.5176036 13.8588257,16.6936268 13.4218487,16.8161765 C13.286098,16.8542476 13.1454819,16.8864051 13,16.912649 L13,17.5037199 C13,18.0539502 12.5561352,18.5 12,18.5 L12,18.5 C11.4477153,18.5 11,18.0508622 11,17.5070082 L11,16.9178882 C10.6689059,16.8607395 10.3607858,16.774956 10.0672269,16.6590909 Z" id="Combined-Shape"/></g></g></svg>