<?xml version="1.0" ?><svg viewBox="0 0 64 64" xmlns="http://www.w3.org/2000/svg"><g id="Money_asset_income_management"><path d="M32.4434,36.4877a17.8208,17.8208,0,1,0-17.82-17.8208A17.8406,17.8406,0,0,0,32.4434,36.4877Zm0-32.1416a14.3208,14.3208,0,1,1-14.32,14.3208A14.3367,14.3367,0,0,1,32.4434,4.3461Z"/><path d="M33.6562,22.9047H28.1475a1.625,1.625,0,0,0,0,3.25H30.69V27.936a1.625,1.625,0,1,0,3.25,0v-1.81a4.44,4.44,0,0,0-.2833-8.8724H31.1855a1.4124,1.4124,0,1,1,0-2.8247h5.5528a1.625,1.625,0,0,0,0-3.25H33.94V9.3984a1.625,1.625,0,1,0-3.25,0v1.8309a4.65,4.65,0,0,0,.496,9.2745h2.4707a1.2,1.2,0,0,1,0,2.4009Z"/><path d="M55.248,41.2338a4.3506,4.3506,0,0,0-3.6435-1.9633H49.2188a5.969,5.969,0,0,0-5.5352,3.7041,4.4955,4.4955,0,0,1-3.0787,2.6511l.0025-.6668a5.6663,5.6663,0,0,0-5.666-5.6884H29.7568A7.9937,7.9937,0,0,0,24.08,41.6137l-.1377.1358a5.9085,5.9085,0,0,1-3.8643,1.72V42.2519A3.7461,3.7461,0,0,0,16.3369,38.51H9.249a1.75,1.75,0,0,0-1.75,1.75V61.0615a1.75,1.75,0,0,0,1.75,1.75h7.0879A3.7461,3.7461,0,0,0,20.0781,59.07v-.2085H39.8242A15.141,15.141,0,0,0,53.749,49.6889l1.8623-4.3345A4.35,4.35,0,0,0,55.248,41.2338ZM16.5781,59.07a.2418.2418,0,0,1-.2412.2417H10.999V42.01h5.3379a.2418.2418,0,0,1,.2412.2417ZM52.3965,43.9721l-1.8623,4.335a11.6475,11.6475,0,0,1-10.71,7.0542H20.0781V46.97a9.3835,9.3835,0,0,0,6.33-2.7369l.1377-.1362a4.52,4.52,0,0,1,3.2109-1.3266h5.1846a2.1653,2.1653,0,0,1,2.166,2.1743l-.0029.8272-5.66,0H30.252a1.75,1.75,0,0,0,0,3.5h8.5957l.0044,0h.6528A7.9978,7.9978,0,0,0,46.92,44.31a2.4782,2.4782,0,0,1,2.2989-1.539h2.3857a.8621.8621,0,0,1,.792,1.2016Z"/></g></svg>