<svg viewBox="0 0 52.97 52.97" xml:space="preserve" xmlns="http://www.w3.org/2000/svg" shape-rendering="geometricPrecision" text-rendering="geometricPrecision" image-rendering="optimizeQuality" fill-rule="evenodd" clip-rule="evenodd"><path d="M0 0h52.97v52.97H0z" fill="none"></path><path d="M27.02 28.08c-.86.06-1.71.05-2.57-.05-.16-.02-.3.15-.3.3 0 .18.14.28.3.3.86.1 1.71.12 2.57.05.16-.01.3-.13.3-.3 0-.15-.14-.31-.3-.3zm3.73 4.18c-.15-.04-.34.05-.37.21-.17.94-.34 1.87-.51 2.8-.03.16.05.32.21.37.15.04.34-.05.37-.21l.51-2.79c.03-.16-.04-.33-.21-.38zm-.63-.5c-.13-.08-.34-.04-.41.11-.47.91-.87 1.85-1.23 2.81-.05.16.07.33.21.37.17.05.32-.05.38-.21.33-.91.72-1.8 1.16-2.67.07-.14.04-.32-.11-.41zm-.46-.52c-.12-.11-.32-.12-.43 0-.72.81-1.41 1.64-2.07 2.49-.1.13-.13.3 0 .43.1.1.32.13.42 0 .66-.86 1.35-1.69 2.08-2.49.1-.12.11-.31 0-.43zm-.72-.2c-.08-.14-.28-.21-.41-.11-.87.6-1.69 1.26-2.47 1.97-.13.11-.12.31 0 .42.12.12.3.11.42 0a23.5 23.5 0 0 1 2.35-1.87c.14-.09.2-.27.11-.41zm-.77-.75c-.94.57-1.94 1.02-2.99 1.34-.37.12-.21.7.16.58 1.1-.33 2.15-.8 3.13-1.4.33-.2.03-.72-.3-.52zm-.37-.71-3.21.87c-.37.1-.21.68.16.58l3.21-.87c.38-.1.22-.68-.16-.58zm-.03-.53c-.05-.17-.22-.24-.38-.21-1.06.21-2.13.33-3.21.37-.38.01-.39.61 0 .6 1.14-.04 2.26-.17 3.37-.39.16-.03.26-.22.22-.37zM33.98 34.05c-.31-.33-.65-.63-1.01-.89-.06-.05-.16-.05-.23-.03-.07.02-.15.07-.18.14-.04.07-.06.15-.03.23.02.08.07.13.14.18.03.03.07.06.11.08.28.22.53.46.77.71.11.12.32.12.43 0 .11-.12.11-.3 0-.42zm-1.12 1.35-.03-.07c-.03-.05-.07-.08-.11-.11-.22-.16-.45-.31-.69-.43-.08-.03-.16-.05-.24-.03a.31.31 0 0 0-.18.14c-.03.07-.05.16-.03.23.03.07.07.15.14.18.25.12.48.27.69.43.06.05.17.05.24.03a.31.31 0 0 0 .18-.14c.03-.07.05-.15.03-.23zm.15-1.05c-.21-.19-.43-.37-.66-.52a.332.332 0 0 0-.24-.03.31.31 0 0 0-.18.14c-.03.07-.05.15-.03.23.03.08.07.13.14.18.09.06.18.12.26.19.1.07.19.15.29.23a.288.288 0 0 0 .42 0c.06-.05.09-.13.09-.21 0-.08-.03-.16-.09-.21zM38.92 34.4c-.57.07-1.15.08-1.72.01-.16-.01-.31.16-.31.31.01.17.14.28.31.3.57.06 1.15.05 1.72-.02.16-.02.31-.13.3-.3 0-.15-.13-.33-.3-.3zm10.13-13.68c-.09 0-.18-.01-.27-.02-.05 0-.1 0-.14-.01h-.04.02c-.02 0-.04-.01-.06-.01-.19-.03-.37-.07-.55-.12-.15-.04-.33.05-.37.21-.04.16.05.33.21.37.39.11.8.17 1.2.18.16.01.31-.14.31-.3a.31.31 0 0 0-.31-.3zm2.5-4.24a.356.356 0 0 0-.14-.18.37.37 0 0 0-.23-.03c-.01 0-.03 0-.04.01-.12.01-.24.01-.36 0l-.13-.03a.3.3 0 0 0-.23.03c-.07.04-.13.11-.14.18-.02.08-.02.17.03.23.04.07.1.12.18.14.28.07.56.08.85.02.07-.01.14-.08.18-.14.03-.06.05-.16.03-.23zm-.71.94c-.24.02-.48.01-.72-.02-.02 0-.04 0-.07-.01a.362.362 0 0 0-.23.03c-.06.04-.12.11-.14.18-.02.08-.01.17.03.24.04.06.11.12.18.13.32.06.64.08.95.05.09-.01.16-.03.22-.09.05-.05.09-.14.09-.21-.01-.15-.14-.32-.31-.3zm-.52 1.17c-.21 0-.41-.02-.61-.04-.1-.02-.2-.03-.3-.05a.306.306 0 0 0-.23.03c-.07.04-.13.11-.14.18-.04.15.04.34.21.37.35.07.71.11 1.07.12.15 0 .3-.14.3-.31a.315.315 0 0 0-.3-.3zm-.53 1.04c-.4.01-.8-.01-1.19-.06-.08-.01-.17.04-.22.09-.05.05-.09.14-.09.21.01.08.03.16.09.21.07.06.13.08.22.09.39.05.79.08 1.19.06.16 0 .31-.13.3-.3-.01-.16-.13-.3-.3-.3zm-1.21 2.23a.32.32 0 0 0-.18-.14c-.4-.05-.79-.15-1.17-.28-.15-.05-.34.06-.37.21-.04.17.05.32.21.37.38.13.77.23 1.17.29.09.01.16.01.23-.03s.13-.11.14-.18c.02-.08.02-.17-.03-.24zm-.89.67c-.44-.09-.88-.16-1.32-.21-.07-.01-.16.04-.21.09-.05.05-.09.14-.09.21 0 .08.03.16.09.22.06.05.13.07.21.08.05.01.1.02.16.02.02.01.05.01.07.01.01 0 .02.01.03.01.1.01.19.03.29.04.21.03.41.07.61.11.15.03.33-.04.37-.21.04-.15-.04-.34-.21-.37zm-.71.85c-.42-.07-.84-.15-1.26-.23-.16-.03-.34.05-.37.21-.04.15.04.34.21.38.42.07.84.15 1.26.23.15.02.33-.05.37-.21.03-.15-.05-.34-.21-.38zm-.91 1.04c-.03 0-.07-.01-.1-.01h-.03l-.18-.03c-.11-.02-.22-.05-.33-.07-.23-.06-.45-.13-.67-.22-.15-.06-.34.06-.38.21-.03.17.06.31.22.37.47.19.96.3 1.47.35.16.02.31-.15.3-.3-.01-.18-.13-.28-.3-.3zm-1.01.87c-.03-.01-.05-.01-.08-.01-.02-.01-.11-.01-.03-.01-.05 0-.1-.01-.15-.02l-.33-.06c-.21-.05-.42-.1-.63-.17-.15-.05-.34.06-.37.21-.04.17.05.32.21.37.45.15.91.24 1.38.29.16.02.31-.15.3-.3 0-.18-.13-.28-.3-.3zm-.74.86-1.33-.24c-.16-.03-.34.04-.37.21-.04.15.04.34.21.37l1.33.24c.15.03.33-.04.37-.21.03-.15-.04-.34-.21-.37zm-.85.75-1.49-.24c-.16-.02-.33.04-.37.21-.03.15.04.35.21.37l1.49.24c.16.02.33-.04.37-.21.04-.15-.04-.35-.21-.37zm-1.01.77c-.42-.07-.84-.15-1.26-.23-.15-.03-.33.04-.37.21-.03.15.04.34.21.37l1.26.24c.15.02.33-.05.37-.22.03-.14-.04-.34-.21-.37zm-.77.75c-.55-.01-1.1-.03-1.65-.07-.16-.01-.31.15-.3.3.01.17.13.29.3.3.55.05 1.1.07 1.65.07.16 0 .31-.14.3-.3 0-.17-.13-.3-.3-.3zm-.78.82c-.41.03-.82.04-1.24.02-.15-.01-.3.14-.3.3.01.17.14.3.3.3.42.02.83.01 1.24-.01.16-.01.31-.14.3-.31 0-.15-.13-.31-.3-.3zm-.34.81c-.42.03-.84.06-1.26.08-.16.01-.31.13-.3.3 0 .16.13.32.3.31.42-.03.84-.06 1.26-.08.16-.01.31-.14.3-.31-.01-.15-.13-.31-.3-.3zm-.34 1.14c-.5.01-.99.04-1.47.1-.16.02-.31.13-.31.3.01.15.14.33.31.31.48-.07.97-.1 1.47-.1.15-.01.3-.14.3-.31-.01-.16-.14-.3-.3-.3zm-.37 1.09c-.52.05-1.04.09-1.56.11-.16.01-.31.14-.3.31 0 .15.13.31.3.3.52-.03 1.04-.06 1.56-.11.15-.02.31-.13.3-.3-.01-.15-.13-.32-.3-.31zm-.24 1.28c-.05-.17-.2-.24-.37-.21l-.21.03h-.01c-.01.01-.02.01-.03.01-.04 0-.07.01-.1.01-.13.02-.26.03-.4.04-.26.02-.53.02-.8.02a.295.295 0 0 0-.3.3c.01.16.13.3.3.3.57.01 1.14-.03 1.71-.13.16-.02.26-.22.21-.37z" fill="#14223c" fill-rule="nonzero" class="fill-000000"></path><path d="M51.13 10.39c-.59-.25-1.23-.28-1.89-.18-.78.12-1.54.33-2.33.38-1.29.46-2.54 1.03-3.75 1.67-.21-.04-.44.04-.57.3-1.16 2.28.17 4.67 2.18 5.92.93.58 2.13 1.07 3.24.78 1.18-.31 1.77-2.01 2.26-3 .67-1.37 2.38-4.53.86-5.87zM38.07 27.98c-.58.08-1.09-.35-1.51-.79-.14-.06-.28-.13-.41-.22-.38-.24-.71-.56-1-.92-1.32-1.18-2.34-2.92-2.3-4.7a4.94 4.94 0 0 1-.11-.36c-.12-.45-.68-.57-1.01-.27-1.17 1.08-2.34 2.16-3.52 3.24-.53.38-1.06.82-1.3 1.45-.27.74.02 1.45.32 2.13.65 1.48 1.63 2.85 2.83 3.93 1.14 1.03 2.67 1.84 4.17 1.07.74-.37 1.37-1.01 2-1.53.81-.68 1.62-1.35 2.43-2.03.52-.43-.07-1.08-.59-1z" fill="#ffffff" fill-rule="nonzero" class="fill-ffb301"></path><path d="M50.21 11.64c-.29-.26-.71.17-.43.43.25.23.07.62-.02.88-.15.37-.29.75-.43 1.12-.28.75-.57 1.5-.85 2.25-.06.16.06.34.21.38.17.04.31-.06.37-.21.32-.85.64-1.69.96-2.54.15-.39.34-.79.44-1.21.09-.38.05-.81-.25-1.1zm-1.6 5.49c-.01-.07-.07-.14-.13-.18a.393.393 0 0 0-.24-.03c-.07.03-.14.07-.18.14-.11.25-.23.49-.35.73-.03.08-.05.15-.03.24.02.07.08.14.14.18.07.03.16.05.23.03.07-.03.15-.07.18-.14.12-.25.24-.49.35-.73.04-.08.06-.15.03-.24zM36.77 28.84c-.12-.13-.3-.1-.43 0-.72.59-1.42 1.2-2.16 1.76-.54.4-1.41.86-2.01.32-.29-.26-.72.16-.43.42.73.67 1.78.44 2.53-.07.42-.28.8-.62 1.2-.94l1.3-1.06c.13-.11.11-.32 0-.43zm-5.54 1.59c-.17-.14-.34-.3-.5-.47a.304.304 0 0 0-.21-.08c-.07 0-.16.03-.21.08a.31.31 0 0 0-.09.22c0 .08.03.15.09.21.16.17.32.32.5.47.02.03.06.05.09.06.04.02.08.03.12.03.07 0 .16-.03.21-.09.05-.06.09-.13.09-.21a.31.31 0 0 0-.09-.22z" fill="#ffffff" fill-rule="nonzero" class="fill-ffffff"></path><path d="M31.93 7.41c-.21-.18-.45-.26-.72-.17-.12.03-.22.09-.31.17-.01.01-.02.01-.02.02-.61-.37-1.62.1-1.55.85a.32.32 0 0 0-.03.14c-.08.01-.16.03-.23.05-.25.09-.48.28-.55.55-.05.18-.03.34.04.49-.29.13-.48.42-.5.74-.01.19.05.36.15.5.01.05.03.1.06.15.04.09.09.16.16.24l.01.01c-.06.17-.04.36.08.51a.523.523 0 0 0 .39.54l.2.05c.14.02.29.02.41-.06a.55.55 0 0 0 .09-.07.77.77 0 0 0 .36-.23c.09-.11.15-.23.15-.37 0-.13-.06-.29-.15-.38h-.01a.597.597 0 0 0-.24-.32.5.5 0 0 0 .02-.34c0-.02-.01-.04-.01-.06v-.08c.08-.02.15-.06.21-.12.19-.19.23-.57 0-.75-.03-.03-.07-.06-.11-.09.07-.03.14-.06.2-.1.1-.06.17-.15.21-.25.19-.11.26-.33.24-.53.14.02.33.11.4.11.15 0 .29-.05.41-.13.08-.04.14-.11.2-.17.01 0 .01-.01.02-.01.15.02.3-.02.42-.14.19-.19.22-.57 0-.75zM29 4.4c.37-.29.78-.5 1.21-.65h.02c.1-.04.2-.07.3-.09.27-.2.36-.67-.01-.9-1.02-.64-1.96-1.37-2.82-2.22-.12-.12-.34-.2-.51-.13-1.05.42-1.86 1.19-2.22 2.27-.22.65-.18 1.35-.38 2.01-.21.73-.75 1.29-1.46 1.56-.49.18-.43.82-.09 1 0 .01.01.02.01.03.49.61 1.04 1.67 1.83 1.92.7.22 1.45-.18 1.86-.73.57-.74.53-1.73.98-2.52.16-.27.35-.51.56-.74.2-.3.43-.58.72-.81z" fill="#ffffff" fill-rule="nonzero" class="fill-ffb301"></path><path d="M27.5 1.2c-.04-.15-.22-.28-.37-.21-.71.29-1.28.83-1.58 1.55-.31.75-.21 1.61-.57 2.33-.17.35.35.65.52.3.35-.69.32-1.46.53-2.18.19-.63.66-1.17 1.26-1.42.15-.07.26-.2.21-.37zm-2.51 4.57c-.14-.07-.34-.04-.42.11-.03.07-.08.14-.13.21-.07.08-.15.17-.24.24-.1.07-.2.13-.31.18-.01 0-.02.01-.03.01a.32.32 0 0 0-.18.14c-.04.06-.06.16-.03.23.05.15.21.27.37.21a1.9 1.9 0 0 0 1.07-.92c.08-.13.04-.33-.1-.41z" fill="#ffffff" fill-rule="nonzero" class="fill-ffffff"></path><path d="M39.82 24.47c-.22.08-.44.15-.66.21-.23.07-.48.16-.72.18-.23.01-.35-.23-.46-.39.56-.12 1.09-.39 1.51-.79.14.12.3.2.5.24.2.04.46.04.69.09-.26.19-.55.34-.86.46zm10.93-6.93c-.69 1.73-1.67 3.34-2.82 4.8-1.2 1.53-2.58 2.91-4.03 4.19-.73.64-1.48 1.26-2.24 1.87-.37.29-.71.61-.93 1.03-.22.43-.33.9-.48 1.36-.34 1.11-.76 2.18-1.2 3.24-.11.27-.22.53-.33.8-.08.18-.14.47-.36.52-.26.05-.57.02-.83.02h-.26c1.14-2.21 2.15-4.48 3.03-6.8 3.47-2.9 6.99-5.95 9.41-9.8a20.06 20.06 0 0 0 1.72-3.36c-.17.73-.4 1.44-.68 2.13zm-14.36 16.9c-.54-.47-1.05-.97-1.53-1.51.7-.47 1.35-1.06 1.99-1.56.51-.4 1.02-.8 1.52-1.21a57.09 57.09 0 0 1-1.98 4.28zm-2.36-2.43c-1.03.71-1.98.41-2.92-.29-.84-.63-1.56-1.44-2.14-2.3-.6-.87-1.45-2.1-1.39-3.2.06-1.1 1.24-1.82 1.99-2.47l2.46-2.09c.17 1.76 1.42 3.45 2.58 4.67.98 1.03 2.25 2.07 3.66 2.36-.61.5-1.22.99-1.83 1.48-.79.63-1.58 1.26-2.41 1.84zm-.95 2.18c-.13.01-.25.08-.29.22l-.17.68c-.03.13-.05.41-.16.49-.07.03-.18.03-.25.03l-.33.03c.12-.27.2-.58.29-.83.14-.39.28-.77.42-1.16.39.04.78 0 1.17-.14.16.19.32.36.48.54-.38.05-.77.1-1.16.14zm-2.26.82c-.02.03-.04.06-.05.09h-.28c-.32-.02-.62-.06-.93-.14-1.13-.28-2.14-.93-2.96-1.75-.85-.86-1.55-1.96-1.84-3.15-.09-.36-.15-.72-.16-1.09 0-.2.01-.39.05-.58.02-.09.05-.17.09-.25.05-.1.1-.2.2-.25.11-.06.24-.07.36-.09.16-.02.31-.01.47-.02.29-.01.58-.01.88-.01.44 1.23 1.32 2.41 2.04 3.27.69.84 1.65 1.78 2.72 2.28-.23.54-.53 1.15-.59 1.69zm-5.89-.69c.1-.28.19-.57.28-.85a9.028 9.028 0 0 0 .85.88c-.38.01-.75 0-1.13-.03zm-2.03 1.94c.19-1.43.56-2.86 1.47-3.99.13.21.26.41.4.61-.18.54-.35 1.09-.53 1.63-.07.2.11.36.29.38.73.09 1.47.1 2.21.02.1.08.21.16.31.23a7.556 7.556 0 0 1-4.15 1.12zm3.22-13.54c1.21-.23 2.42-.46 3.63-.7l-1.14.97c-.36.31-.75.62-1.1.96-.46-.41-.93-.82-1.39-1.23zm18.05-5.69c-.98-1.03-1.3-2.46-1.2-3.84 1-.5 2.02-.94 3.08-1.31.85-.29 1.72-.56 2.6-.73.54-.11 1.11-.18 1.66-.11.73.1.84.58.76 1.24-.24 1.82-1.09 3.65-2 5.23-.26.45-.54.88-.84 1.31-1.44-.32-3-.69-4.06-1.79zm8.14-4.55c-.01-.54-.04-1.1-.29-1.59-.18-.38-.48-.66-.83-.84a2.4 2.4 0 0 0-.76-.23c-.57-.06-1.14 0-1.69.09-2.43.38-4.87 1.41-7.02 2.57-1.1.6-2.16 1.28-3.16 2.03l-2.31-.29c-.17-.02-.36-.03-.53-.07-.15-.03-.25-.13-.36-.23-.25-.25-.47-.52-.68-.8.18-.09.35-.19.52-.3.63-.42.95-1.09 1.31-1.74.37-.68.73-1.38 1.06-2.09.26-.55.83-1.43.15-1.89-.58-.39-1.2.02-1.58.48-.48.57-.9 1.19-1.26 1.85-.17.29-.31.6-.48.89-.19.31-.42.51-.73.66-.35.18-.7.34-1.05.5.09-.13.17-.27.24-.42.42-.94.32-2.11-.46-2.83.19-.24.2-.6.06-.88-.28-.55-1.15-.72-1.63-.35-.37-.15-.81-.13-1.16.08-.31.2-.52.52-.59.88-.71.09-1.15.83-.96 1.51-.25.19-.42.47-.42.81-.01.33.15.61.39.81-.19.55.1 1.18.71 1.36.22.07.42.07.62.03-.25.41-.42.87-.49 1.35-.15 1.04.09 2.08.33 3.09.02.1.08.16.15.19-.33.29-.65.59-.94.93-.14.16-.28.34-.4.53-.06.09-.11.19-.17.28-.06.12-.06.19-.06.32 0 .08.01.17.01.25.02.16.02.33.03.49.06-.03.12-.05.18-.08.12-.05.25-.08.38-.12.1-.03.2-.06.29-.1.11-.03.16-.05.21-.15.07-.12.14-.24.22-.35.15-.22.31-.43.49-.63.09.48.2.95.34 1.42.08.26.17.56.33.78-1.82.37-3.65.72-5.48 1.05-.51-.06-1 .59-.52 1.01.81.72 1.62 1.43 2.43 2.15-.08.14-.15.28-.2.43-.15.4-.2.81-.17 1.22-.77-.04-1.72-.08-2.24.34-.57.45-.7 1.47-.71 2.14-.01.71.13 1.41.38 2.07-1.49 1.53-1.97 3.67-2.18 5.73-.04.35.31.58.6.61.64.06 1.29.06 1.93-.02.74-.09 1.4-.26 2.09-.53.36-.13.7-.29 1.03-.48.18-.09.34-.19.51-.3.05-.03.42-.33.46-.31.49.21 1 .36 1.53.44.41.06.97.17 1.42.04.26 0 .53-.01.79-.03.27-.02.58-.02.81-.16.23-.15.3-.41.36-.66.06-.22.11-.44.16-.66.49-.05.97-.11 1.44-.19.45.44.91.85 1.4 1.24.48.38 1.54.18 2.1.15.22-.01.44-.05.61-.2.19-.16.28-.41.37-.64.41-.97.82-1.95 1.18-2.94.19-.5.36-1.02.51-1.53.13-.46.26-.94.59-1.31.31-.36.72-.64 1.09-.94.39-.31.77-.63 1.15-.95 2.99-2.55 5.74-5.53 7.33-9.17.43-1 .79-2.03 1.01-3.09.16-.72.21-1.46.21-2.19v-.52zm-14.43 2.55c-.3.24-.59.48-.89.74-.34-.03-.69-.06-1.03-.11-.22-.03-.44-.07-.66-.11-.18-.04-.32-.06-.46-.19-.51-.49-1-1.01-1.46-1.55v-.01c-.02-.04-.04-.08-.06-.1.26-.1.53-.21.8-.32.24.33.5.65.79.94.14.13.27.27.45.34.19.09.4.1.6.13l1.92.24zm-1.5 1.28c-.03.04-.07.07-.1.1a2.3 2.3 0 0 0-1.3.06c-.28.1-.53.25-.74.44-.12-.58-.26-1.15-.43-1.72.24.26.48.51.75.72.33.25.84.27 1.24.33.19.03.39.05.58.07zm-.66.64c-.13.12-.24.27-.37.4-.26.02-.52.07-.77.12-.03.01-.06.02-.09.02.18-.2.44-.37.68-.45.18-.06.37-.09.55-.09zm1 .71a25.62 25.62 0 0 1 5.03-3.81c.02 1.41.48 2.8 1.42 3.87 1.09 1.26 2.71 1.78 4.3 2.16-1.81 2.35-4.02 4.38-6.25 6.32-.5.43-1 .85-1.5 1.28-.02 0-.04 0-.06.01-1.62.44-3.16-.92-4.2-2.01-.99-1.05-2.46-2.88-2.25-4.42.02-.14 0-.25-.04-.36l1.45-.23.45-.08c.07-.01.14-.01.21-.03h.02c0 .02.02.04.03.05.12.24.22.5.33.75.22.53.44 1.06.68 1.59.23.51.48 1.01.77 1.49.15.24.31.48.48.71.16.22.34.43.62.49.31.07.62-.04.91-.12.28-.08.56-.16.83-.26.55-.2 1.06-.48 1.47-.9.11-.11.12-.31.01-.42-.61-.12-1.23-.25-1.69-.68-.26-.26-.42-.71-.59-1.04-.21-.4-.41-.81-.62-1.21-.18-.35-.35-.7-.54-1.05-.05-.11-.1-.22-.16-.32-.19-.39-.38-.8-.59-1.18-.11-.19-.24-.38-.41-.52-.04-.03-.07-.06-.11-.08zm1.03 6.24h-.02c-.02.01-.05.01-.05.01-.02 0-.03.01-.05.01a1.74 1.74 0 0 1-.11-.18c-.27-.46-.5-.94-.71-1.42-.22-.48-.43-.97-.63-1.46-.1-.23-.19-.45-.29-.67-.12-.27-.31-.44-.61-.43-.26.01-.53.08-.78.12-.32.05-.64.1-.96.16l-1.77.28-.44.08c-.13.02-.3.07-.42.02-.19-.09-.25-.4-.31-.58a13.6 13.6 0 0 1-.43-1.89v-.01c1.03-1 2.25-1.82 2.89-3.15.29.94.53 1.9.71 2.87-.82.19-1.65.4-2.48.6-.37.09-.21.67.16.58.95-.22 1.89-.45 2.84-.68.63-.15 1.52-.44 2.1 0 .32.24.48.72.66 1.07.23.43.45.86.67 1.3.45.88.9 1.76 1.35 2.63.01.02.03.03.04.05-.04.04-.08.08-.12.11-.03.03-.05.05-.08.07l-.03.03c-.01.01-.02.01-.03.02-.12.09-.25.17-.39.24-.03.01-.07.03-.1.04-.01.01-.02.01-.04.02l-.01.01c-.07.02-.15.05-.22.07l-.22.06c-.04.01-.08.01-.12.02zm-7.91-7.17c-.22-.88-.44-1.79-.33-2.7.08-.7.38-1.43.96-1.85a.26.26 0 0 0 .1-.11c.13.05.25.09.38.12-.17.07-.33.16-.47.28l-.12.06h.04c-.06.06-.12.12-.17.19-.05.06-.09.12-.09.21 0 .07.03.16.09.21.06.05.13.09.21.09.08 0 .16-.03.21-.09.07-.08.15-.16.24-.23.01.01.01.02.02.03l.63-.3c.67-.31 1.34-.62 2.01-.94.31-.14.62-.27.88-.49.23-.18.4-.43.55-.69.32-.56.6-1.13.96-1.67.08-.12.17-.24.25-.36.28.08.55.17.83.25-.29.61-.59 1.22-.91 1.82-.17.3-.34.61-.51.91-.16.27-.32.53-.57.73-.27.22-.59.36-.9.51-.36.16-.72.31-1.08.45-.74.28-1.49.52-2.24.76-.36.12-.21.7.16.58.36-.11.72-.23 1.07-.35-.43 1.07-1.32 1.82-2.2 2.58zm-.77-4.83c-.31-.05-.61-.42-.37-.71.15-.19.09-.41-.14-.5-.35-.15-.33-.67.02-.81.18-.06.29-.26.18-.44-.27-.45.09-.94.6-.89.15.02.3-.15.3-.3-.03-.59.58-.94 1.08-.62.14.09.33.02.41-.11.14-.21.55-.11.7.02.08.07.16.21.09.31-.05.07-.12.05-.16 0-.09-.11-.27-.11-.38-.04-.08.03-.15.09-.18.19-.03.14-.09.26-.21.32 0-.01-.07 0-.05.01h-.03c-.01-.01-.01-.01-.02-.01h-.02l-.02-.02h-.01c0-.01 0-.01-.01-.03-.07-.13-.24-.18-.38-.12-.14.07-.2.2-.17.36-.01-.04 0 .03 0 .04v.07c0 .02 0 0-.01.04 0 .02-.01.04-.01.06-.02.08-.07.16-.12.21-.12.14-.28.18-.46.17-.03 0-.05.01-.08.01-.15.03-.24.2-.22.33.03.16.15.25.3.26.03.01.07 0 .1 0v.01c.01 0 .03.01.01 0 0 0 .06.06.04.03.02.04.02.05.03.06.02.08.01.16-.01.24-.06-.01-.12 0-.18.01a.546.546 0 0 0-.39.33c-.07.18-.07.38 0 .55.07.15.15.3.28.4.08.06.15.11.24.15-.15.26-.43.46-.75.42zm3.29-1.19c-.14.35-.38.75-.76.87-.4.12-.8-.02-1.13-.24-.01-.03-.03-.06-.05-.09.01-.04.01-.08-.01-.12a.304.304 0 0 0-.34-.22h-.04c-.02-.01-.03-.02-.05-.03a.435.435 0 0 1-.06-.07c-.02-.02-.03-.05-.04-.07-.01-.02-.02-.04-.02-.05.01 0 .02.01.03.01.07.02.17.01.23-.03.02-.01.03-.02.04-.03.07-.02.13-.06.16-.13.16-.31.25-.67.09-1 .07-.05.14-.11.2-.18.11-.12.19-.26.23-.41.11.02.23.01.33-.02.22-.07.39-.23.5-.42.05.01.1.01.15.02.01.02.03.04.05.06.64.53.79 1.39.49 2.15zm4.78-3.16c.15-.02.33.05.3.22-.02.15-.1.29-.16.42l-.69-.21c.14-.18.32-.39.55-.43z" fill="#14223c" fill-rule="nonzero" class="fill-000000"></path><path d="m38.77 8.58-.87-.63c-.04.19-.13.37-.24.53-.01 0-.01.01-.02.02.28.2.55.4.82.6.14.09.34.02.42-.11.09-.15.02-.32-.11-.41zM27.66 5.52c-.42.78-.48 1.66-.8 2.47-.15.4-.4.65-.81.78-.2.07-.42.12-.64.16-.11.02-.23.03-.35.03-.11.01-.26.03-.37 0-.08-.02-.12-.09-.16-.15l-.27-.36c-.16-.22-.33-.44-.49-.66-.28-.37-.56-.75-.84-1.13.47-.17.92-.39 1.26-.76.47-.52.6-1.23.73-1.9.13-.68.25-1.38.61-1.99.3-.51.74-.94 1.26-1.22.11-.06.27-.17.4-.18.13-.01.26.15.35.22.32.26.63.51.95.76l1.89 1.47.27.21c-1.25.29-2.37 1.11-2.99 2.25zm8.8 1.93c.03-.02.06-.05.09-.07.1-.07.2-.14.31-.19-1.97-1.45-3.92-2.91-5.85-4.4-.64-.5-1.28-.99-1.92-1.49-.32-.25-.63-.5-.95-.76-.26-.2-.56-.54-.91-.54-.31 0-.65.21-.91.37-.27.17-.53.37-.75.6-.47.48-.79 1.08-.98 1.72-.23.77-.24 1.63-.57 2.36-.3.69-1 .96-1.66 1.17-.24.07-.26.35-.14.5h.01c.62.83 1.23 1.68 1.85 2.5.14.17.29.3.5.33.25.04.52.02.77-.01.46-.05.95-.15 1.35-.4.81-.5.91-1.57 1.13-2.4.21-.78.61-1.45 1.21-1.98.62-.56 1.42-.92 2.26-.99h.01c.93.72 1.88 1.43 2.82 2.14.74.56 1.48 1.1 2.22 1.65.04-.04.07-.08.11-.11zM20.47 38.86c-1.88 1.72-3.75 3.45-5.59 5.2-.25.24.13.61.38.37 1.84-1.75 3.7-3.49 5.59-5.2.25-.23-.13-.59-.38-.37zM24.78 38.06c-1.95 1.63-3.85 3.31-5.7 5.04-.53.5-1.05.99-1.56 1.49-.25.24.13.61.38.37 1.81-1.77 3.69-3.48 5.61-5.14.55-.46 1.1-.93 1.65-1.39.26-.22-.12-.58-.38-.37zM4.27 36.83c-.73-.58-1.83-.63-2.6-.1-.14.09-.2.27-.11.41.08.14.28.21.41.11.56-.38 1.36-.4 1.91.03.53.42.73 1.17.51 1.8-.12.37.46.52.59.16.28-.84-.01-1.86-.71-2.41zm7.19 4.62c.86-.74 1.21-2.01.91-3.1-.38-1.35-1.73-2.04-3.07-1.89.04-.04.07-.08.11-.12.48-.52.99-1.05 1.36-1.66.34-.58.52-1.24.36-1.9-.14-.58-.52-1.08-.98-1.46-1.84-1.48-4.6-1.36-6.63-.37A6.719 6.719 0 0 0 .71 33.5c-.2.33.32.64.52.3 1.06-1.76 3.05-2.87 5.09-2.98 1.02-.05 2.09.13 2.98.65.46.26.87.62 1.12 1.1.25.5.2 1.07-.04 1.56-.32.65-.84 1.18-1.32 1.71-.35.38-.72.75-1.08 1.11-.24.16-.45.36-.63.59-.01 0-.01.01-.01.01-.01.02-.03.04-.05.06-.2.29.24.59.48.36.21-.19.41-.38.61-.58.68-.42 1.6-.48 2.31-.15 1.04.47 1.38 1.66 1.06 2.7-.18.57-.56 1.06-1.1 1.33-.26.14-.14.58.15.57.32-.02.53.28.56.58.05.4-.24.79-.5 1.08-.63.7-1.4 1.28-2.23 1.74-.34.19-.04.71.3.52.53-.29 1.02-.63 1.48-1.01.44-.36.87-.76 1.2-1.23.29-.42.46-.97.28-1.48-.09-.23-.23-.44-.43-.59zm2.39 3.42a130.1 130.1 0 0 1-3.86 3.56c-.26.22.12.59.37.37 1.32-1.16 2.61-2.35 3.87-3.57.25-.23-.13-.6-.38-.36zm6.3-7.42a134.557 134.557 0 0 0-9.85 8.73c-.24.23.14.6.38.36 2.44-2.39 4.98-4.68 7.6-6.88.74-.62 1.49-1.24 2.24-1.84.27-.21-.11-.58-.37-.37zm.7-3.27c-1.65 1.47-3.3 2.95-4.95 4.42-.47.43-.95.85-1.42 1.27-.26.23.12.6.38.37l4.95-4.42 1.42-1.27c.26-.23-.12-.6-.38-.37zm8.34 8.73c-.55-.49-1.28-.68-1.98-.85-.16-.03-.32.05-.37.21-.04.16.05.34.21.37.57.14 1.2.28 1.66.65.2.15.37.37.46.58.11.25.12.48.05.72-.05.16.05.33.21.37.16.05.32-.05.37-.21.21-.66-.1-1.4-.61-1.84zm1.38 7.21c-.37-1.07-1.61-1.43-2.64-1.19-.33.07-.65.2-.95.36.24-.56.38-1.16.38-1.78 0-.97-.37-1.9-1.03-2.61-.64-.66-1.52-1.08-2.45-1.08-1.05.01-2.05.52-2.8 1.23-.54.51-.95 1.12-1.3 1.76-.17-.39-.45-.73-.81-.95-1.01-.61-2.31-.28-3.23.34-.55.38-1.03.85-1.49 1.32-.28.28.15.71.42.43.84-.85 1.81-1.83 3.1-1.81.52.01 1.03.21 1.32.66.2.31.29.7.18 1.05-.03.07-.06.15-.1.22-.15.35.31.65.52.31.08-.12.13-.25.17-.37.71-1.56 1.73-3.18 3.53-3.53 1.66-.33 3.19 1.05 3.35 2.67.1.99-.22 2.01-.83 2.79-.09.12-.12.27-.02.4.09.11.26.16.39.08.92-.61 2.24-1.44 3.31-.66 1.03.74.16 2.1-.59 2.65-.13.1-.2.26-.11.41.08.13.28.21.41.11.84-.61 1.65-1.72 1.27-2.81zM14.3 40.71c0-.03-.01-.07-.03-.1a.325.325 0 0 0-.16-.12l-.07-.01c-.05 0-.1.02-.14.04-.11.08-.23.16-.35.25-.03.01-.05.03-.07.06-.02.03-.04.06-.05.09a.17.17 0 0 0 0 .1c0 .04.01.07.03.1.03.06.09.11.16.12l.07.01c.05 0 .09-.01.13-.04.12-.08.24-.16.35-.24a.27.27 0 0 0 .08-.07c.02-.02.04-.05.05-.09a.17.17 0 0 0 0-.1z" fill="#14223c" fill-rule="nonzero" class="fill-000000"></path></svg>