<svg viewBox="0 0 32 32" xml:space="preserve" xmlns="http://www.w3.org/2000/svg" enable-background="new 0 0 32 32"><path d="M27.3 32H4.8C2.1 32 0 29.9 0 27.3V.8C0 .3.3 0 .8 0h22.5c.4 0 .7.3.7.8v26.5c0 1.8 1.5 3.3 3.3 3.3.4 0 .8.3.8.8s-.4.6-.8.6zM1.5 1.5v25.8c0 1.8 1.5 3.3 3.3 3.3h19c-.8-.9-1.3-2-1.3-3.3V1.5h-21z" fill="#14223c" class="fill-000000"></path><path d="M27.3 32c-2.6 0-4.8-2.1-4.8-4.8v-20c0-.4.3-.8.8-.8h8c.4 0 .8.3.8.8v20c-.1 2.7-2.2 4.8-4.8 4.8zM24 8v19.3c0 1.8 1.5 3.3 3.3 3.3s3.3-1.5 3.3-3.3V8H24zM18.3 22.7H5.8c-.4 0-.8-.3-.8-.8s.3-.8.8-.8h12.5c.4 0 .8.3.8.8s-.4.8-.8.8zM18.3 26.5H5.8c-.4 0-.8-.3-.8-.8s.3-.7.8-.7h12.5c.4 0 .8.3.8.8s-.4.7-.8.7zM11.8 16.6c-.7 0-1.3-.2-1.8-.7-.4-.4-.8-1-.8-2.1 0-.4.3-.8.8-.8s.8.3.8.8c0 1.1.8 1.3 1.1 1.3.6 0 1.6-.4 1.6-1.6 0-1-.7-1.4-1.9-2-1-.5-2.3-1.1-2.3-2.6 0-1.4.7-2.4 1.9-2.8 2.1-.5 3.5 1.4 3.6 1.5.2.3.2.8-.2 1-.3.2-.8.2-1-.2 0 0-.9-1.2-2-.9-.2 0-.8.2-.8 1.3 0 .5.5.7 1.4 1.2 1.2.6 2.7 1.4 2.7 3.4-.1 2.1-1.6 3.2-3.1 3.2z" fill="#14223c" class="fill-000000"></path><path d="M12 7.6c-.4 0-.8-.3-.8-.8V4.9c0-.4.3-.8.8-.8s.8.3.8.8v1.9c0 .4-.4.8-.8.8zM12 18.5c-.4 0-.8-.3-.8-.8v-1.9c0-.4.3-.8.8-.8s.8.3.8.8v1.9c0 .5-.4.8-.8.8z" fill="#14223c" class="fill-000000"></path></svg>