<?xml version="1.0" ?><svg id="Layer_1" style="enable-background:new 0 0 1024 1024;" version="1.1" viewBox="0 0 1024 1024" xml:space="preserve" xmlns="http://www.w3.org/2000/svg" xmlns:xlink="http://www.w3.org/1999/xlink"><g id="XMLID_109_"><g id="XMLID_61_"><g id="XMLID_30_"><path d="M522.1,963.6c-14.7-7.8-29.4-15.5-44.1-23.3c-35.4-18.7-70.9-37.4-106.3-56.1     c-42.7-22.6-85.4-45.1-128.2-67.7c-37-19.6-74.1-39.1-111.1-58.7c-17.9-9.4-35.5-19.7-53.7-28.4c-0.3-0.1-0.5-0.3-0.7-0.4     c3.3,5.8,6.6,11.5,9.9,17.3c0-15.6,0-31.2,0-46.8c0-37.3,0-74.5,0-111.8c0-45.2,0-90.4,0-135.7c0-38.9,0-77.9,0-116.8     c0-18.9,0.7-37.9,0-56.8c0-0.3,0-0.5,0-0.8c-10,5.8-20.1,11.5-30.1,17.3c14.7,7.8,29.4,15.5,44.1,23.3     c35.4,18.7,70.9,37.4,106.3,56.2c42.7,22.6,85.4,45.2,128.2,67.7c37,19.6,74.1,39.2,111.1,58.7c17.9,9.4,35.5,19.7,53.7,28.4     c0.3,0.1,0.5,0.3,0.7,0.4c-3.3-5.8-6.6-11.5-9.9-17.3c0,15.6,0,31.2,0,46.7c0,37.2,0,74.5,0,111.7c0,45.2,0,90.4,0,135.6     c0,38.9,0,77.8,0,116.7c0,18.9-0.5,37.9,0,56.8c0,0.3,0,0.5,0,0.8c0,10.5,9.2,20.5,20,20c10.8-0.5,20-8.8,20-20     c0-15.6,0-31.2,0-46.7c0-37.2,0-74.5,0-111.7c0-45.2,0-90.4,0-135.6c0-38.9,0-77.8,0-116.7c0-18.9,0.5-37.9,0-56.8     c0-0.3,0-0.5,0-0.8c0-6.8-3.8-14-9.9-17.3c-14.7-7.8-29.4-15.5-44.1-23.3c-35.4-18.7-70.9-37.4-106.3-56.2     c-42.7-22.6-85.4-45.2-128.2-67.7c-37-19.6-74.1-39.2-111.1-58.7c-17.9-9.5-35.7-19.2-53.7-28.4c-0.3-0.1-0.5-0.3-0.7-0.4     c-13.2-7-30.1,1.6-30.1,17.3c0,15.6,0,31.2,0,46.8c0,37.3,0,74.5,0,111.8c0,45.2,0,90.4,0,135.7c0,38.9,0,77.9,0,116.8     c0,18.9-0.5,37.9,0,56.8c0,0.3,0,0.5,0,0.8c0,6.8,3.8,14,9.9,17.3c14.7,7.8,29.4,15.5,44.1,23.3c35.4,18.7,70.9,37.4,106.3,56.1     c42.7,22.6,85.4,45.1,128.2,67.7c37,19.6,74.1,39.1,111.1,58.7c17.9,9.5,35.7,19.2,53.7,28.4c0.3,0.1,0.5,0.3,0.7,0.4     c9.2,4.9,22.2,2.7,27.4-7.2C534.2,981.7,532,968.8,522.1,963.6z" id="XMLID_34_"/></g></g><g id="XMLID_87_"><g id="XMLID_24_"><path d="M946,729.1c-14.7,7.8-29.4,15.5-44.1,23.3c-35.4,18.7-70.9,37.4-106.3,56.1     c-42.7,22.6-85.4,45.1-128.2,67.7c-37,19.6-74.1,39.1-111.1,58.7c-17.9,9.4-36.3,18.3-53.7,28.4c-0.2,0.1-0.5,0.3-0.7,0.4     c10,5.8,20.1,11.5,30.1,17.3c0-15.6,0-31.2,0-46.7c0-37.2,0-74.5,0-111.7c0-45.2,0-90.4,0-135.6c0-38.9,0-77.8,0-116.7     c0-18.9,0.8-37.9,0-56.8c0-0.3,0-0.5,0-0.8c-3.3,5.8-6.6,11.5-9.9,17.3c14.7-7.8,29.4-15.5,44.1-23.3     c35.4-18.7,70.9-37.4,106.3-56.2c42.7-22.6,85.4-45.2,128.2-67.7c37-19.6,74.1-39.2,111.1-58.7c17.9-9.4,36.3-18.3,53.7-28.4     c0.2-0.1,0.5-0.3,0.7-0.4c-10-5.8-20.1-11.5-30.1-17.3c0,15.6,0,31.2,0,46.8c0,37.3,0,74.5,0,111.8c0,45.2,0,90.4,0,135.7     c0,38.9,0,77.9,0,116.8c0,18.9-0.5,37.9,0,56.8c0,0.3,0,0.5,0,0.8c0,10.5,9.2,20.5,20,20c10.8-0.5,20-8.8,20-20     c0-15.6,0-31.2,0-46.8c0-37.3,0-74.5,0-111.8c0-45.2,0-90.4,0-135.7c0-38.9,0-77.9,0-116.8c0-18.9,0.5-37.9,0-56.8     c0-0.3,0-0.5,0-0.8c0-15.7-16.9-24.3-30.1-17.3c-14.7,7.8-29.4,15.5-44.1,23.3c-35.4,18.7-70.9,37.4-106.3,56.2     c-42.7,22.6-85.4,45.2-128.2,67.7c-37,19.6-74.1,39.2-111.1,58.7c-17.9,9.5-36.2,18.4-53.7,28.4c-0.2,0.1-0.5,0.3-0.7,0.4     c-6.2,3.3-9.9,10.5-9.9,17.3c0,15.6,0,31.2,0,46.7c0,37.2,0,74.5,0,111.7c0,45.2,0,90.4,0,135.6c0,38.9,0,77.8,0,116.7     c0,18.9-0.5,37.9,0,56.8c0,0.3,0,0.5,0,0.8c0,15.7,16.9,24.3,30.1,17.3c14.7-7.8,29.4-15.5,44.1-23.3     c35.4-18.7,70.9-37.4,106.3-56.1c42.7-22.6,85.4-45.1,128.2-67.7c37-19.6,74.1-39.1,111.1-58.7c17.9-9.4,36.2-18.4,53.7-28.4     c0.2-0.1,0.5-0.3,0.7-0.4c9.3-4.9,12.9-18.6,7.2-27.4C967.3,726.9,955.9,723.9,946,729.1z" id="XMLID_28_"/></g></g><g id="XMLID_88_"><g id="XMLID_18_"><path d="M946,260.5c-14.7,7.8-29.4,15.5-44.1,23.3c-35.4,18.7-70.9,37.4-106.3,56.2     c-42.7,22.6-85.4,45.2-128.2,67.7c-37,19.6-74.1,39.2-111.1,58.7c-17.9,9.4-36.2,18.3-53.7,28.4c-0.2,0.1-0.5,0.3-0.7,0.4     c6.7,0,13.5,0,20.2,0c-14.7-7.8-29.4-15.5-44.1-23.3c-35.4-18.7-70.9-37.4-106.3-56.2c-42.7-22.6-85.4-45.2-128.2-67.7     c-37-19.6-74.1-39.2-111.1-58.7c-17.9-9.4-35.5-19.7-53.7-28.4c-0.3-0.1-0.5-0.3-0.7-0.4c0,11.5,0,23,0,34.5     c14.7-7.8,29.4-15.5,44.1-23.3c35.4-18.7,70.9-37.4,106.3-56.1c42.7-22.6,85.4-45.1,128.2-67.7c37-19.6,74.1-39.1,111.1-58.7     c17.9-9.4,36.2-18.3,53.7-28.4c0.2-0.1,0.5-0.3,0.7-0.4c-6.7,0-13.5,0-20.2,0c14.7,7.8,29.4,15.5,44.1,23.3     c35.4,18.7,70.9,37.4,106.3,56.1c42.7,22.6,85.4,45.1,128.2,67.7c37,19.6,74.1,39.1,111.1,58.7c17.9,9.5,35.7,19.2,53.7,28.4     c0.3,0.1,0.5,0.3,0.7,0.4c9.2,4.9,22.2,2.7,27.4-7.2c4.9-9.2,2.7-22.1-7.2-27.4c-14.9-7.9-29.7-15.7-44.6-23.6     c-35.5-18.8-71-37.5-106.6-56.3c-42.9-22.6-85.7-45.3-128.6-67.9c-36.9-19.5-73.8-39-110.8-58.5c-17.6-9.3-35.1-19.1-53-28     c-10.8-5.3-18.4-1.6-27.3,3.1c-9.2,4.9-18.4,9.7-27.5,14.6c-33.4,17.6-66.7,35.3-100.1,52.9c-42.8,22.6-85.6,45.2-128.4,67.8     c-38.5,20.3-77,40.7-115.5,61c-21.1,11.1-42.1,22.2-63.2,33.4c-1,0.5-2,1-2.9,1.6c-13,6.9-13,27.7,0,34.5     c14.9,7.9,29.7,15.7,44.6,23.6c35.5,18.8,71,37.5,106.6,56.3c42.9,22.7,85.7,45.3,128.6,68c36.9,19.5,73.8,39,110.8,58.5     c17.6,9.3,35.1,19.2,53,28c10.8,5.3,18.4,1.6,27.3-3.1c9.2-4.9,18.4-9.7,27.5-14.6c33.4-17.6,66.7-35.3,100.1-52.9     c42.8-22.6,85.6-45.2,128.4-67.8c38.5-20.4,77-40.7,115.5-61.1c21.1-11.1,42.1-22.3,63.2-33.4c1-0.5,2-1,2.9-1.6     c9.3-4.9,12.9-18.6,7.2-27.4C967.3,258.2,955.9,255.2,946,260.5z" id="XMLID_22_"/></g></g><g id="XMLID_110_"><g id="XMLID_12_"><path d="M300,412.5c14.7-7.8,29.4-15.5,44.1-23.3c35.4-18.7,70.9-37.4,106.3-56.2c42.7-22.6,85.4-45.2,128.2-67.7     c37-19.6,74.1-39.2,111.1-58.7c17.9-9.5,36.2-18.4,53.7-28.4c0.2-0.1,0.5-0.3,0.7-0.4c9.3-4.9,12.9-18.6,7.2-27.4     c-6.1-9.4-17.5-12.4-27.4-7.2c-14.7,7.8-29.4,15.5-44.1,23.3c-35.4,18.7-70.9,37.4-106.3,56.2c-42.7,22.6-85.4,45.2-128.2,67.7     c-37,19.6-74.1,39.2-111.1,58.7c-17.9,9.5-36.2,18.4-53.7,28.4c-0.2,0.1-0.5,0.3-0.7,0.4c-9.3,4.9-12.9,18.6-7.2,27.4     C278.7,414.8,290.1,417.8,300,412.5L300,412.5z" id="XMLID_16_"/></g></g></g></svg>