<?xml version="1.0" ?><svg style="enable-background:new 0 0 24 24;" version="1.1" viewBox="0 0 24 24" xml:space="preserve" xmlns="http://www.w3.org/2000/svg" xmlns:xlink="http://www.w3.org/1999/xlink"><style type="text/css">
	.st0{display:none;}
	.st1{display:inline;}
	.st2{opacity:0.2;fill:none;stroke:#000000;stroke-width:5.000000e-02;stroke-miterlimit:10;}
</style><g class="st0" id="grid_system"/><g id="_icons"><path d="M6,19h12c2.2,0,4-1.8,4-4V9c0-2.2-1.8-4-4-4H6C3.8,5,2,6.8,2,9v6C2,17.2,3.8,19,6,19z M6,7h12c1.1,0,2,0.9,2,2H4   C4,7.9,4.9,7,6,7z M4,11h16v4c0,1.1-0.9,2-2,2H6c-1.1,0-2-0.9-2-2V11z"/><circle cx="14" cy="15" r="1"/><circle cx="17" cy="15" r="1"/></g></svg>