<?xml version="1.0" ?><svg height="24" id="svg8" version="1.1" viewBox="0 0 24 24" width="24" xmlns="http://www.w3.org/2000/svg" xmlns:cc="http://creativecommons.org/ns#" xmlns:dc="http://purl.org/dc/elements/1.1/" xmlns:rdf="http://www.w3.org/1999/02/22-rdf-syntax-ns#" xmlns:svg="http://www.w3.org/2000/svg"><defs id="defs2"/><g id="g1514" style="display:inline" transform="translate(-0.0011279,-290.64853)"><path d="m 2.31126,305.45171 a 1.0001,1.0001 0 0 0 -0.2928,0.71263 l 0.0345,5.48974 a 1.0001,1.0001 0 0 0 1.00697,0.99283 l 5.42206,-0.0359 a 1.0001,1.0001 0 0 0 0.70019,-0.2914 l 11.76119,-11.76119 c 1.38704,-1.387 1.38747,-3.6622 0,-5.04918 l -1.81887,-1.81886 c -1.38708,-1.387 -3.66487,-1.387 -5.05195,-1e-5 z m 1.70976,1.11866 8.09168,-8.09168 4.04099,4.04102 -8.09442,8.09442 -4.01202,0.0262 z m 9.50588,-9.50588 1.95975,-1.95975 c 0.62801,-0.628 1.59549,-0.62798 2.2235,1e-5 l 1.81887,1.81887 c 0.62805,0.62798 0.62768,1.59273 10e-6,2.22075 l -1.96112,1.96112 z" id="rect1499" style="color:#000000;font-style:normal;font-variant:normal;font-weight:normal;font-stretch:normal;font-size:medium;line-height:normal;font-family:sans-serif;font-variant-ligatures:normal;font-variant-position:normal;font-variant-caps:normal;font-variant-numeric:normal;font-variant-alternates:normal;font-variant-east-asian:normal;font-feature-settings:normal;font-variation-settings:normal;text-indent:0;text-align:start;text-decoration:none;text-decoration-line:none;text-decoration-style:solid;text-decoration-color:#000000;letter-spacing:normal;word-spacing:normal;text-transform:none;writing-mode:lr-tb;direction:ltr;text-orientation:mixed;dominant-baseline:auto;baseline-shift:baseline;text-anchor:start;white-space:normal;shape-padding:0;shape-margin:0;inline-size:0;clip-rule:nonzero;display:inline;overflow:visible;visibility:visible;opacity:1;isolation:auto;mix-blend-mode:normal;color-interpolation:sRGB;color-interpolation-filters:linearRGB;solid-color:#000000;solid-opacity:1;vector-effect:none;fill:#000000;fill-opacity:1;fill-rule:nonzero;stroke:none;stroke-linecap:round;stroke-linejoin:round;stroke-miterlimit:4;stroke-dasharray:none;stroke-dashoffset:0;stroke-opacity:1;color-rendering:auto;image-rendering:auto;shape-rendering:auto;text-rendering:auto;enable-background:accumulate;stop-color:#000000;stop-opacity:1"/></g></svg>