<?xml version="1.0" ?><svg id="Layer_1" style="enable-background:new 0 0 48 48;" version="1.1" viewBox="0 0 48 48" xml:space="preserve" xmlns="http://www.w3.org/2000/svg" xmlns:xlink="http://www.w3.org/1999/xlink"><path d="M41.9,39.8c3.1,0,5.6-2.5,5.6-5.6V16.1l-10-10l-2.1,2.1l3.3,3.3v10.1c0,2.1,1.7,3.8,3.8,3.8h1.9v8.7c0,1.4-1.2,2.6-2.6,2.6  h-7.5V5.1c0-2.5-2.1-4.6-4.6-4.6H10.1c-2.5,0-4.6,2.1-4.6,4.6v39.4h-5v3h5h28.9h13.1v-3H34.4v-4.7H41.9z M42.6,22.5  c-0.5,0-0.8-0.4-0.8-0.8v-7.1l2.7,2.7v5.2H42.6z M8.5,44.5V5.1c0-0.9,0.7-1.6,1.6-1.6h19.8c0.9,0,1.6,0.7,1.6,1.6v39.4H8.5z"/><path d="M11.4,22.1h17.2V7.5H11.4V22.1z M14.4,10.5h11.2v8.6H14.4V10.5z"/><rect height="3" width="5.3" x="12.9" y="27.5"/></svg>