<?xml version="1.0" encoding="UTF-8"?>
<svg width="305px" height="380px" viewBox="0 0 305 380" version="1.1" xmlns="http://www.w3.org/2000/svg" xmlns:xlink="http://www.w3.org/1999/xlink">
    <!-- Generator: Sketch 62 (91390) - https://sketch.com -->
    <title>5_ContactUs  84</title>
    <desc>Created with Sketch.</desc>
    <defs>
        <linearGradient x1="47.0927693%" y1="-1.93265701%" x2="47.3453088%" y2="6.89501407%" id="linearGradient-1">
            <stop stop-color="#FF9248" offset="0%"></stop>
            <stop stop-color="#FF9046" offset="1.96963%"></stop>
            <stop stop-color="#FB7020" offset="44.53%"></stop>
            <stop stop-color="#F85B09" offset="78.69%"></stop>
            <stop stop-color="#F75400" offset="100%"></stop>
        </linearGradient>
        <linearGradient x1="50.0052099%" y1="49.8205206%" x2="50.4657323%" y2="49.5516386%" id="linearGradient-2">
            <stop stop-color="#FF9248" offset="0%"></stop>
            <stop stop-color="#FF9046" offset="1.96963%"></stop>
            <stop stop-color="#FB7020" offset="44.53%"></stop>
            <stop stop-color="#F85B09" offset="78.69%"></stop>
            <stop stop-color="#F75400" offset="100%"></stop>
        </linearGradient>
        <linearGradient x1="38.7744581%" y1="-0.0315788834%" x2="59.8424143%" y2="109.899778%" id="linearGradient-3">
            <stop stop-color="#FF9248" offset="0%"></stop>
            <stop stop-color="#FF8A29" offset="13.96%"></stop>
            <stop stop-color="#FF8513" offset="27.92%"></stop>
            <stop stop-color="#FF8105" offset="41.11%"></stop>
            <stop stop-color="#FF8000" offset="52.61%"></stop>
            <stop stop-color="#FE7A00" offset="66.09%"></stop>
            <stop stop-color="#FB6800" offset="84.62%"></stop>
            <stop stop-color="#F75400" offset="100%"></stop>
        </linearGradient>
        <linearGradient x1="52.8785714%" y1="-0.667181122%" x2="48.8917857%" y2="89.3895536%" id="linearGradient-4">
            <stop stop-color="#FF9248" offset="0%"></stop>
            <stop stop-color="#FF9046" offset="1.96963%"></stop>
            <stop stop-color="#FB7020" offset="44.53%"></stop>
            <stop stop-color="#F85B09" offset="78.69%"></stop>
            <stop stop-color="#F75400" offset="100%"></stop>
        </linearGradient>
        <linearGradient x1="27.8101124%" y1="49.9713373%" x2="90.5235955%" y2="49.9713373%" id="linearGradient-5">
            <stop stop-color="#FF9248" offset="0%"></stop>
            <stop stop-color="#FF9046" offset="1.96963%"></stop>
            <stop stop-color="#FB7020" offset="44.53%"></stop>
            <stop stop-color="#F85B09" offset="78.69%"></stop>
            <stop stop-color="#F75400" offset="100%"></stop>
        </linearGradient>
        <linearGradient x1="30.8324601%" y1="-5.71574586%" x2="101.800919%" y2="199.017127%" id="linearGradient-6">
            <stop stop-color="#FFFFFF" offset="0%"></stop>
            <stop stop-color="#FCFCFC" offset="42.71%"></stop>
            <stop stop-color="#F4F4F4" offset="69.59%"></stop>
            <stop stop-color="#E5E5E5" offset="92.05%"></stop>
            <stop stop-color="#DEDEDE" offset="100%"></stop>
        </linearGradient>
        <linearGradient x1="-15.8693915%" y1="-240.195035%" x2="103.086322%" y2="300.634043%" id="linearGradient-7">
            <stop stop-color="#FFFFFF" offset="0%"></stop>
            <stop stop-color="#FCFCFC" offset="42.71%"></stop>
            <stop stop-color="#F4F4F4" offset="69.59%"></stop>
            <stop stop-color="#E5E5E5" offset="92.05%"></stop>
            <stop stop-color="#DEDEDE" offset="100%"></stop>
        </linearGradient>
        <linearGradient x1="-253270%" y1="-708545.95%" x2="-50762%" y2="-142082.95%" id="linearGradient-8">
            <stop stop-color="#FFFFFF" offset="0%"></stop>
            <stop stop-color="#FCFCFC" offset="42.71%"></stop>
            <stop stop-color="#F4F4F4" offset="69.59%"></stop>
            <stop stop-color="#E5E5E5" offset="92.05%"></stop>
            <stop stop-color="#DEDEDE" offset="100%"></stop>
        </linearGradient>
        <linearGradient x1="-85291.7%" y1="-238674.95%" x2="33265.1%" y2="92949.05%" id="linearGradient-9">
            <stop stop-color="#FFFFFF" offset="0%"></stop>
            <stop stop-color="#FCFCFC" offset="42.71%"></stop>
            <stop stop-color="#F4F4F4" offset="69.59%"></stop>
            <stop stop-color="#E5E5E5" offset="92.05%"></stop>
            <stop stop-color="#DEDEDE" offset="100%"></stop>
        </linearGradient>
        <linearGradient x1="-100599.9%" y1="-281480.95%" x2="81121%" y2="226835.05%" id="linearGradient-10">
            <stop stop-color="#FFFFFF" offset="0%"></stop>
            <stop stop-color="#FCFCFC" offset="42.71%"></stop>
            <stop stop-color="#F4F4F4" offset="69.59%"></stop>
            <stop stop-color="#E5E5E5" offset="92.05%"></stop>
            <stop stop-color="#DEDEDE" offset="100%"></stop>
        </linearGradient>
        <linearGradient x1="-5.82050726%" y1="-212.251034%" x2="106.484606%" y2="316.477241%" id="linearGradient-11">
            <stop stop-color="#FFFFFF" offset="0%"></stop>
            <stop stop-color="#FCFCFC" offset="42.71%"></stop>
            <stop stop-color="#F4F4F4" offset="69.59%"></stop>
            <stop stop-color="#E5E5E5" offset="92.05%"></stop>
            <stop stop-color="#DEDEDE" offset="100%"></stop>
        </linearGradient>
        <linearGradient x1="-14.1248181%" y1="-261.736364%" x2="99.9414627%" y2="273.142657%" id="linearGradient-12">
            <stop stop-color="#FFFFFF" offset="0%"></stop>
            <stop stop-color="#FCFCFC" offset="42.71%"></stop>
            <stop stop-color="#F4F4F4" offset="69.59%"></stop>
            <stop stop-color="#E5E5E5" offset="92.05%"></stop>
            <stop stop-color="#DEDEDE" offset="100%"></stop>
        </linearGradient>
        <linearGradient x1="-29.3727347%" y1="-311.477143%" x2="90.2852959%" y2="233.395714%" id="linearGradient-13">
            <stop stop-color="#FFFFFF" offset="0%"></stop>
            <stop stop-color="#FCFCFC" offset="42.71%"></stop>
            <stop stop-color="#F4F4F4" offset="69.59%"></stop>
            <stop stop-color="#E5E5E5" offset="92.05%"></stop>
            <stop stop-color="#DEDEDE" offset="100%"></stop>
        </linearGradient>
        <linearGradient x1="-28.4803262%" y1="-288.335714%" x2="93.1832391%" y2="258.345714%" id="linearGradient-14">
            <stop stop-color="#FFFFFF" offset="0%"></stop>
            <stop stop-color="#FCFCFC" offset="42.71%"></stop>
            <stop stop-color="#F4F4F4" offset="69.59%"></stop>
            <stop stop-color="#E5E5E5" offset="92.05%"></stop>
            <stop stop-color="#DEDEDE" offset="100%"></stop>
        </linearGradient>
        <linearGradient x1="-28.7265036%" y1="-328.875524%" x2="85.3432633%" y2="206.017483%" id="linearGradient-15">
            <stop stop-color="#FFFFFF" offset="0%"></stop>
            <stop stop-color="#FCFCFC" offset="42.71%"></stop>
            <stop stop-color="#F4F4F4" offset="69.59%"></stop>
            <stop stop-color="#E5E5E5" offset="92.05%"></stop>
            <stop stop-color="#DEDEDE" offset="100%"></stop>
        </linearGradient>
        <linearGradient x1="-42.1986413%" y1="-354.425532%" x2="77.7339216%" y2="188.322695%" id="linearGradient-16">
            <stop stop-color="#FFFFFF" offset="0%"></stop>
            <stop stop-color="#FCFCFC" offset="42.71%"></stop>
            <stop stop-color="#F4F4F4" offset="69.59%"></stop>
            <stop stop-color="#E5E5E5" offset="92.05%"></stop>
            <stop stop-color="#DEDEDE" offset="100%"></stop>
        </linearGradient>
        <linearGradient x1="-1640.08333%" y1="-4684.58167%" x2="813.077778%" y2="2177.41667%" id="linearGradient-17">
            <stop stop-color="#FFFFFF" offset="0%"></stop>
            <stop stop-color="#FCFCFC" offset="42.71%"></stop>
            <stop stop-color="#F4F4F4" offset="69.59%"></stop>
            <stop stop-color="#E5E5E5" offset="92.05%"></stop>
            <stop stop-color="#DEDEDE" offset="100%"></stop>
        </linearGradient>
    </defs>
    <g id="5_ContactUs--84" stroke="none" stroke-width="1" fill="none" fill-rule="evenodd">
        <g id="GH_bag_fulllogo_cheddar_png-(1)-Copy" fill-rule="nonzero">
            <path d="M204.329883,72.7490294 L191.361577,72.7490294 L191.361577,44.2820179 C191.361577,27.201811 177.444372,13.2846054 160.364165,13.2846054 C143.283958,13.2846054 129.366752,27.201811 129.366752,44.2820179 L129.366752,72.7490294 L116.398447,72.7490294 L116.398447,44.2820179 C116.398447,19.9269081 136.325355,0 160.680465,0 C185.035575,0 204.962483,19.9269081 204.962483,44.2820179 L204.962483,72.7490294 L204.329883,72.7490294 Z" id="Path" fill="#F75400"></path>
            <path d="M30.9973809,51.2412533 L13.2845421,67.3725599 C13.2845421,67.3725599 19.9268448,99.6351729 21.1920453,99.3188728 C22.1409457,99.0025727 43.0168174,92.6765701 43.0168174,92.6765701 L30.9973809,51.2412533 Z" id="Path" fill="#FF8000"></path>
            <polygon id="Path" fill="url(#linearGradient-1)" points="281.507114 51.2412533 273.915911 58.1998561 265.692108 51.2412533 258.417205 58.1998561 250.193401 51.2412533 242.602198 58.1998561 234.378395 51.2412533 227.103492 58.1998561 218.879689 51.2412533 211.288485 58.1998561 203.064682 51.2412533 195.473479 58.1998561 187.565976 51.2412533 179.974773 58.1998561 171.750969 51.2412533 164.159766 58.1998561 156.252263 51.2412533 148.66106 58.1998561 140.437257 51.2412533 132.846054 58.1998561 124.938551 51.2412533 117.031047 58.1998561 109.123544 51.2412533 101.532341 58.1998561 93.6248379 51.2412533 85.7173347 58.1998561 77.8098315 51.2412533 70.2186284 58.1998561 62.3111252 51.2412533 54.403622 58.1998561 46.4961188 51.2412533 38.5886156 58.1998561 30.9973809 51.2412533 30.6810492 60.0976569 30.6810492 68.9540605 30.6810492 78.1267642 30.6810492 86.9831678 30.6810492 96.1558715 30.6810492 105.328575 30.6810492 114.184979 30.364749 123.673983 30.364749 132.846686 30.364749 142.01939 30.364749 151.508394 30.364749 160.997398 30.364749 170.486402 30.364749 179.975405 30.0485122 189.464409 30.0485122 198.953413 30.0485122 208.758717 30.0485122 218.564021 30.0485122 228.369325 30.0485122 238.174629 29.7321804 247.979933 29.7321804 258.101537 29.7321804 268.223141 29.7321804 278.344745 29.7321804 288.466349 29.7321804 298.587953 29.4158803 309.025858 29.4158803 319.146829 29.4158803 329.584733 29.4158803 340.022638 29.4158803 350.776842 29.4158803 361.214746 37.9560154 361.214746 46.4961188 361.214746 55.0362223 361.214746 63.5763257 361.214746 72.1164292 361.214746 80.9728328 361.214746 89.5129362 361.214746 98.0530397 361.214746 106.593143 361.214746 115.133247 361.214746 123.67335 361.214746 132.529754 361.214746 141.069857 361.214746 149.609961 361.214746 158.150064 361.214746 166.690167 361.214746 175.230271 361.214746 184.086674 361.214746 192.626778 361.214746 201.166881 361.214746 209.706985 361.214746 218.247088 361.214746 226.787192 361.214746 235.643595 361.214746 244.183699 361.214746 252.723802 361.214746 261.263906 361.214746 269.804009 361.214746 278.344113 361.214746 287.200516 361.214746 295.74062 351.725742 304.280723 355.205044 303.648123 346.03234 302.699222 340.022638 302.066622 329.584733 301.117722 319.146829 300.485122 309.025858 299.536221 298.587953 298.903621 288.466349 298.271021 278.344745 297.32212 268.223141 296.68952 258.101537 296.05692 247.979933 295.108019 238.174629 294.475419 228.369325 293.842819 218.564021 292.893919 208.758717 292.261318 198.953413 291.628718 189.464409 290.996118 179.975405 290.047217 170.486402 289.414617 160.997398 288.782017 151.508394 288.149417 142.01939 287.516816 132.846686 286.884216 123.673983 285.935316 114.184979 285.302715 105.328575 284.670115 96.1558715 284.037515 86.9831678 283.404915 78.1267642 282.772314 68.9540605 282.139714 60.0976569"></polygon>
            <path d="M275.497411,379.876454 L304.280723,355.521344 L281.507114,51.5562883 L264.110607,67.6875948 C264.110607,67.3712947 264.426907,358.051745 275.497411,379.876454 Z" id="Path" fill="url(#linearGradient-2)"></path>
            <polygon id="Path" fill="url(#linearGradient-3)" points="263.794307 67.3712947 256.203104 74.3298975 248.2956 67.3712947 240.704397 74.3298975 232.480594 67.3712947 224.889391 74.3298975 216.981888 67.3712947 209.074385 74.3298975 201.166881 67.3712947 193.575678 74.3298975 185.351875 67.3712947 177.760672 74.3298975 169.853169 67.3712947 161.945666 74.3298975 154.038162 67.3712947 146.130659 74.3298975 138.539456 67.3712947 130.631953 74.3298975 122.72445 67.3712947 114.816946 74.3298975 106.909443 67.3712947 99.0019401 74.3298975 91.410737 67.3712947 83.5032338 74.3298975 75.5957306 67.3712947 67.6882274 74.3298975 60.0970243 67.3712947 51.873221 74.3298975 44.2820179 67.3712947 36.3745147 74.3298975 28.7832484 67.3712947 20.5595083 74.3298975 12.968242 67.3712947 12.6520051 76.2276982 12.3356734 85.0841018 11.7030415 94.2568055 11.3867413 103.429509 11.0705045 112.602213 10.7541727 121.774917 10.4378726 130.94762 9.80524071 140.120324 9.48900384 149.609328 9.17267208 158.782032 8.85637195 168.271035 8.22374007 177.760039 7.9075032 187.249043 7.59117144 197.054347 7.27487131 206.543351 6.64223943 216.348655 6.32600256 226.153959 6.0096708 235.959263 5.69337067 245.764567 5.06073879 255.569871 4.74450192 265.691475 4.42817016 275.813079 3.79553828 285.934683 3.47923815 296.056287 3.16300128 306.177891 2.53036307 316.616428 2.21404396 327.054332 1.58150064 337.492237 1.26518153 347.930141 0.948862428 358.368045 0.316222951 369.122249 0 379.876454 8.5400402 379.876454 17.0801753 379.876454 25.9365472 379.876454 34.476714 379.876454 43.0168174 379.876454 51.5569209 379.876454 60.0970243 379.876454 68.9534279 379.876454 77.4935314 379.876454 86.0336348 379.876454 94.5737383 379.876454 103.113842 379.876454 111.970245 379.876454 120.510349 379.876454 129.050452 379.876454 137.590556 379.876454 146.130659 379.876454 154.987063 379.876454 163.527166 379.876454 172.06727 379.876454 180.607373 379.876454 189.463777 379.876454 198.00388 379.876454 206.543984 379.876454 215.084087 379.876454 223.62419 379.876454 232.480594 379.876454 241.020698 379.876454 249.560801 379.876454 258.100904 379.876454 266.641008 379.876454 275.497411 379.876454 274.864811 369.122249 274.548511 358.368045 274.232211 347.930141 273.915911 337.492237 273.599611 327.054332 272.96701 316.616428 272.65071 306.177891 272.33441 296.056287 272.01811 285.934683 271.70181 275.813079 271.06921 265.691475 270.75291 255.569871 270.436609 245.764567 270.120309 235.959263 269.804009 226.153959 269.487709 216.348655 268.855109 206.543351 268.538809 197.054347 268.222509 187.249043 267.906208 177.760039 267.589908 168.271035 267.273608 158.782032 266.957308 149.609328 266.641008 140.120324 266.324708 130.94762 266.008408 121.774917 265.692108 112.602213 265.059507 103.429509 264.743207 94.2568055 264.426907 85.0841018 264.110607 76.2276982"></polygon>
            <path d="M181.872574,83.1863011 L168.587968,83.1863011 L168.587968,54.7192895 C168.587968,37.6390826 154.670763,23.721877 137.590556,23.721877 C120.510349,23.721877 106.593143,37.6390826 106.593143,54.7192895 L106.593143,83.1863011 L93.6248379,83.1863011 L93.6248379,54.7192895 C93.6248379,30.3641797 113.551746,10.4372716 137.906856,10.4372716 C162.261966,10.4372716 182.188874,30.3641797 182.188874,54.7192895 L182.188874,83.1863011 L181.872574,83.1863011 Z" id="Path" fill="url(#linearGradient-4)"></path>
            <polygon id="Path" fill="url(#linearGradient-5)" points="275.497411 379.876454 291.945018 343.501939 273.915911 58.1989072 263.794307 67.371611"></polygon>
            <polygon id="Path" fill="#F75400" points="275.497411 379.876454 291.945018 343.501939 304.280723 355.205044"></polygon>
            <path d="M170.485769,240.071165 C167.006468,240.071165 163.527166,239.754864 160.047865,239.754864 C159.098964,239.754864 158.150064,238.805964 158.150064,237.857064 C158.150064,237.540764 158.782664,227.419159 159.415265,214.767154 C160.364165,193.258746 160.364165,177.760039 159.415265,168.587336 C159.415265,168.271035 159.415265,167.954735 159.415265,167.954735 C159.415265,167.638435 159.098964,167.638435 158.782664,167.638435 C158.466364,167.638435 158.466364,167.638435 158.466364,167.638435 L158.150064,167.954735 C158.150064,167.954735 146.446959,180.60674 143.916558,216.032355 C143.916558,216.032355 143.916558,216.348655 143.916558,216.664955 C143.916558,216.981255 144.232858,217.297555 144.865459,217.297555 L151.191461,218.246456 C152.456662,218.562756 153.089262,219.511656 153.089262,220.460557 C153.089262,220.460557 152.772962,226.786559 151.507761,237.857064 C151.191461,239.122264 150.558861,239.754864 149.29366,239.754864 L144.232858,239.754864 C142.018757,239.754864 136.641655,239.754864 136.641655,239.754864 L130.315653,239.754864 C129.366752,239.754864 128.417852,238.805964 128.101552,237.857064 C128.101552,236.591863 127.785252,233.745162 127.152651,229.94956 C126.203751,220.776857 126.520051,218.879056 126.520051,218.562756 C126.520051,217.613855 127.152651,216.981255 127.785252,216.348655 C129.999353,214.767154 131.580853,211.920453 131.580853,209.073752 L132.846054,208.757452 L131.580853,208.757452 C130.948253,193.258746 130.948253,180.60674 131.580853,171.117737 C131.580853,170.801437 131.264553,170.485136 130.948253,170.485136 C130.631953,170.485136 130.315653,170.801437 130.315653,171.117737 C129.999353,177.760039 129.683052,186.300143 129.999353,196.421747 C129.999353,198.319548 128.417852,199.901048 126.836351,199.901048 C124.938551,199.901048 123.35705,198.319548 123.35705,196.738047 C123.04075,186.616443 123.35705,178.076339 123.67335,171.434037 C123.67335,171.117737 123.35705,170.801437 123.04075,170.801437 C122.72445,170.801437 122.40815,171.117737 122.40815,171.434037 C122.091849,178.076339 121.775549,186.932743 122.091849,197.054347 C122.091849,198.003248 121.775549,198.952148 121.142949,199.584748 C120.510349,200.217348 119.561448,200.533649 118.928848,200.533649 C117.031047,200.533649 115.449547,198.952148 115.449547,197.370647 C115.133247,187.249043 115.449547,178.70894 115.765847,171.750337 C115.765847,171.434037 115.449547,171.117737 115.133247,171.117737 C114.816946,171.117737 114.500646,171.434037 114.500646,171.750337 C113.868046,181.239341 113.868046,194.207646 114.500646,210.022652 C114.500646,212.869354 116.082147,215.399755 118.612548,216.981255 C119.561448,217.613855 120.194049,218.562756 120.194049,219.511656 L118.928848,220.144256 L120.194049,220.144256 C120.510349,227.73546 121.142949,234.694062 121.142949,237.857064 C121.142949,239.122264 120.194049,240.071165 118.928848,240.071165 L118.612548,240.071165 C113.235446,240.071165 108.490944,240.387465 103.113842,240.387465 C100.899741,240.387465 99.3182402,239.122264 98.6856399,237.224463 C96.471539,227.419159 94.5737383,190.412044 94.5737383,190.095744 C94.5737383,189.463144 93.941138,188.830544 93.3085378,188.514244 L84.135834,186.932743 C82.2380333,186.300143 80.6565326,184.718642 80.6565326,182.820841 C80.6565326,182.188241 80.6565326,181.555641 80.9728328,180.923041 C82.2380333,177.443739 100.583441,146.446327 131.264553,127.468319 C132.846054,126.519419 134.427554,125.886818 136.325355,125.886818 C138.223156,125.886818 140.120957,126.519419 141.386157,127.468319 C147.07956,130.94762 152.772962,135.059522 158.150064,139.804024 L158.150064,138.855124 C158.150064,137.273623 159.415265,135.692122 161.313065,135.692122 L161.629365,135.692122 L170.802069,136.957323 C172.69987,137.273623 174.281371,138.538823 174.597671,140.436624 C174.597671,140.436624 176.179171,148.344127 177.128072,159.730932 L177.128072,160.047232 C186.300775,171.434037 191.045277,180.29044 191.361577,180.923041 C191.677878,181.555641 191.677878,182.188241 191.677878,182.820841 C191.677878,184.718642 190.412677,186.616443 188.514876,186.932743 L179.342173,188.830544 C178.709572,189.146844 178.076972,189.779444 178.076972,190.412044 C178.076972,190.728345 176.495471,227.73546 173.96507,237.540764 C174.281371,238.805964 172.38357,240.071165 170.485769,240.071165 Z" id="Path" fill="url(#linearGradient-6)"></path>
            <path d="M136.641655,126.519419 C138.223156,126.519419 139.804657,127.152019 141.069857,127.784619 C148.02846,131.896521 154.038162,136.957323 159.415265,141.701825 L159.415265,138.538823 C159.415265,137.589923 160.364165,136.641023 161.313065,136.641023 L161.629365,136.641023 L170.802069,137.906223 C172.06727,137.906223 173.33247,139.171424 173.64877,140.436624 C173.64877,140.436624 175.230271,148.027827 176.179171,159.414632 C176.179171,159.730932 176.495471,160.047232 176.495471,160.363532 C185.351875,171.434037 190.096377,180.29044 190.412677,180.923041 C190.728977,181.239341 190.728977,181.871941 190.728977,182.188241 C190.728977,183.769742 189.780077,185.034942 188.514876,185.351242 L179.342173,187.249043 C178.076972,187.565343 177.128072,188.514244 177.128072,189.779444 C177.128072,191.360945 175.230271,227.419159 173.01617,236.591863 C172.69987,237.857064 171.434669,238.805964 169.853169,238.805964 C166.373867,238.805964 162.894566,238.489664 159.415265,238.489664 C159.098964,238.489664 158.782664,238.173364 158.782664,237.857064 C158.782664,237.857064 159.415265,227.73546 160.047865,214.767154 C160.680465,199.584748 161.313065,179.97414 160.047865,168.587336 C160.047865,167.954735 160.047865,167.638435 160.047865,167.638435 C159.731565,167.005835 159.098964,166.373235 158.150064,166.373235 C157.833764,166.373235 157.201164,166.373235 156.884863,166.689535 C156.884863,166.689535 156.568563,166.689535 156.252263,167.322135 C156.252263,167.322135 144.232858,179.65784 141.702457,216.032355 C141.702457,216.032355 141.702457,216.664955 141.702457,216.981255 C142.018757,217.613855 142.651358,218.246456 143.600258,218.562756 L149.926261,219.511656 C150.558861,219.511656 150.875161,220.144256 150.875161,220.460557 C150.875161,220.460557 150.558861,226.470259 149.29366,237.540764 C149.29366,238.173364 148.97736,238.489664 148.34476,238.489664 L143.283958,238.489664 C141.069857,238.489664 138.855756,238.489664 136.325355,238.489664 L136.009055,238.489664 L135.692755,238.489664 C133.794954,238.489664 131.897153,238.489664 130.315653,238.489664 C129.999353,238.489664 129.683052,238.489664 129.366752,238.489664 C128.734152,238.489664 128.417852,238.173364 128.417852,237.540764 C128.417852,236.275563 128.101552,233.428862 127.468952,229.63326 C126.520051,220.460557 126.836351,218.562756 126.836351,218.562756 C126.836351,217.930156 127.152651,217.297555 127.785252,216.981255 C130.315653,215.083454 131.897153,212.236753 131.897153,208.757452 C131.897153,208.757452 131.897153,208.757452 131.897153,208.441152 C131.580853,196.105447 131.264553,182.188241 131.897153,171.117737 C131.897153,170.168836 130.948253,169.219936 129.999353,169.219936 C129.050452,169.219936 128.101552,169.852536 128.101552,170.801437 C127.785252,178.39264 127.468952,187.249043 127.785252,196.105447 C127.785252,197.370647 126.836351,198.319548 125.571151,198.319548 C124.30595,198.319548 123.35705,197.370647 123.35705,196.105447 C123.04075,187.249043 123.35705,178.39264 123.67335,170.801437 C123.67335,169.852536 122.72445,168.903636 121.775549,168.903636 C120.826649,168.903636 119.877749,169.536236 119.877749,170.485136 C119.561448,178.076339 119.245148,187.249043 119.561448,196.105447 C119.561448,197.370647 118.612548,198.319548 117.347347,198.319548 C116.082147,198.319548 115.133247,197.370647 115.133247,196.105447 C114.816946,187.249043 115.133247,178.39264 115.449547,170.801437 C115.449547,169.852536 114.500646,168.903636 113.551746,168.903636 C112.602846,168.903636 111.653945,169.536236 111.653945,170.485136 C111.021345,181.871941 111.337645,196.421747 111.653945,209.073752 C111.970245,212.553053 113.551746,215.399755 116.398447,216.981255 C117.031047,217.297555 117.347347,217.930156 117.347347,218.562756 C117.347347,218.879056 117.347347,218.879056 117.347347,219.195356 C117.663648,226.786559 118.296248,234.061462 118.296248,236.908163 C118.296248,237.540764 117.979948,237.857064 117.347347,237.857064 L117.031047,237.857064 C111.653945,237.857064 106.909443,238.173364 101.532341,238.173364 C99.9508404,238.173364 99.0019401,237.224463 98.3693398,235.959263 C96.1552389,226.786559 94.5737383,190.728345 94.2574381,189.146844 C94.2574381,187.881643 93.3085378,186.932743 92.0433372,186.616443 L82.8706335,184.718642 C81.605433,184.402342 80.6565326,183.137142 80.6565326,181.555641 C80.6565326,180.923041 80.6565326,180.60674 80.9728328,180.29044 C81.605433,178.39264 99.0019401,146.762627 130.631953,127.152019 C133.478654,127.152019 135.060155,126.519419 136.641655,126.519419 Z M136.641655,124.305318 C134.427554,124.305318 132.529754,124.937918 130.631953,126.203118 C100.267141,145.181126 81.605433,176.178539 80.0239324,180.29044 C79.7076323,180.923041 79.3913321,181.871941 79.3913321,182.504541 C79.3913321,185.034942 80.9728328,187.249043 83.5032338,187.881643 L92.6759375,189.779444 C92.9922376,189.779444 92.9922376,190.095744 93.3085378,190.412044 C93.3085378,190.728345 94.8900384,227.73546 97.4204394,237.540764 C98.0530397,240.071165 100.267141,241.652665 102.797542,241.652665 C108.174644,241.652665 113.235446,241.336365 118.296248,241.336365 L118.612548,241.336365 C120.510349,241.336365 122.091849,239.754864 122.091849,237.857064 C122.091849,237.857064 122.091849,237.857064 122.091849,237.540764 C122.091849,235.959263 121.459249,228.36806 121.142949,219.827956 L121.142949,219.511656 L121.142949,219.195356 C121.142949,217.613855 120.194049,216.348655 118.928848,215.716055 C116.714747,214.450854 115.449547,212.236753 115.133247,209.706352 C115.133247,206.227051 114.816946,203.06405 114.816946,199.901048 C115.765847,200.849949 117.031047,201.482549 118.296248,201.482549 C120.194049,201.482549 121.459249,200.533649 122.40815,198.952148 C123.04075,200.217348 124.62225,201.166249 126.520051,201.166249 C128.101552,201.166249 129.366752,200.533649 129.999353,199.584748 C129.999353,202.431449 130.315653,205.594451 130.315653,209.073752 L132.846054,209.390052 L130.315653,209.390052 C130.315653,211.920453 129.050452,214.134554 127.152651,215.716055 C126.203751,216.348655 125.254851,217.613855 125.254851,218.879056 C125.254851,219.195356 124.938551,221.409457 125.887451,230.265861 C126.203751,234.377762 126.520051,236.908163 126.836351,238.173364 C127.152651,239.754864 128.417852,241.020065 129.999353,241.020065 L130.948253,241.020065 C132.846054,241.020065 134.427554,241.020065 136.325355,241.020065 L136.641655,241.020065 L136.957955,241.020065 C139.172056,241.020065 141.702457,241.020065 143.916558,241.020065 L148.97736,241.020065 C150.558861,241.020065 152.140362,239.754864 152.456662,238.173364 C153.721862,227.102859 154.038162,221.093157 154.038162,220.776857 C154.038162,218.879056 152.772962,217.613855 151.191461,217.297555 L145.181759,216.348655 C147.39586,184.402342 156.884863,171.750337 158.782664,169.219936 C159.415265,178.39264 159.415265,193.575046 158.466364,214.450854 C157.833764,227.102859 157.201164,236.908163 157.201164,237.540764 C157.201164,237.540764 157.201164,237.540764 157.201164,237.857064 C157.201164,239.438564 158.466364,241.020065 160.364165,241.020065 C163.843466,241.020065 167.006468,241.020065 170.802069,241.336365 C173.33247,241.336365 175.546571,239.754864 176.179171,237.224463 C178.393272,227.419159 180.291073,191.360945 180.291073,189.779444 C180.291073,189.779444 180.607373,189.463144 180.923673,189.463144 L189.780077,187.881643 C192.310478,187.249043 194.208279,185.034942 194.208279,182.504541 C194.208279,181.555641 193.891978,180.923041 193.575678,180.29044 C192.943078,178.70894 187.882276,169.852536 179.342173,159.098332 C178.393272,147.711527 176.811772,140.120324 176.811772,140.120324 C176.495471,137.906223 174.281371,136.008422 172.06727,135.692122 L162.894566,134.426922 C162.578266,134.426922 162.578266,134.426922 162.261966,134.426922 C160.364165,134.426922 158.782664,135.692122 158.150064,137.273623 C153.089262,133.161721 148.02846,129.36612 142.651358,126.203118 C140.753557,124.621618 138.855756,124.305318 136.641655,124.305318 Z" id="Shape" fill="#FF8000"></path>
            <path d="M79.7076323,296.055655 C78.7587319,296.055655 78.1261316,295.423054 77.8098315,294.790454 L73.3816297,280.240648 L72.7490294,280.240648 L72.7490294,294.157854 C72.7490294,295.106754 71.8001291,296.055655 70.8512287,296.055655 L63.5763257,296.055655 C62.6274253,296.055655 61.678525,295.106754 61.678525,294.157854 L61.678525,253.671437 C61.678525,252.722537 62.6274253,251.773637 63.5763257,251.773637 L75.5957306,251.773637 C79.075032,251.773637 82.5543334,253.355137 85.0847344,255.885538 C87.6151355,258.732239 88.880336,262.211541 88.880336,265.690842 C88.880336,269.486444 87.6151355,272.965745 85.4010346,275.812446 C85.4010346,275.812446 85.4010346,275.812446 85.0847344,276.128747 C84.7684343,276.761347 84.135834,277.077647 83.8195339,277.393947 L88.880336,293.841554 C89.1966361,294.157854 89.1966361,294.790454 88.880336,295.423054 C88.5640358,296.055655 87.9314356,296.371955 87.2988353,296.371955 L79.7076323,296.371955 L79.7076323,296.055655 Z M75.2794305,269.170144 C75.9120307,269.170144 76.544631,268.853844 77.1772312,268.537543 C77.8098315,267.904943 78.1261316,266.956043 78.1261316,266.007142 C78.1261316,265.058242 77.8098315,264.109342 77.4935314,263.476741 C77.1772312,262.844141 76.2283308,262.527841 75.5957306,262.527841 L73.0653296,262.527841 L73.0653296,269.170144 L75.2794305,269.170144 Z" id="Shape" fill="url(#linearGradient-7)"></path>
            <path d="M63.8926259,252.722853 L75.9120307,252.722853 C79.3913321,252.722853 82.2380333,254.304354 84.4521342,256.834755 L84.4521342,256.518455 C86.6662351,259.048856 87.9314356,262.211857 87.9314356,265.374858 C87.9314356,268.85416 86.9825352,272.017161 84.7684343,274.547562 C84.135834,275.180162 83.5032338,275.812763 82.8706335,276.445363 L88.2477357,293.52557 C88.2477357,293.84187 88.2477357,293.84187 88.2477357,294.15817 C88.2477357,294.47447 87.9314356,294.47447 87.6151355,294.47447 L80.0239324,294.47447 C79.7076323,294.47447 79.3913321,294.15817 79.3913321,293.84187 L74.9631303,278.659464 L72.4327293,278.659464 L72.4327293,293.52557 C72.4327293,293.84187 72.1164292,294.15817 71.8001291,294.15817 L64.5252261,294.15817 C64.208926,294.15817 63.8926259,293.84187 63.8926259,293.52557 L63.8926259,253.671754 C63.2600256,253.039153 63.5763257,252.722853 63.8926259,252.722853 Z M71.8001291,270.435661 L75.2794305,270.435661 C75.2794305,270.435661 75.2794305,270.435661 75.5957306,270.435661 C76.544631,270.435661 77.4935314,270.11936 78.4424317,269.17046 C79.3913321,268.22156 79.7076323,266.956359 79.3913321,265.691159 C79.3913321,264.425958 79.075032,263.477058 78.4424317,262.528157 C77.8098315,261.895557 76.8609311,261.262957 75.5957306,261.262957 C75.5957306,261.262957 75.5957306,261.262957 75.2794305,261.262957 L71.8001291,261.262957 L71.8001291,270.435661 Z M75.9120307,250.508752 L63.8926259,250.508752 C62.3111252,250.508752 60.7296246,251.773953 60.7296246,253.671754 L60.7296246,294.15817 C60.7296246,295.739671 61.9948251,297.321171 63.8926259,297.321171 L71.1675288,297.321171 C72.7490294,297.321171 74.3305301,296.055971 74.3305301,294.15817 L74.3305301,286.566967 L76.8609311,295.107071 C77.1772312,296.372271 78.4424317,297.321171 79.7076323,297.321171 L87.2988353,297.321171 C88.2477357,297.321171 89.1966361,297.004871 89.8292363,296.055971 C89.8292363,296.055971 89.8292363,295.739671 90.1455365,295.739671 C90.4618366,294.79077 90.7781367,293.84187 90.1455365,293.20927 L85.4010346,277.710563 C85.7173347,277.394263 86.0336348,277.077963 86.3499349,277.077963 L86.6662351,276.761663 C89.1966361,273.598662 90.7781367,269.80306 90.4618366,266.007459 C90.4618366,262.211857 89.1966361,258.416256 86.3499349,255.253254 C86.3499349,255.253254 86.3499349,255.253254 86.0336348,254.936954 C83.5032338,252.090253 80.0239324,250.508752 75.9120307,250.508752 C76.2283308,250.508752 75.9120307,250.508752 75.9120307,250.508752 Z M74.3305301,263.793358 L75.5957306,263.793358 L75.9120307,263.793358 C76.2283308,263.793358 76.544631,263.793358 76.8609311,264.109658 C77.1772312,264.425958 77.1772312,265.058558 77.1772312,265.691159 L77.1772312,266.007459 C77.1772312,266.640059 77.1772312,267.272659 76.544631,267.90526 C76.2283308,268.22156 75.9120307,268.22156 75.5957306,268.22156 C75.5957306,268.22156 75.5957306,268.22156 75.2794305,268.22156 L74.0142299,268.22156 L74.0142299,263.793358 L74.3305301,263.793358 Z" id="Shape" fill="#FF8000"></path>
            <path d="M114.184346,293.208637 C113.868046,293.208637 113.551746,293.208637 113.235446,292.892337 C112.919146,292.576037 112.602846,291.627137 113.235446,291.310836 C113.551746,290.994536 113.868046,290.994536 114.184346,290.994536 C114.500646,290.994536 114.816946,290.994536 115.133247,291.310836 C115.449547,291.627137 115.765847,292.576037 115.133247,292.892337 C114.816946,293.208637 114.500646,293.208637 114.184346,293.208637 Z" id="Path" fill="url(#linearGradient-8)"></path>
            <path d="M114.184346,289.729652 C113.551746,289.729652 112.919146,290.045952 112.602846,290.362252 C112.602846,290.362252 112.602846,290.362252 112.286545,290.678552 C111.337645,291.627453 111.337645,293.208953 112.286545,293.841554 C112.602846,294.157854 113.235446,294.474154 113.868046,294.474154 C114.500646,294.474154 115.133247,294.157854 115.449547,293.841554 C116.398447,292.892653 116.398447,291.311153 115.449547,290.362252 C115.449547,289.729652 114.816946,289.729652 114.184346,289.729652 Z" id="Path" fill="#FF8000"></path>
            <path d="M231.215394,266.323126 C230.582793,266.323126 229.950193,266.006826 229.950193,265.374226 C229.950193,264.741626 230.582793,264.109025 231.215394,264.109025 C231.847994,264.109025 232.480594,264.425325 232.480594,265.057926 C232.480594,265.690526 231.847994,266.323126 231.215394,266.323126 Z" id="Path" fill="url(#linearGradient-9)"></path>
            <path d="M231.215394,262.844141 C229.950193,262.844141 228.684993,263.793042 228.684993,265.058242 C228.684993,266.323443 229.633893,267.588643 231.215394,267.588643 C232.796894,267.588643 233.745795,266.639743 233.745795,265.058242 C233.745795,264.109342 232.480594,262.844141 231.215394,262.844141 Z" id="Path" fill="#FF8000"></path>
            <path d="M36.3745147,293.208637 C36.0582146,293.208637 35.7419145,293.208637 35.4256143,292.892337 C35.1093142,292.259737 35.1093142,291.627137 35.4256143,291.310836 C35.7419145,290.994536 36.0582146,290.994536 36.3745147,290.994536 C36.6908148,290.994536 37.007115,290.994536 37.3234151,291.310836 C37.6397152,291.627137 37.6397152,292.576037 37.3234151,292.892337 C37.007115,293.208637 36.6908148,293.208637 36.3745147,293.208637 Z" id="Path" fill="url(#linearGradient-10)"></path>
            <path d="M36.3745147,289.729652 C35.7419145,289.729652 35.1093142,290.045952 34.7930141,290.362252 C33.8441137,291.311153 33.8441137,292.892653 34.7930141,293.525254 C35.1093142,293.841554 35.7419145,294.157854 36.3745147,294.157854 C37.007115,294.157854 37.6397152,293.841554 37.9560154,293.525254 C38.9049157,292.576353 38.9049157,290.994853 37.9560154,290.045952 C37.3234151,289.729652 37.007115,289.729652 36.3745147,289.729652 Z" id="Path" fill="#FF8000"></path>
            <path d="M45.5472184,296.688887 L44.9146182,296.688887 C41.4353168,296.688887 37.9560154,295.423687 35.4256143,292.893286 C32.8952133,290.046585 31.6299179,286.250983 31.9463129,282.455382 L31.9463129,265.375175 C31.6299179,261.579573 32.8952133,257.783972 35.4256143,254.937271 C35.4256143,254.937271 35.4256143,254.937271 35.7419145,254.62097 C38.2723155,252.40687 41.4353168,250.825369 44.9146182,250.825369 L45.8635186,250.825369 C49.34282,250.825369 52.8221214,252.090569 55.3525224,254.62097 C55.3525224,254.62097 55.3525224,254.62097 55.6688225,254.937271 C58.1992235,257.783972 59.1481239,261.263273 59.1481239,265.058875 L59.1481239,266.640375 C59.1481239,267.589276 58.1992235,268.538176 57.2503232,268.538176 L49.9754202,268.538176 C49.0265198,268.538176 48.0776195,267.905576 48.0776195,266.956675 L48.0776195,265.375175 C48.0776195,264.426274 47.7613193,263.477374 47.4450192,262.528474 C47.1287191,262.212173 46.4961188,261.895873 45.8635186,261.895873 L45.5472184,261.895873 C44.9146182,261.895873 44.2820179,262.212173 43.9657178,262.528474 C43.3331175,263.161074 43.0168174,264.109974 43.0168174,265.058875 L43.0168174,282.139082 C43.0168174,283.087982 43.3331175,284.036882 43.9657178,284.669483 C44.2820179,284.985783 44.9146182,285.302083 45.5472184,285.302083 L45.8635186,285.302083 C46.4961188,285.302083 47.1287191,284.985783 47.4450192,284.669483 C48.0776195,284.036882 48.3939196,283.087982 48.0776195,282.139082 L48.0776195,281.506481 L46.1798187,281.506481 C45.2309183,281.506481 44.2820179,280.557581 44.2820179,279.608681 L44.2820179,272.333778 C44.2820179,271.068577 45.2309183,270.435977 46.1798187,270.435977 L56.934023,270.435977 C57.8829234,270.435977 58.8318238,271.384877 58.8318238,272.333778 L58.8318238,281.822781 C59.1481239,285.618383 57.8829234,289.097684 55.3525224,292.260686 C52.8221214,294.791087 49.34282,296.372587 45.8635186,296.372587 L45.5472184,296.688887 Z" id="Path" fill="url(#linearGradient-11)"></path>
            <path d="M44.9146182,252.090886 L45.2309183,252.090886 L45.5472184,252.090886 C48.7102197,252.090886 51.873221,253.356086 54.0873219,255.570187 C56.3014228,258.100588 57.5666233,261.57989 57.2503232,265.059191 L57.2503232,266.640692 C57.2503232,266.956992 56.934023,267.273292 56.6177229,267.273292 L49.34282,267.273292 C49.0265198,267.273292 48.7102197,266.956992 48.7102197,266.640692 L48.7102197,265.059191 C48.7102197,263.79399 48.3939196,262.52879 47.7613193,261.57989 C47.1287191,260.947289 46.1798187,260.314689 45.2309183,260.314689 L44.9146182,260.314689 C44.9146182,260.314689 44.9146182,260.314689 44.598318,260.314689 C43.6494177,260.314689 42.7005173,260.630989 42.067917,261.57989 C41.4353168,262.52879 40.8027165,263.79399 40.8027165,265.059191 L40.8027165,282.139398 C40.8027165,283.404598 41.1190166,284.669799 41.7516169,285.618699 C42.3842172,286.2513 43.3331175,286.8839 44.2820179,286.8839 L44.598318,286.8839 C44.598318,286.8839 44.598318,286.8839 44.9146182,286.8839 C45.8635186,286.8839 46.8124189,286.5676 47.4450192,285.618699 C48.0776195,284.669799 48.3939196,283.404598 48.3939196,282.139398 L48.3939196,280.557897 L45.5472184,280.557897 C45.2309183,280.557897 44.9146182,280.241597 44.9146182,279.925297 L44.9146182,272.966694 C44.9146182,272.650394 45.2309183,272.334094 45.5472184,272.334094 L56.3014228,272.334094 C56.6177229,272.334094 56.934023,272.650394 56.934023,272.966694 L56.934023,282.455698 C57.2503232,285.934999 55.9851227,289.414301 53.7710218,291.944702 C51.5569209,294.158803 48.3939196,295.424003 45.2309183,295.424003 L44.9146182,295.424003 L44.598318,295.424003 C41.4353168,295.424003 38.2723155,294.158803 36.0582146,291.944702 C33.8441137,289.414301 32.5789132,285.934999 32.8952133,282.455698 L32.8952133,265.059191 C32.5789132,261.57989 33.8441137,258.100588 36.0582146,255.570187 C38.5886156,253.356086 41.7516169,252.090886 44.9146182,252.090886 Z M44.9146182,249.876785 C41.1190166,249.876785 37.6397152,251.458285 35.1093142,253.672386 L34.7930141,253.988686 C31.9463129,257.151688 30.6810175,260.947289 30.9973177,265.059191 L30.9973177,282.139398 C30.6810175,286.2513 31.9463129,290.046901 34.7930141,293.209902 C37.6397152,296.056603 41.1190166,297.321804 44.9146182,297.321804 C45.2309183,297.321804 45.2309183,297.321804 45.5472184,297.321804 C45.5472184,297.321804 45.8635186,297.321804 46.1798187,297.321804 C49.9754202,297.321804 53.7710218,295.740303 56.3014228,292.893602 C58.8318238,289.730601 60.0970243,285.934999 60.0970243,281.823098 L60.0970243,272.334094 C60.0970243,270.436293 58.5155237,269.171093 56.934023,269.171093 L46.1798187,269.171093 C45.2309183,269.171093 44.598318,269.487393 43.9657178,269.803693 L43.9657178,264.426591 C43.9657178,263.79399 44.2820179,262.84509 44.598318,262.52879 C44.598318,262.21249 44.9146182,262.21249 45.2309183,262.21249 L45.5472184,262.21249 L45.8635186,262.21249 C46.1798187,262.21249 46.1798187,262.21249 46.4961188,262.52879 C46.8124189,263.16139 46.8124189,263.79399 46.8124189,264.426591 C46.8124189,264.426591 46.8124189,264.426591 46.8124189,264.742891 L46.8124189,266.324391 C46.8124189,266.324391 46.8124189,266.324391 46.8124189,266.640692 C46.8124189,268.222192 48.3939196,269.487393 49.9754202,269.487393 L57.2503232,269.487393 C58.8318238,269.487393 60.0970243,268.222192 60.4133244,266.640692 C60.4133244,266.640692 60.4133244,266.640692 60.4133244,266.324391 L60.4133244,264.742891 C60.7296246,260.947289 59.4644241,256.835388 56.6177229,253.988686 L56.3014228,253.672386 C53.4547216,250.825685 49.9754202,249.560485 45.8635186,249.560485 C45.5472184,249.560485 45.5472184,249.560485 45.2309183,249.560485 C45.2309183,249.876785 45.2309183,249.876785 44.9146182,249.876785 Z M45.2309183,284.669799 C44.9146182,284.669799 44.9146182,284.669799 44.598318,284.353499 C44.2820179,283.720899 43.9657178,283.088298 43.9657178,282.455698 L43.9657178,282.139398 C44.598318,282.771998 45.2309183,282.771998 46.1798187,282.771998 L46.8124189,282.771998 C46.8124189,283.088298 46.4961188,283.720899 46.1798187,284.037199 C46.1798187,284.037199 45.8635186,284.353499 45.5472184,284.353499 C45.8635186,284.669799 45.5472184,284.669799 45.2309183,284.669799 C45.5472184,284.669799 45.2309183,284.669799 45.2309183,284.669799 Z" id="Shape" fill="#FF8000"></path>
            <path d="M104.695342,296.688255 C101.216041,296.688255 97.7367395,295.423054 95.2063385,292.892653 C92.6759375,290.045952 91.410737,286.250351 91.7270371,282.454749 L91.7270371,253.671437 C91.7270371,252.722537 92.6759375,251.773637 93.6248379,251.773637 L101.216041,251.773637 C102.164941,251.773637 103.113842,252.722537 103.113842,253.671437 L103.113842,282.771049 C103.113842,283.71995 103.430142,284.66885 103.746442,285.30145 C104.062742,285.61775 104.695342,285.93405 105.327943,285.93405 C105.960543,285.93405 106.593143,285.61775 106.909443,285.30145 C107.225743,284.66885 107.542044,283.71995 107.542044,282.771049 L107.542044,253.671437 C107.542044,252.722537 108.490944,251.773637 109.439844,251.773637 L116.714747,251.773637 C117.663648,251.773637 118.612548,252.406237 118.612548,253.355137 L118.612548,282.454749 C118.928848,286.250351 117.663648,289.729652 115.133247,292.892653 C112.602846,295.423054 109.123544,297.004555 105.644243,297.004555 L104.695342,297.004555 L104.695342,296.688255 Z" id="Path" fill="url(#linearGradient-12)"></path>
            <path d="M93.6248379,252.722853 L101.216041,252.722853 C101.532341,252.722853 101.848641,253.039153 101.848641,253.355454 L101.848641,282.455065 C101.848641,283.720266 102.164941,284.669166 102.797542,285.618067 C102.797542,285.618067 102.797542,285.934367 103.113842,285.934367 C103.746442,286.566967 104.379042,286.883267 105.327943,286.883267 C106.276843,286.883267 107.225743,286.566967 107.858344,285.934367 C108.490944,284.985466 108.807244,283.720266 108.807244,282.771366 L108.807244,253.988054 C108.807244,253.671754 109.123544,253.355454 109.439844,253.355454 L116.714747,253.355454 C117.031047,253.355454 117.347347,253.671754 117.347347,253.988054 L117.347347,282.771366 C117.663648,286.250667 116.398447,289.729968 114.184346,292.260369 C111.970245,294.47447 108.807244,295.739671 105.644243,295.739671 L105.327943,295.739671 L105.011642,295.739671 C101.848641,295.739671 98.6856399,294.47447 96.471539,292.260369 C94.2574381,289.729968 92.9922376,286.250667 93.3085378,282.771366 L93.3085378,253.671754 C92.9922376,253.039153 93.3085378,252.722853 93.6248379,252.722853 Z M93.6248379,250.508752 C92.0433372,250.508752 90.7781367,251.773953 90.4618366,253.355454 L90.4618366,253.671754 L90.4618366,282.455065 C90.1455365,286.566967 91.410737,290.362569 94.2574381,293.52557 C97.1041393,296.372271 100.583441,297.637472 104.379042,297.637472 C104.695342,297.637472 104.695342,297.637472 105.011642,297.637472 L105.327943,297.637472 C109.123544,297.637472 112.919146,296.055971 115.449547,293.52557 C117.979948,290.362569 119.245148,286.566967 119.245148,282.455065 L119.245148,253.671754 C119.245148,253.671754 119.245148,253.671754 119.245148,253.355454 C119.245148,251.773953 117.663648,250.508752 116.082147,250.508752 L108.807244,250.508752 C107.225743,250.508752 105.960543,251.773953 105.644243,253.355454 C105.644243,253.355454 105.644243,253.355454 105.644243,253.671754 L105.644243,282.455065 C105.644243,283.087666 105.644243,283.720266 105.327943,284.352866 C105.011642,284.669166 105.011642,284.669166 104.695342,284.669166 C104.695342,284.669166 104.379042,284.669166 104.062742,284.352866 C103.746442,283.720266 103.746442,283.403966 103.746442,282.771366 L103.746442,253.671754 C103.746442,252.090253 102.481241,250.508752 100.583441,250.508752 L93.6248379,250.508752 C93.941138,250.508752 93.6248379,250.508752 93.6248379,250.508752 Z" id="Shape" fill="#FF8000"></path>
            <path d="M170.802069,296.055655 C169.853169,296.055655 168.904268,295.106754 168.904268,294.157854 L168.904268,278.975448 L163.843466,278.975448 L163.843466,294.157854 C163.843466,295.106754 162.894566,296.055655 161.945666,296.055655 L154.670763,296.055655 C153.721862,296.055655 152.772962,295.106754 152.772962,294.157854 L152.772962,253.671437 C152.772962,252.722537 153.721862,251.773637 154.670763,251.773637 L161.945666,251.773637 C162.578266,251.773637 162.894566,252.089937 163.210866,252.406237 C163.527166,252.722537 163.843466,253.355137 163.843466,253.671437 L163.843466,268.221243 L168.904268,268.221243 L168.904268,253.671437 C168.904268,252.722537 169.853169,251.773637 170.802069,251.773637 L178.076972,251.773637 C179.025872,251.773637 179.974773,252.722537 179.974773,253.671437 L179.974773,294.157854 C179.974773,295.106754 179.025872,296.055655 178.076972,296.055655 L170.802069,296.055655 Z" id="Path" fill="url(#linearGradient-13)"></path>
            <path d="M170.802069,252.722853 L178.076972,252.722853 C178.393272,252.722853 178.709572,253.039153 178.709572,253.355454 L178.709572,293.84187 C178.709572,294.15817 178.393272,294.47447 178.076972,294.47447 L170.802069,294.47447 C170.485769,294.47447 170.169469,294.15817 170.169469,293.84187 L170.169469,277.394263 L162.894566,277.394263 L162.894566,293.84187 C162.894566,294.15817 162.578266,294.47447 162.261966,294.47447 L154.987063,294.47447 C154.670763,294.47447 154.354462,294.15817 154.354462,293.84187 L154.354462,253.671754 C154.354462,253.355454 154.670763,253.039153 154.987063,253.039153 L162.261966,253.039153 C162.578266,253.039153 162.894566,253.355454 162.894566,253.671754 L162.894566,269.48676 L170.169469,269.48676 L170.169469,253.671754 C169.853169,253.039153 170.169469,252.722853 170.802069,252.722853 Z M178.076972,250.508752 L170.802069,250.508752 C169.220568,250.508752 167.639068,251.773953 167.639068,253.671754 L167.639068,266.956359 L165.108667,266.956359 L165.108667,253.671754 C165.108667,252.090253 163.843466,250.508752 161.945666,250.508752 L154.670763,250.508752 C153.721862,250.508752 153.089262,250.825053 152.456662,251.457653 C151.824061,252.090253 151.507761,252.722853 151.507761,253.671754 L151.507761,294.15817 C151.507761,295.739671 152.772962,297.321171 154.670763,297.321171 L161.945666,297.321171 C163.527166,297.321171 165.108667,296.055971 165.108667,294.15817 L165.108667,280.240964 L167.639068,280.240964 L167.639068,294.15817 C167.639068,295.739671 168.904268,297.321171 170.802069,297.321171 L178.076972,297.321171 C179.658473,297.321171 181.239973,296.055971 181.239973,294.15817 L181.239973,253.671754 C180.923673,251.773953 179.658473,250.508752 178.076972,250.508752 Z" id="Shape" fill="#FF8000"></path>
            <path d="M124.62225,296.055655 C123.67335,296.055655 122.72445,295.106754 122.72445,294.157854 L122.72445,253.671437 C122.72445,252.722537 123.67335,251.773637 124.62225,251.773637 L136.009055,251.773637 C139.804657,251.773637 143.283958,253.355137 145.498059,255.885538 C145.498059,255.885538 145.498059,255.885538 145.814359,255.885538 C148.02846,258.415939 149.29366,261.578941 149.29366,265.058242 C149.29366,267.904943 148.34476,270.751644 146.446959,272.965745 C148.66106,275.179846 150.242561,278.342847 150.242561,281.822149 C150.558861,285.30145 149.29366,288.464452 147.39586,291.311153 C144.865459,294.474154 141.069857,296.055655 137.274256,296.055655 C136.641655,296.055655 124.62225,296.055655 124.62225,296.055655 Z M136.641655,285.30145 C137.274256,285.30145 137.906856,284.98515 138.223156,284.66885 C138.223156,284.66885 138.223156,284.66885 138.223156,284.35255 C138.855756,283.71995 139.172056,282.771049 139.172056,281.822149 C139.172056,280.873248 138.855756,279.924348 138.539456,279.291748 C138.223156,278.975448 137.590556,278.659148 136.957955,278.659148 L133.794954,278.659148 L133.794954,284.98515 C133.478654,285.30145 136.641655,285.30145 136.641655,285.30145 Z M136.009055,268.221243 C136.641655,268.221243 137.274256,267.904943 137.590556,267.588643 C137.906856,266.956043 138.223156,266.007142 138.223156,265.374542 C138.223156,264.425642 137.906856,263.793042 137.590556,263.160441 C137.274256,262.844141 136.641655,262.527841 136.325355,262.527841 L133.794954,262.527841 L133.794954,268.221243 C133.478654,268.221243 136.009055,268.221243 136.009055,268.221243 Z" id="Shape" fill="url(#linearGradient-14)"></path>
            <path d="M136.325355,252.722853 C139.488356,252.722853 142.651358,253.988054 144.865459,256.518455 C146.763259,258.732556 148.02846,261.895557 148.02846,265.058558 C148.02846,268.22156 146.763259,271.068261 144.549158,272.966062 C147.07956,275.180162 148.66106,278.343164 148.66106,281.822465 C148.97736,284.985466 148.02846,288.148468 146.130659,290.362569 C143.916558,293.20927 140.437257,294.79077 136.957955,294.79077 C136.957955,294.79077 136.957955,294.79077 136.641655,294.79077 L124.62225,294.79077 C124.30595,294.79077 123.98965,294.47447 123.98965,294.15817 L123.98965,253.671754 C123.98965,253.355454 124.30595,253.039153 124.62225,253.039153 L136.325355,252.722853 C136.009055,252.722853 136.009055,252.722853 136.325355,252.722853 Z M132.529754,269.48676 L136.325355,269.48676 C136.325355,269.48676 136.325355,269.48676 136.641655,269.48676 C137.590556,269.48676 138.223156,269.17046 138.855756,268.53786 C139.488356,267.588959 139.804657,266.323759 139.804657,265.374858 C139.804657,264.425958 139.488356,263.160758 138.855756,262.528157 C138.223156,261.895557 137.590556,261.579257 136.641655,261.579257 C136.641655,261.579257 136.641655,261.579257 136.325355,261.579257 L132.846054,261.579257 L132.846054,269.48676 L132.529754,269.48676 Z M132.529754,286.566967 L136.641655,286.566967 L136.957955,286.566967 C137.906856,286.566967 138.855756,286.250667 139.488356,285.301767 C140.120957,284.352866 140.753557,283.087666 140.437257,281.822465 C140.437257,280.557265 140.120957,279.608364 139.488356,278.659464 C138.855756,278.026864 137.906856,277.394263 136.957955,277.394263 L136.641655,277.394263 L132.529754,277.394263 L132.529754,286.566967 Z M136.325355,250.508752 L124.62225,250.508752 C123.04075,250.508752 121.459249,251.773953 121.459249,253.671754 L121.459249,294.15817 C121.459249,295.739671 122.72445,297.321171 124.62225,297.321171 L136.641655,297.321171 L136.957955,297.321171 C141.386157,297.321171 145.181759,295.423371 148.02846,292.260369 C148.02846,292.260369 148.02846,292.260369 148.34476,291.944069 C150.558861,289.097368 151.507761,285.618067 151.507761,281.822465 C151.507761,278.659464 150.242561,275.496463 148.34476,272.966062 C149.926261,270.751961 150.875161,267.90526 150.875161,265.058558 C150.875161,261.262957 149.609961,257.783655 147.07956,254.936954 L146.763259,254.620654 C143.916558,252.090253 140.120957,250.508752 136.325355,250.508752 Z M134.743855,263.793358 L136.009055,263.793358 C136.009055,263.793358 136.009055,263.793358 136.325355,263.793358 C136.641655,263.793358 136.641655,263.793358 136.957955,263.793358 C137.274256,264.109658 137.274256,264.742258 137.274256,265.058558 L137.274256,265.374858 C137.274256,265.691159 137.274256,266.323759 136.957955,266.640059 L136.641655,266.956359 C136.641655,266.956359 136.641655,266.956359 136.325355,266.956359 L135.060155,266.956359 L135.060155,263.793358 L134.743855,263.793358 Z M134.743855,279.924664 L136.641655,279.924664 C136.641655,279.924664 136.641655,279.924664 136.957955,279.924664 C137.274256,279.924664 137.274256,279.924664 137.590556,280.240964 C137.906856,280.557265 138.223156,281.189865 138.223156,281.822465 L138.223156,282.138765 C138.223156,282.771366 137.906856,283.403966 137.590556,284.036566 L137.274256,284.036566 L136.957955,284.036566 L135.376455,284.036566 L135.376455,279.924664 L134.743855,279.924664 Z" id="Shape" fill="#FF8000"></path>
            <path d="M197.05498,296.687939 C193.575678,296.687939 190.096377,295.422738 187.249676,292.892337 C184.719275,289.729336 183.454074,285.933734 183.770374,282.454433 L183.770374,253.671121 C183.770374,252.722221 184.719275,251.77332 185.668175,251.77332 L192.943078,251.77332 C193.891978,251.77332 194.840879,252.405921 194.840879,253.354821 L194.840879,282.454433 C194.840879,283.403333 195.157179,284.352234 195.473479,284.984834 C195.789779,285.301134 196.422379,285.617434 197.05498,285.617434 C197.68758,285.617434 198.32018,285.301134 198.63648,284.984834 C198.952781,284.352234 199.269081,283.403333 199.269081,282.454433 L199.269081,253.354821 C199.269081,252.405921 200.217981,251.45702 201.166881,251.45702 L208.758084,251.45702 C209.706985,251.45702 210.655885,252.089621 210.655885,253.038521 L210.655885,282.138133 C210.972185,285.617434 209.706985,289.413036 207.492884,292.259737 C207.492884,292.259737 207.492884,292.576037 207.176584,292.576037 C204.329883,295.422738 200.850581,296.687939 197.05498,296.687939 Z" id="Path" fill="url(#linearGradient-15)"></path>
            <path d="M201.166881,252.722853 L208.758084,252.722853 C209.074385,252.722853 209.390685,253.039153 209.390685,253.355454 L209.390685,282.138765 C209.706985,285.618067 208.441784,289.097368 206.227683,291.627769 C203.697282,294.15817 200.217981,295.107071 197.05498,295.107071 C193.891978,295.107071 190.728977,293.84187 188.198576,291.627769 C185.984475,289.097368 184.719275,285.618067 185.035575,282.138765 L185.035575,253.039153 C185.035575,252.722853 185.351875,252.406553 185.668175,252.406553 L192.943078,252.406553 C193.259378,252.406553 193.575678,252.722853 193.575678,253.039153 L193.575678,282.138765 C193.575678,283.403966 193.891978,284.352866 194.524579,285.301767 C194.524579,285.301767 194.524579,285.618067 194.840879,285.618067 C195.473479,286.250667 196.106079,286.566967 197.05498,286.566967 C198.00388,286.566967 198.952781,286.250667 199.585381,285.618067 C200.217981,284.669166 200.533965,283.403966 200.533965,282.455065 L200.533965,253.355454 C200.533965,253.039153 200.850581,252.722853 201.166881,252.722853 Z M201.166881,250.508752 C199.585381,250.508752 198.32018,251.773953 198.00388,253.355454 L198.00388,253.671754 L198.00388,282.771366 C198.00388,283.403966 198.00388,284.036566 197.68758,284.352866 C197.37128,284.669166 197.37128,284.669166 197.05498,284.669166 C197.05498,284.669166 196.73868,284.669166 196.422379,284.352866 C196.106079,283.720266 196.106079,283.403966 196.106079,282.771366 L196.106079,253.671754 C196.106079,253.671754 196.106079,253.671754 196.106079,253.355454 C196.106079,251.773953 194.524579,250.508752 192.943078,250.508752 L185.668175,250.508752 C184.086674,250.508752 182.821474,251.773953 182.505174,253.355454 C182.505174,253.355454 182.505174,253.355454 182.505174,253.671754 L182.505174,282.455065 C182.188874,286.566967 183.454074,290.362569 186.300775,293.52557 C186.300775,293.52557 186.300775,293.52557 186.617076,293.84187 C189.463777,296.372271 193.259062,297.953772 197.370964,297.953772 C201.482865,297.953772 205.278783,296.372271 208.125484,293.84187 C208.441784,293.52557 208.441468,293.52557 208.441468,293.20927 C210.971869,290.046268 211.920769,286.250667 211.604469,282.455065 L211.604469,253.671754 C211.604469,253.671754 211.604469,253.671754 211.604469,253.355454 C211.604469,251.773953 210.022969,250.508752 208.441468,250.508752 L201.166881,250.508752 Z" id="Shape" fill="#FF8000"></path>
            <path d="M216.349288,296.055338 C215.400387,296.055338 214.451487,295.106438 214.451487,294.157538 L214.451487,253.354821 C214.451487,252.405921 215.400387,251.45702 216.349288,251.45702 L228.052392,251.45702 C231.847994,251.45702 235.327295,253.038521 237.541396,255.568922 C239.755497,258.099323 241.020698,261.578624 241.020698,265.057926 C241.020698,267.904627 239.755497,270.751328 238.173996,272.965429 C240.388097,275.17953 241.653298,278.342531 241.969598,281.821833 C242.285898,285.301134 241.020698,288.464135 239.122897,290.994536 C236.592496,294.157538 232.796894,295.739038 229.001293,295.739038 C228.684993,296.055338 216.349288,296.055338 216.349288,296.055338 Z M228.368692,285.301134 C229.001293,285.301134 229.633893,284.984834 229.950193,284.668534 C229.950193,284.668534 229.950193,284.668534 229.950193,284.352234 C230.582793,283.719633 230.899093,282.770733 230.899093,281.821833 C230.899093,280.872932 230.582793,279.924032 230.266493,279.291432 C229.950193,278.975131 229.317593,278.658831 228.684993,278.658831 L225.521991,278.658831 L225.521991,284.984834 C225.521991,285.301134 228.368692,285.301134 228.368692,285.301134 Z M228.052392,268.220927 C228.684993,268.220927 229.317593,267.904627 229.633893,267.588327 C229.950193,266.955727 230.266493,266.006826 230.266493,265.374226 C230.266493,264.425325 229.950193,263.792725 229.633893,263.160125 C229.317593,262.843825 228.684993,262.527525 228.368692,262.527525 L225.838291,262.527525 L225.838291,268.220927 C225.521991,268.220927 228.052392,268.220927 228.052392,268.220927 Z" id="Shape" fill="url(#linearGradient-16)"></path>
            <path d="M228.368692,252.722853 C231.531694,252.722853 234.694695,253.988054 236.908796,256.518455 C239.122897,259.048856 240.071797,261.895557 240.071797,265.058558 L240.071797,264.742258 C240.071797,267.90526 238.806597,270.751961 236.592496,272.649761 C239.122897,274.863862 240.704397,278.026864 240.704397,281.506165 C241.020698,284.669166 240.071797,287.832168 238.173996,290.046268 C235.959895,292.89297 232.480594,294.47447 229.001293,294.47447 C229.001293,294.47447 229.001293,294.47447 228.684993,294.47447 L216.665588,294.47447 C216.349288,294.47447 216.032987,294.15817 216.032987,293.84187 L216.032987,253.355454 C216.032987,253.039153 216.349288,252.722853 216.665588,252.722853 L228.368692,252.722853 C228.052392,252.722853 228.052392,252.722853 228.368692,252.722853 Z M224.256791,269.48676 L228.052392,269.48676 C228.052392,269.48676 228.052392,269.48676 228.368692,269.48676 C229.317593,269.48676 229.950193,269.17046 230.582793,268.53786 C231.215394,267.588959 231.531694,266.323759 231.531694,265.374858 C231.531694,264.425958 231.215394,263.160758 230.582793,262.528157 C229.950193,261.895557 229.317593,261.579257 228.368692,261.579257 C228.368692,261.579257 228.368692,261.579257 228.052392,261.579257 L224.573091,261.579257 L224.573091,269.48676 L224.256791,269.48676 Z M224.256791,286.566967 L228.368692,286.566967 L228.684993,286.566967 C229.633893,286.566967 230.582793,286.250667 231.215394,285.301767 C231.847994,284.352866 232.480594,283.087666 232.164294,281.822465 C232.164294,280.557265 231.847994,279.608364 231.215394,278.659464 C230.582793,278.026864 229.633893,277.394263 228.684993,277.394263 L228.368692,277.394263 L224.256791,277.394263 L224.256791,286.566967 Z M228.368692,250.508752 L216.665588,250.508752 C215.084087,250.508752 213.502586,251.773953 213.502586,253.671754 L213.502586,294.47447 C213.502586,296.055971 214.767787,297.637472 216.665588,297.637472 L228.684993,297.637472 L229.001293,297.637472 C233.429494,297.637472 237.225096,295.739671 240.071797,292.576669 C240.071797,292.576669 240.071797,292.576669 240.388097,292.260369 C242.602198,289.413668 243.551099,285.934367 243.551099,282.138765 C243.551099,278.975764 242.285898,275.812763 240.388097,273.282362 C241.969598,271.068261 242.918498,268.22156 242.918498,265.691159 C242.918498,261.895557 241.653298,258.099956 239.122897,255.253254 C239.122897,255.253254 239.122897,255.253254 238.806597,254.936954 C235.643595,252.090253 232.164294,250.508752 228.368692,250.508752 Z M226.787192,263.793358 L228.052392,263.793358 C228.052392,263.793358 228.052392,263.793358 228.368692,263.793358 C228.684993,263.793358 228.684993,263.793358 229.001293,263.793358 C229.317593,264.109658 229.317593,264.742258 229.317593,265.058558 L229.317593,265.374858 C229.317593,265.691159 229.317593,266.323759 229.001293,266.640059 L228.684993,266.956359 C228.684993,266.956359 228.684993,266.956359 228.368692,266.956359 L227.103492,266.956359 L227.103492,263.793358 L226.787192,263.793358 Z M226.787192,279.924664 L228.684993,279.924664 C228.684993,279.924664 228.684993,279.924664 229.001293,279.924664 C229.317593,279.924664 229.317593,279.924664 229.633893,280.240964 C229.950193,280.557265 230.266493,281.189865 230.266493,281.822465 L230.266493,282.138765 C230.266493,282.771366 229.950193,283.403966 229.633893,284.036566 L229.317593,284.036566 L229.001293,284.036566 L227.419792,284.036566 L227.419792,279.924664 L226.787192,279.924664 Z" id="Shape" fill="#FF8000"></path>
            <path d="M240.388097,257.150423 C238.806597,257.150423 237.541396,255.885222 237.541396,254.303721 C237.541396,252.722221 238.806597,251.45702 240.388097,251.45702 C241.969598,251.45702 243.234798,252.722221 243.234798,254.303721 C243.234798,255.885222 241.969598,257.150423 240.388097,257.150423 Z" id="Path" fill="url(#linearGradient-17)"></path>
            <path d="M240.388097,252.722537 C241.336998,252.722537 241.969598,253.355137 241.969598,254.304038 C241.969598,255.252938 241.336998,255.885538 240.388097,255.885538 C239.439197,255.885538 238.806597,255.252938 238.806597,254.304038 C238.806597,253.355137 239.439197,252.722537 240.388097,252.722537 Z M240.388097,255.569238 C241.020698,255.569238 241.653298,254.936638 241.653298,254.304038 C241.653298,253.671437 241.020698,253.038837 240.388097,253.038837 C239.755497,253.038837 239.122897,253.671437 239.122897,254.304038 C239.122897,254.936638 239.755497,255.569238 240.388097,255.569238 Z M240.704397,253.355137 C241.020698,253.355137 241.336998,253.671437 241.336998,253.987738 C241.336998,254.304038 241.020698,254.304038 241.020698,254.304038 L241.336998,255.252938 L241.020698,255.252938 L240.704397,254.620338 L240.388097,254.620338 L240.388097,255.252938 L240.071797,255.252938 L240.071797,253.355137 L240.704397,253.355137 Z M240.388097,254.304038 C240.704397,254.304038 241.020698,254.304038 241.020698,253.987738 C241.020698,253.671437 241.020698,253.671437 240.704397,253.671437 L240.388097,253.671437 L240.388097,254.304038 Z M240.388097,250.192136 C238.173996,250.192136 236.276196,252.089937 236.276196,254.304038 C236.276196,256.518139 238.173996,258.415939 240.388097,258.415939 C242.602198,258.415939 244.499999,256.518139 244.499999,254.304038 C244.499999,252.089937 242.602198,250.192136 240.388097,250.192136 Z" id="Shape" fill="#FF8000"></path>
        </g>
    </g>
</svg>