<svg viewBox="0 0 24 24" xml:space="preserve" xmlns="http://www.w3.org/2000/svg" fill-rule="evenodd" clip-rule="evenodd" stroke-linecap="round" stroke-linejoin="round" stroke-miterlimit="1"><path d="M40 40h24v24H40z" transform="matrix(1 0 0 1 -40 -40)" fill="none"></path><path d="M253 437.816v-5.711c0-1.162-.959-2.105-2.143-2.105h-10.714c-1.184 0-2.143.943-2.143 2.105v15.79c0 .558.226 1.094.628 1.488.402.395.947.617 1.515.617h10.864" transform="matrix(.93333 0 0 .95 -220.133 -406.5)" fill="none" stroke="#14223c" stroke-width="1.91px" class="stroke-2c2c2c"></path><path d="M100 44.673A4.492 4.492 0 0 0 96.5 43a4.502 4.502 0 0 0-4.5 4.5c0 2.484 2.016 4.5 4.5 4.5s4.5 2.016 4.5 4.5-2.016 4.5-4.5 4.5a4.493 4.493 0 0 1-3.513-1.689" transform="matrix(.35207 0 0 .3176 -26.975 -7.5)" fill="none" stroke="#14223c" stroke-width="5.37px" stroke-miterlimit="2" class="stroke-2c2c2c"></path><path d="M148 44v2M148 60v-1.978" transform="matrix(.5281 0 0 .4764 -71.16 -15.758)" fill="none" stroke="#14223c" stroke-width="3.58px" stroke-miterlimit="2" class="stroke-2c2c2c"></path><path d="M237 444h6" transform="matrix(1 0 0 1 -232 -427)" fill="none" stroke="#14223c" stroke-width="1.8px" class="stroke-2c2c2c"></path><path d="M46 276h1" transform="matrix(1 0 0 1 -34.5 -270.25)" fill="none" stroke="#14223c" stroke-width="1.8px" class="stroke-2c2c2c"></path><path d="m250.795 441.216-1.992-3.452a1.504 1.504 0 0 0-2.049-.549 1.5 1.5 0 0 0-.549 2.049l1.992 3.452V446l2.799 4" transform="matrix(1 0 0 1 -233 -428.5)" fill="none" stroke="#14223c" stroke-width="1.8px" class="stroke-2c2c2c"></path><path d="m249 434 4.38 4.173c.396.378.62.901.62 1.448v4.907c0 .31.072.617.211.894L255 447" transform="matrix(1 0 0 1 -233 -428)" fill="none" stroke="#14223c" stroke-width="1.8px" class="stroke-2c2c2c"></path></svg>