<svg data-name="Layer 1" viewBox="0 0 200 200" xmlns="http://www.w3.org/2000/svg"><path d="M36.5 75C41 89.5 54 100 70 100s29-10.5 33.5-25H170a10 10 0 0 0 0-20h-66.5C99 40.5 86 30 70 30S41 40.5 36.5 55H25a10 10 0 0 0 0 20ZM70 50a15 15 0 1 1-15 15 14.73 14.73 0 0 1 15-15Zm105 75h-11.5c-4.5-14.5-17.5-25-33.5-25s-29 10.5-33.5 25H30a10 10 0 0 0 0 20h66.5c4.5 14.5 17.5 25 33.5 25s29-10.5 33.5-25H175a10 10 0 0 0 0-20Zm-45 25a15 15 0 1 1 15-15 14.73 14.73 0 0 1-15 15Z" fill="#14223c" class="fill-000000"></path></svg>