<?xml version="1.0" ?><svg fill="none" height="24" viewBox="0 0 24 24" width="24" xmlns="http://www.w3.org/2000/svg"><path clip-rule="evenodd" d="M1 5.5C1 3.84315 2.34315 2.5 4 2.5H20C21.6569 2.5 23 3.84315 23 5.5V16.5C23 18.1569 21.6569 19.5 20 19.5H4C2.34315 19.5 1 18.1569 1 16.5V5.5ZM4 4.5C3.44772 4.5 3 4.94772 3 5.5V16.5C3 17.0523 3.44772 17.5 4 17.5H20C20.5523 17.5 21 17.0523 21 16.5V5.5C21 4.94772 20.5523 4.5 20 4.5H4Z" fill="black" fill-rule="evenodd"/><path clip-rule="evenodd" d="M9.53819 6.61302C9.86892 6.44082 10.268 6.46694 10.5735 6.68077L15.5735 10.1808C15.8408 10.3679 16 10.6737 16 11C16 11.3263 15.8408 11.6321 15.5735 11.8192L10.5735 15.3192C10.268 15.5331 9.86892 15.5592 9.53819 15.387C9.20746 15.2148 9 14.8729 9 14.5V7.5C9 7.12712 9.20746 6.78522 9.53819 6.61302ZM11 9.42066V12.5793L13.2562 11L11 9.42066Z" fill="black" fill-rule="evenodd"/><path clip-rule="evenodd" d="M18 22H6V20H18V22Z" fill="black" fill-rule="evenodd"/></svg>