<?xml version="1.0" ?><!DOCTYPE svg  PUBLIC '-//W3C//DTD SVG 1.0//EN'  'http://www.w3.org/TR/2001/REC-SVG-20010904/DTD/svg10.dtd'><svg height="512px" style="shape-rendering:geometricPrecision; text-rendering:geometricPrecision; image-rendering:optimizeQuality; fill-rule:evenodd; clip-rule:evenodd" version="1.0" viewBox="0 0 207.228 207.228" width="512px" xml:space="preserve" xmlns="http://www.w3.org/2000/svg" xmlns:xlink="http://www.w3.org/1999/xlink" xmlns:xodm="http://www.corel.com/coreldraw/odm/2003"><defs><style type="text/css">
   <![CDATA[
    .fil0 {fill:none}
    .fil1 {fill:black}
   ]]>
  </style></defs><g id="Layer_x0020_1"><rect class="fil0" height="207.228" width="207.228"/><path class="fil1" d="M109.638 183.783c-0.22,0.009 -0.406,0.178 -0.406,0.407l0 1.785c0,0.212 0.187,0.416 0.406,0.407 0.221,-0.011 0.407,-0.179 0.407,-0.407l0 -1.785c0,-0.213 -0.187,-0.417 -0.407,-0.407zm0.199 -4.362c-0.221,0.009 -0.407,0.178 -0.407,0.407l0 2.081c0,0.214 0.187,0.417 0.407,0.407 0.22,-0.009 0.407,-0.178 0.407,-0.407l0 -2.081c0,-0.213 -0.187,-0.417 -0.407,-0.407zm0.606 -2.481c-0.019,-0.084 -0.037,-0.168 -0.052,-0.252 -0.009,-0.045 -0.016,-0.091 -0.024,-0.137 -0.002,-0.016 -0.003,-0.019 -0.004,-0.023 -0.001,-0.005 -0.001,-0.008 -0.003,-0.026 -0.018,-0.164 -0.03,-0.328 -0.034,-0.493 -0.003,-0.165 0.002,-0.331 0.016,-0.495 0.003,-0.04 0.007,-0.079 0.011,-0.118 0.001,-0.011 0.005,-0.048 0.007,-0.065 0.012,-0.086 0.027,-0.172 0.044,-0.258 0.04,-0.208 -0.059,-0.449 -0.284,-0.5 -0.202,-0.046 -0.457,0.06 -0.501,0.284 -0.149,0.764 -0.138,1.541 0.039,2.299 0.049,0.207 0.298,0.35 0.501,0.284 0.217,-0.07 0.337,-0.278 0.284,-0.5zm-0.035 -7.031c-0.214,-0.049 -0.441,0.064 -0.5,0.284 -0.201,0.746 -0.263,1.53 -0.167,2.297 0.026,0.21 0.168,0.417 0.407,0.407 0.197,-0.009 0.435,-0.181 0.407,-0.407 -0.045,-0.359 -0.057,-0.721 -0.033,-1.081 0.005,-0.084 0.013,-0.167 0.022,-0.249 0.002,-0.026 0.005,-0.051 0.009,-0.076 0,-0.001 0,-0.001 0,-0.002 0.007,-0.048 0.014,-0.096 0.023,-0.144 0.03,-0.178 0.07,-0.354 0.117,-0.529 0.055,-0.205 -0.07,-0.451 -0.285,-0.5zm0.647 -4.368c-0.049,-0.084 -0.146,-0.165 -0.243,-0.187 -0.191,-0.043 -0.47,0.059 -0.501,0.284 -0.099,0.729 -0.133,1.459 -0.079,2.193 0.016,0.212 0.176,0.417 0.407,0.407 0.207,-0.01 0.424,-0.179 0.407,-0.407 -0.025,-0.34 -0.033,-0.682 -0.024,-1.024 0.005,-0.163 0.014,-0.327 0.027,-0.49 0.006,-0.082 0.014,-0.164 0.022,-0.245 0.005,-0.048 0.01,-0.095 0.016,-0.143 0.002,-0.015 0.019,-0.149 0.009,-0.074 0.016,-0.114 0.02,-0.211 -0.041,-0.314zm0.369 -4.351c-0.018,-0.212 -0.174,-0.417 -0.407,-0.406 -0.204,0.008 -0.426,0.179 -0.407,0.406 0.027,0.309 0.036,0.618 0.025,0.927 -0.005,0.152 -0.015,0.303 -0.029,0.454 -0.007,0.073 -0.016,0.145 -0.024,0.217 -0.001,0.009 -0.001,0.014 -0.002,0.019 -0.001,0.005 -0.001,0.009 -0.003,0.017 -0.007,0.048 -0.014,0.096 -0.022,0.144 -0.034,0.21 0.054,0.449 0.284,0.501 0.196,0.045 0.465,-0.06 0.501,-0.284 0.107,-0.661 0.142,-1.327 0.084,-1.995zm0.02 -4.869c-0.223,0.011 -0.403,0.179 -0.407,0.407 -0.008,0.595 -0.017,1.19 -0.026,1.785 -0.003,0.212 0.19,0.416 0.407,0.407 0.223,-0.011 0.404,-0.179 0.407,-0.407 0.009,-0.595 0.018,-1.19 0.026,-1.785 0.004,-0.212 -0.189,-0.416 -0.407,-0.407zm-0.084 -2.984c-0.2,-0.675 -0.599,-1.297 -1.147,-1.741 -0.087,-0.07 -0.172,-0.119 -0.288,-0.119 -0.1,0 -0.219,0.044 -0.288,0.119 -0.136,0.149 -0.176,0.432 0,0.576 0.12,0.097 0.234,0.203 0.338,0.317 0.05,0.054 0.097,0.111 0.144,0.168 0.008,0.01 0.016,0.02 0.023,0.031 0.024,0.033 0.048,0.067 0.072,0.102 0.083,0.126 0.158,0.257 0.223,0.392 0.015,0.031 0.028,0.063 0.042,0.094 0.007,0.017 0.014,0.034 0.02,0.052 0.028,0.074 0.053,0.149 0.075,0.225 0.061,0.204 0.289,0.353 0.501,0.284 0.207,-0.067 0.349,-0.281 0.285,-0.5zm-3.304 -3.598c-0.437,-0.251 -0.874,-0.502 -1.311,-0.753 -0.184,-0.106 -0.454,-0.05 -0.556,0.146 -0.103,0.193 -0.052,0.443 0.146,0.556 0.436,0.252 0.874,0.503 1.311,0.755 0.184,0.105 0.453,0.049 0.557,-0.147 0.102,-0.193 0.051,-0.443 -0.147,-0.557zm-3.663 -1.928l-1.586 -0.596c-0.2,-0.075 -0.455,0.084 -0.5,0.284 -0.053,0.232 0.07,0.421 0.284,0.501l1.585 0.596c0.2,0.075 0.455,-0.083 0.501,-0.284 0.053,-0.232 -0.07,-0.42 -0.284,-0.501zm-3.755 -1.866c-0.473,-0.281 -0.946,-0.561 -1.419,-0.841 -0.183,-0.109 -0.454,-0.048 -0.557,0.146 -0.103,0.195 -0.049,0.44 0.147,0.556 0.472,0.281 0.945,0.561 1.418,0.841 0.183,0.109 0.455,0.048 0.557,-0.146 0.103,-0.196 0.049,-0.44 -0.146,-0.556zm-3.789 -2.283l0.001 0c0.069,0.027 0.138,0.055 0.208,0.08 0.215,0.077 0.337,0.271 0.284,0.5 -0.046,0.203 -0.3,0.357 -0.5,0.285 -0.688,-0.25 -1.314,-0.612 -1.874,-1.084 -0.174,-0.146 -0.139,-0.424 0,-0.575 0.157,-0.172 0.413,-0.137 0.576,0 0.033,0.028 0.067,0.056 0.101,0.084 0.014,0.011 0.027,0.021 0.041,0.032 0.06,0.046 0.12,0.09 0.182,0.133 0.129,0.09 0.261,0.174 0.397,0.252 0.139,0.081 0.283,0.156 0.429,0.224 0.035,0.017 0.071,0.033 0.107,0.048l0.016 0.007c0,-0.001 0.008,0.002 0.017,0.006l0.001 0 0.001 0.001 0.001 0 0 0 0.002 0.001 0 0 0.006 0.003 0.001 0 0.003 0.002 0.001 0.001 0.005 0.003c-0.001,-0.001 -0.004,-0.002 -0.006,-0.003zm-3.388 -2.121l-1.684 -1.192c-0.174,-0.123 -0.46,-0.037 -0.557,0.146 -0.11,0.209 -0.039,0.425 0.147,0.557l1.683 1.193c0.174,0.123 0.461,0.036 0.557,-0.147 0.11,-0.209 0.04,-0.425 -0.146,-0.557zm-3.773 -2.234c-0.497,-0.396 -0.993,-0.791 -1.49,-1.186 -0.087,-0.07 -0.171,-0.12 -0.287,-0.12 -0.1,0 -0.219,0.045 -0.288,0.12 -0.136,0.147 -0.178,0.433 0,0.575 0.496,0.396 0.993,0.791 1.489,1.187 0.088,0.069 0.171,0.119 0.288,0.119 0.1,0 0.22,-0.044 0.288,-0.119 0.135,-0.148 0.178,-0.434 0,-0.576zm-3.442 -2.456c-0.068,-0.047 -0.131,-0.101 -0.2,-0.145 0.101,0.065 -0.007,-0.007 -0.034,-0.029 -0.032,-0.026 -0.063,-0.053 -0.095,-0.079 -0.127,-0.111 -0.249,-0.229 -0.365,-0.352 -0.055,-0.061 -0.11,-0.122 -0.163,-0.185 -0.024,-0.03 -0.048,-0.058 -0.071,-0.087 0.001,0.002 0.002,0.002 0.003,0.005l-0.003 -0.006 0 0c-0.036,-0.061 -0.03,-0.044 -0.017,-0.023l-0.017 -0.021c-0.101,-0.135 -0.194,-0.276 -0.28,-0.422 -0.108,-0.183 -0.372,-0.265 -0.557,-0.146 -0.185,0.119 -0.262,0.361 -0.146,0.557 0.385,0.653 0.911,1.206 1.534,1.636 0.176,0.121 0.46,0.038 0.557,-0.146 0.109,-0.208 0.041,-0.428 -0.146,-0.557zm-3.371 -3.655c-0.004,-0.007 -0.012,-0.016 -0.02,-0.023l0.002 0.002c-0.002,-0.001 -0.003,-0.003 -0.004,-0.004l0.002 0.002c-0.012,-0.016 -0.024,-0.032 -0.036,-0.048 -0.026,-0.035 -0.051,-0.071 -0.077,-0.107 -0.197,-0.278 -0.37,-0.573 -0.518,-0.88 -0.094,-0.192 -0.383,-0.258 -0.557,-0.146 -0.197,0.127 -0.246,0.352 -0.146,0.557 0.317,0.652 0.747,1.252 1.258,1.767 0.151,0.15 0.428,0.161 0.576,0 0.15,-0.163 0.16,-0.415 0,-0.576 -0.12,-0.121 -0.236,-0.246 -0.346,-0.377 -0.028,-0.033 -0.056,-0.067 -0.084,-0.101 -0.015,-0.019 -0.032,-0.044 -0.05,-0.066 0.006,0.008 0.005,0.01 -0.012,-0.012l-0.006 -0.009c0.006,0.005 0.012,0.013 0.018,0.021zm-1.735 -3.428c-0.236,-0.671 -0.472,-1.342 -0.708,-2.013 -0.07,-0.2 -0.281,-0.355 -0.5,-0.284 -0.198,0.064 -0.36,0.286 -0.284,0.501 0.235,0.67 0.471,1.342 0.706,2.012 0.071,0.201 0.282,0.356 0.501,0.284 0.198,-0.063 0.36,-0.285 0.285,-0.5zm-1.327 -9.509c0.051,-0.206 -0.067,-0.451 -0.284,-0.5 -0.212,-0.049 -0.446,0.063 -0.501,0.284 -0.174,0.691 -0.188,1.403 -0.055,2.102 0.04,0.209 0.303,0.348 0.501,0.284 0.223,-0.073 0.327,-0.276 0.284,-0.5 -0.008,-0.041 -0.015,-0.081 -0.022,-0.122 -0.003,-0.019 -0.025,-0.146 -0.008,-0.048 -0.012,-0.07 -0.016,-0.141 -0.022,-0.211 -0.011,-0.152 -0.015,-0.305 -0.011,-0.457 0.003,-0.071 0.006,-0.141 0.012,-0.211 0.003,-0.041 0.007,-0.082 0.011,-0.123 0.002,-0.02 0.012,-0.147 0.005,-0.049 0.011,-0.15 0.053,-0.304 0.09,-0.449zm0.467 -5.27c-0.21,-0.047 -0.447,0.063 -0.501,0.284 -0.167,0.688 -0.312,1.38 -0.437,2.077 -0.037,0.208 0.056,0.448 0.284,0.5 0.199,0.046 0.461,-0.06 0.501,-0.284 0.124,-0.696 0.27,-1.389 0.437,-2.076 0.05,-0.207 -0.065,-0.451 -0.284,-0.501zm5.852 0.387c-0.381,-0.105 -0.939,0.13 -1.001,0.568 -0.194,1.37 -0.383,2.74 -0.583,4.108 -0.147,1.003 -0.309,2.068 -0.766,2.985 -0.47,0.94 -1.223,1.569 -2.269,1.767 -0.569,0.107 -1.145,0.069 -1.705,-0.058l0 -0.932c0,-0.213 -0.187,-0.416 -0.407,-0.407 -0.22,0.01 -0.407,0.178 -0.407,0.407l0 0.687c-0.328,-0.122 -0.646,-0.267 -0.951,-0.422 -0.932,-0.474 -1.756,0.93 -0.821,1.406 1.291,0.656 2.729,1.138 4.196,0.967 1.406,-0.163 2.617,-0.841 3.426,-2.011 0.702,-1.015 1.001,-2.269 1.198,-3.469 0.251,-1.526 0.442,-3.064 0.659,-4.595 0.061,-0.434 -0.107,-0.874 -0.569,-1.001zm-24.675 -16.331c0.888,1.569 1.299,3.346 1.162,5.144 -0.066,0.857 1.108,1.036 1.517,0.41 0.247,-0.377 0.818,-0.129 1.061,0.106 0.402,0.387 0.727,1.181 0.667,1.743 -0.055,0.521 -0.66,0.577 -1.09,0.6 -0.836,0.044 -1.682,0.009 -2.519,0.005 -3.654,-0.017 -7.308,-0.083 -10.96,-0.198 -1.852,-0.059 -3.702,-0.132 -5.552,-0.215 -0.022,-0.083 -0.054,-0.168 -0.11,-0.254 -0.59,-0.902 -0.796,-2.161 0.081,-2.961 0.487,-0.445 1.366,-0.534 1.838,-0.053 0.102,0.182 0.207,0.364 0.315,0.542 0.457,0.758 1.83,0.263 1.488,-0.627 -0.026,-0.066 -0.058,-0.129 -0.088,-0.192 0.002,-0.001 0.004,-0.002 0.005,-0.003 -0.009,-0.015 -0.018,-0.03 -0.027,-0.046 -0.066,-0.135 -0.14,-0.264 -0.224,-0.384 -0.876,-1.551 -1.478,-3.281 -0.424,-4.923 0.95,-1.478 2.674,-2.67 4.365,-3.11 3.408,-0.886 6.88,1.563 8.495,4.416zm-8.601 -6.061c-2.152,0.443 -4.205,1.898 -5.482,3.668 -0.722,1.002 -1.102,2.217 -0.972,3.453 0.047,0.452 0.148,0.888 0.283,1.314 -0.598,-0.011 -1.207,0.157 -1.743,0.546 -0.793,0.576 -1.28,1.478 -1.396,2.445 -0.059,0.487 -0.026,0.986 0.092,1.463 0.134,0.544 0.416,1.043 0.633,1.556 0.159,0.377 0.317,0.788 0.793,0.81 4.487,0.209 8.978,0.346 13.47,0.408 1.14,0.015 2.279,0.026 3.419,0.032 1.002,0.006 2.03,0.073 3.028,-0.018 0.827,-0.076 1.665,-0.319 2.156,-1.042 0.532,-0.782 0.388,-1.815 0.07,-2.652 -0.351,-0.924 -0.98,-1.803 -1.976,-2.087 -0.327,-0.093 -0.66,-0.109 -0.979,-0.062 -0.22,-3.413 -2.185,-6.649 -5.069,-8.489 -1.85,-1.181 -4.152,-1.794 -6.327,-1.345zm111.294 -54.522c0.038,-0.448 0.076,-0.895 0.114,-1.344 0.117,-0.815 0.447,-1.675 1.189,-2.059 0.666,-0.345 1.563,-0.195 1.892,0.516 0.343,0.743 1.544,0.363 1.516,-0.411 -0.093,-2.644 1.342,-5.266 3.804,-6.357 2.415,-1.069 5.301,-0.496 7.028,1.512 0.919,1.067 1.412,2.455 1.386,3.859 -0.019,1.051 1.586,1.044 1.628,0 0.024,-0.587 0.675,-0.836 1.178,-0.823 0.655,0.018 1.329,0.329 1.829,0.743 0.777,0.643 1.498,1.798 0.991,2.811 -0.363,0.725 0.374,1.508 1.114,1.114 0.817,-0.436 2.085,0.065 2.4,0.956 -3.389,0.05 -6.779,0.102 -10.169,0.15 -3.561,0.05 -7.125,0.077 -10.682,-0.127 -0.995,-0.057 -1.99,-0.132 -2.981,-0.23 -0.497,-0.048 -0.992,-0.103 -1.487,-0.164 -0.252,-0.031 -0.505,-0.063 -0.757,-0.098 0.002,-0.017 0.006,-0.031 0.007,-0.048zm-0.653 1.587c0.532,0.08 1.067,0.148 1.601,0.211 2.079,0.248 4.17,0.388 6.263,0.461 4.14,0.145 8.286,0.042 12.427,-0.019l7.213 -0.107c0.719,-0.011 0.919,-0.657 0.877,-1.342 -0.034,-0.561 -0.231,-1.148 -0.437,-1.437 -0.349,-0.488 -0.839,-0.875 -1.37,-1.148 -0.111,-0.058 -1.594,-0.569 -1.596,-0.422 0.019,-1.447 -0.882,-2.832 -2.112,-3.686 -0.933,-0.648 -2.192,-1.011 -3.315,-0.738 -0.223,0.054 -0.431,0.143 -0.627,0.249 -0.674,-2.337 -2.492,-4.304 -4.852,-5.064 -3.226,-1.04 -6.79,0.233 -8.761,2.939 -0.757,1.039 -1.247,2.265 -1.457,3.534 -0.776,-0.299 -1.696,-0.279 -2.456,0.05 -1.734,0.749 -2.264,2.77 -2.502,4.469 -0.068,0.484 -0.193,1.01 0.064,1.458 0.229,0.402 0.612,0.528 1.04,0.592zm-151.199 32.82c0.047,-0.654 0.091,-1.407 0.301,-2.035 0.316,-0.941 0.753,-1.839 1.298,-2.669 0.749,-1.138 3.388,-4.392 4.811,-2.215 0.686,1.049 2.178,0.588 2.275,-0.616 0.292,-3.598 1.272,-7.688 4.706,-9.564 1.645,-0.897 3.439,-0.846 5.164,-0.227 1.554,0.556 5.452,2.263 4.503,4.52 -0.041,0.097 -0.091,0.188 -0.128,0.289 -0.475,1.284 1.692,2.217 2.231,0.941 0.043,-0.1 0.074,-0.199 0.11,-0.297 0.004,0.002 0.009,0.004 0.013,0.005 1.026,-2.77 4.74,-3.033 6.916,-1.563 1.267,0.857 2.183,2.163 2.818,3.535 0.491,1.06 1.594,3.396 0.477,4.318 -1.058,0.873 0.355,2.733 1.48,1.918 2.13,-1.543 4.058,0.682 4.252,2.777 0.098,1.051 0.076,2.066 -0.741,2.793 -0.865,0.77 -1.586,0.53 -2.739,0.503 -4.037,-0.098 -8.074,-0.195 -12.111,-0.292 -4.748,-0.114 -9.497,-0.229 -14.246,-0.343 -1.662,-0.04 -3.324,-0.08 -4.986,-0.12 -0.831,-0.021 -1.662,-0.04 -2.493,-0.06 -0.704,-0.017 -1.452,-0.065 -2.17,-0.122 -0.467,-0.037 -1.449,0.063 -1.707,-0.444 -0.137,-0.271 -0.054,-0.745 -0.034,-1.032zm-1.023 3.668c0.923,0.446 2.051,0.288 3.046,0.33 1.13,0.049 2.272,0.051 3.406,0.079 2.377,0.057 4.753,0.114 7.129,0.171 4.753,0.114 9.506,0.229 14.258,0.343 3.375,0.081 6.749,0.163 10.123,0.244 1.885,0.045 4.457,0.546 5.759,-1.203 1.058,-1.422 1.167,-3.802 0.855,-5.477 -0.468,-2.511 -2.636,-4.671 -5.031,-4.789 0.105,-3.274 -2.988,-7.529 -5.09,-8.906 -2.582,-1.692 -6.004,-1.576 -8.332,0.144 -1.582,-3.261 -6.885,-5.225 -10.14,-4.761 -5.219,0.743 -7.579,5.599 -8.418,10.308 -2.796,-1.021 -6.192,2.266 -7.553,4.764 -0.792,1.452 -1.481,3.028 -1.62,4.694 -0.123,1.458 0.142,3.35 1.608,4.059zm180.79 41.954c0.834,-0.429 1.627,-0.154 2.077,0.649 0.285,0.508 0.871,2.093 0.024,2.276 -1.496,0.324 -3.141,0.327 -4.666,0.382 -1.561,0.056 -3.125,0.053 -4.687,0.033 -0.813,-0.011 -1.625,-0.026 -2.438,-0.041 -4.603,-0.082 -9.206,-0.184 -13.808,-0.304 -4.467,-0.116 -8.933,-0.25 -13.399,-0.402 -2.165,-0.075 -4.331,-0.152 -6.496,-0.235 -1.217,-0.046 -2.435,-0.093 -3.653,-0.142 -0.816,-0.033 -1.628,-0.018 -2.439,-0.139 -0.43,-0.064 -0.915,-0.144 -1.291,-0.379 -0.413,-0.259 -0.377,-0.841 -0.364,-1.263 0.018,-0.61 -0.054,-1.235 0.053,-1.84 0.118,-0.676 0.383,-1.323 0.754,-1.899 0.751,-1.168 1.935,-2.059 3.272,-2.44 1.885,-0.538 3.894,-0.044 5.355,1.251 0.817,0.724 2.539,0.039 2.041,-1.188 -3,-7.393 5.698,-13.556 12.226,-13.688 6.945,-0.142 12.665,5.289 13.701,12.001 0.144,0.934 1.45,1.136 2.041,0.539 4.224,-4.277 11.318,-0.451 9.904,5.45 -0.255,1.065 0.843,1.868 1.793,1.379zm-3.335 -10.172c-2.67,-1.499 -5.928,-1.233 -8.45,0.317 -2.031,-7.275 -9.102,-12.612 -16.814,-11.887 -6.749,0.634 -14.765,6.618 -14.115,13.863 -0.009,-0.1 -0.927,-0.284 -1.041,-0.31 -0.359,-0.08 -0.723,-0.135 -1.09,-0.164 -0.716,-0.058 -1.439,-0.015 -2.144,0.122 -1.39,0.271 -2.702,0.913 -3.775,1.838 -0.916,0.79 -1.653,1.783 -2.135,2.892 -0.409,0.94 -0.587,1.956 -0.672,2.972 -0.041,0.482 -0.048,0.967 -0.094,1.448 -0.048,0.503 -0.108,1.014 0.084,1.496 0.21,0.528 0.635,0.928 1.115,1.216 1.078,0.647 2.409,0.844 3.641,0.96 0.302,0.03 0.604,0.05 0.908,0.067 0.966,0.055 1.934,0.043 2.901,0.08 5.548,0.216 11.096,0.404 16.645,0.565 5.55,0.161 11.1,0.295 16.65,0.401 5.257,0.1 10.524,0.297 15.727,-0.609 1.61,-0.281 1.072,-3.072 0.83,-4.109 -0.178,-0.763 -0.418,-1.416 -0.613,-1.72 -0.738,-1.151 -2.072,-1.818 -3.426,-1.84 0.078,-3.041 -1.382,-6.055 -4.132,-7.598zm-188.73 44.424l0 -2.212c0.043,-0.011 0.088,-0.021 0.136,-0.028 10.036,-1.629 19.159,5.376 20.151,15.32 1.949,-0.359 3.791,-0.165 5.47,0.441 -0.848,-1.629 -1.434,-3.387 -1.737,-4.842 -1.358,-6.515 0.034,-13.081 3.398,-18.763 1.684,-2.844 3.768,-5.453 5.986,-7.896 2.026,-2.231 4.421,-4.739 7.275,-5.894 2.663,-1.077 5.15,0.681 7.152,2.345 1.358,1.13 2.02,2.928 0.901,4.071 0.527,0.452 1.003,0.915 1.308,1.147 1.268,0.967 2.556,1.91 3.927,2.726 0.044,0.026 0.08,0.056 0.116,0.085 3.59,-1.097 7.31,3.49 9.701,5.941 3.208,3.288 6.086,6.88 8.64,10.693 1.829,-7.283 2.925,-14.704 3.261,-22.216 -0.335,-0.693 -0.645,-1.402 -0.913,-2.136 -1.124,-3.086 -1.541,-6.389 -1.422,-9.662 0.085,-2.318 0.431,-4.621 0.965,-6.876 0.268,-1.127 0.583,-2.242 0.938,-3.345 0.311,-0.966 0.568,-2.128 1.087,-2.997 0.094,-0.159 0.196,-0.321 0.326,-0.449 0.602,-1.342 1.204,-2.683 1.806,-4.025 0.636,-1.416 1.587,-2.923 1.945,-4.436 0.527,-2.234 -2.89,-4.394 -4.378,-5.664 -3.336,-2.847 -6.904,-5.739 -8.672,-9.875 -2.169,-5.074 -2.211,-11.495 -2.313,-16.932 -0.11,-5.834 0.361,-11.652 1.302,-17.41 0.052,-0.317 0.326,-0.612 0.643,-0.772 0.188,-1.721 0.372,-3.441 0.57,-5.16 0.201,-1.756 0.599,-3.382 1.604,-4.861 0.822,-1.211 1.864,-2.249 2.999,-3.166 1.129,-0.913 2.54,-1.934 4.063,-1.942 0.774,-0.005 1.432,0.533 1.452,1.332 0.021,0.821 -0.588,1.36 -1.118,1.898 -1.069,1.083 -2.13,2.193 -2.89,3.521 -0.088,0.154 -0.16,0.321 -0.254,0.471 -0.008,0.013 -0.012,0.02 -0.018,0.031 0.244,0.053 0.421,0.112 0.708,0.094 0.77,-0.05 1.52,-0.294 2.298,-0.225 0.733,0.064 1.484,0.386 1.72,1.148 0.217,0.699 -0.135,1.474 -0.668,1.933 -0.507,0.436 -1.137,0.671 -1.762,0.887 -0.469,0.162 -1.039,0.309 -1.359,0.718 -0.412,0.529 -0.413,1.416 -0.464,2.052 -0.049,0.598 -0.057,1.197 -0.047,1.795 0.017,0.009 0.036,0.015 0.053,0.024 1.393,0.757 0.912,2.53 0.81,3.814 -0.356,4.461 -0.442,9.018 0.464,13.421 0.887,4.313 2.57,8.62 6.535,10.939 3.705,2.165 8.003,3.805 12.195,4.696 0.074,0.015 0.147,0.036 0.217,0.059 0.152,-0.133 0.301,-0.269 0.442,-0.413 0.164,-0.169 0.321,-0.344 0.472,-0.524 0.04,-0.048 0.079,-0.096 0.118,-0.144 0.007,-0.008 0.046,-0.057 0.071,-0.089 0.02,-0.026 0.079,-0.104 0.077,-0.101 0.03,-0.039 0.06,-0.08 0.089,-0.12 0.495,-0.679 0.924,-1.401 1.342,-2.128 -0.157,-0.058 -0.313,-0.126 -0.467,-0.213 -1.39,-0.798 -2.487,-2.255 -2.47,-3.861 -1.09,-0.529 -1.871,-1.631 -1.925,-2.866 -0.048,-1.086 0.482,-2.073 1.299,-2.721 -1.104,-1.688 -0.667,-4.012 0.46,-5.653 2.559,-3.728 7.549,-4.769 11.7,-3.424 1.92,0.622 3.783,1.805 4.755,3.628 0.462,0.867 0.732,1.843 0.743,2.828 0.005,0.517 -0.064,1.055 -0.214,1.55 -0.095,0.312 -0.308,0.637 -0.423,0.947 0.094,0.215 0.253,0.444 0.333,0.641 0.126,0.31 0.216,0.619 0.268,0.95 0.106,0.674 0.084,1.365 -0.111,2.023 -0.369,1.236 -1.284,2.288 -2.459,2.82 0.051,1.028 -0.031,2.056 -0.404,3.022 -0.547,1.414 -1.664,2.695 -3.197,3.031 -0.358,0.078 -0.715,0.105 -1.068,0.092 0.002,0.704 0.105,1.326 0.369,2.04 0.005,0.013 0.007,0.02 0.011,0.03 0.023,0.047 0.042,0.09 0.062,0.133 0.041,0.085 0.085,0.167 0.131,0.25 0.051,0.09 0.106,0.18 0.165,0.267 0.023,0.035 0.049,0.068 0.073,0.103 0.002,0.003 0.003,0.005 0.006,0.009 0.094,0.11 0.194,0.208 0.298,0.304 0.112,-0.01 0.228,-0.011 0.346,0.008 0.34,0.053 0.652,0.208 0.98,0.3 0.38,0.107 0.765,0.193 1.148,0.286 0.956,0.231 1.91,0.47 2.868,0.69 1.921,0.441 3.875,0.815 5.851,0.845 3.201,0.05 5.743,-1.49 8.083,-3.529 4.662,-4.062 8.855,-8.761 12.762,-13.541 0.277,-0.339 0.699,-0.408 1.09,-0.316 0.899,-1.373 1.792,-2.751 2.714,-4.107 0.862,-1.266 1.791,-2.507 2.885,-3.585 -0.24,-0.136 -0.427,-0.376 -0.494,-0.745 -0.404,-2.23 -5.5,-1.786 -7.344,-2.261 -1.881,-0.486 -3.673,-1.341 -5.286,-2.415 -2.21,-1.469 -4.126,-3.298 -5.904,-5.258 -5.606,2.647 -12.198,2.821 -18.227,1.717 -5.274,-0.966 -9.999,-4.064 -12.166,-9.095 -1.946,-4.514 -1.226,-10.003 2.014,-13.747 2.734,-3.16 6.962,-4.445 10.924,-3.703 -0.306,-0.549 -0.617,-1.096 -0.916,-1.649 -0.011,-0.021 -0.016,-0.042 -0.026,-0.062 -0.291,-0.43 -0.335,-1.015 0.141,-1.489 7.933,-7.886 18.148,-13.166 29.186,-15.012 0.61,-0.102 1.078,0.209 1.328,0.635 0.019,0.026 0.04,0.048 0.057,0.076 0.287,0.491 0.56,0.993 0.841,1.49 1.883,-4.647 5.062,-8.971 10.297,-9.915 5.694,-1.027 10.707,3.156 12.646,8.236 4.212,11.033 -1.96,24.067 -11.081,30.574 0.583,2.496 0.951,5.04 0.981,7.61 0.025,2.2 -0.203,4.422 -0.739,6.559 -0.298,1.189 -0.909,2.459 -0.751,3.696 0.128,1.004 0.658,1.802 1.238,2.6 1.913,-0.423 3.213,1.81 3.981,3.312 0.385,0.753 0.709,1.544 0.957,2.354 0.18,0.589 0.401,1.269 0.268,1.866 0.023,0.038 0.049,0.071 0.07,0.114 -0.005,-0.01 4.162,-1.415 4.697,-1.444 1.498,-0.081 3.006,0.307 4.262,1.13 1.935,1.268 4.128,4.432 2.669,6.748 -0.77,1.224 -2.391,1.964 -3.564,2.706 -1.725,1.091 -3.467,2.155 -5.225,3.191 -3.517,2.072 -7.101,4.024 -10.738,5.878 -0.455,0.232 -1.119,0.237 -1.479,-0.191 -1.648,-1.955 -2.39,-4.356 -2.056,-6.901 0.145,-1.103 0.484,-2.187 1.033,-3.158 0.291,-0.513 1.85,-1.929 2.536,-2.871 -1.252,0.963 -2.548,1.868 -3.966,2.563 0.032,0.97 -0.776,1.794 -1.278,2.532 -0.869,1.275 -1.737,2.55 -2.605,3.825 -3.227,4.739 -6.308,9.675 -10.14,13.961 -3.5,3.917 -7.841,6.962 -13.093,7.904 -2.726,0.489 -5.789,-0.277 -7.467,2.393 -1.386,2.202 -2.413,4.705 -3.546,7.059 0.413,0.932 0.358,2.16 0.409,3.094 0.225,4.072 -0.186,8.139 -1.088,12.112 -0.01,0.045 -0.027,0.082 -0.041,0.123 2.517,2.359 5.215,4.525 8.086,6.46 4.87,3.281 10.632,5.928 13.583,11.294 1.579,2.871 2.24,6.103 2.763,9.303 0.572,3.501 1.019,7.025 1.349,10.556 0.714,7.643 0.833,15.326 0.415,22.989 -0.024,0.432 -0.224,0.789 -0.56,1.013 0.003,0.658 -0.001,1.317 -0.008,1.975 5.592,-1.815 12.735,-1.532 17.954,1.14 1.825,0.934 3.204,2.645 2.912,4.789 -0.009,0.068 -0.025,0.132 -0.036,0.198 3.536,-0.985 7.265,-0.967 10.837,0.132 6.271,-12.409 20.564,-18.671 33.952,-15.009 1.457,-4.167 5.627,-7.031 10.112,-6.741 1.563,0.101 1.569,2.543 0,2.441 -3.882,-0.25 -7.295,2.334 -8.101,6.142 -0.132,0.627 -0.9,1.044 -1.502,0.852 -13.07,-4.158 -27.027,2.014 -32.786,14.427 -0.212,0.457 -0.915,0.73 -1.379,0.56 -4.498,-1.64 -9.311,-1.428 -13.599,0.737 -0.677,0.469 -1.432,0.848 -2.191,1.144 -5.833,2.277 -12.309,3.503 -18.531,4.018 -3.231,0.268 -6.486,0.288 -9.716,0.01 -1.588,-0.137 -3.182,-0.22 -4.757,-0.469 -2.086,-0.329 -3.833,-0.955 -5.481,-2.313 -0.617,-0.508 -0.97,-1.247 -1.561,-1.788 -3.836,-3.517 -10.022,-3.896 -14.259,-0.878 -0.595,0.424 -1.681,0.015 -1.794,-0.73 -1.596,-10.48 -13.25,-15.864 -22.226,-10.096 -1.328,0.853 -2.551,-1.261 -1.233,-2.108 9.721,-6.247 22.71,-1 25.478,9.935 4.917,-2.582 11.123,-1.715 15.312,1.811 0.019,-0.385 0.052,-0.762 0.094,-1.119 0.245,-2.102 1.542,-2.925 3.424,-3.18 -0.007,-0.323 -0.016,-0.645 -0.016,-0.96 -0.002,-1.264 -0.004,-2.529 -0.007,-3.793 -2.573,-0.557 -5.074,-1.57 -6.319,-3.633 -1.808,-3 -1.17,-7.297 -1.052,-10.608 0.168,-4.714 0.536,-9.422 1.104,-14.105 0.124,-1.019 0.258,-2.037 0.399,-3.053 0.121,-0.88 0.765,-2.784 0.542,-3.663 -0.319,-1.257 -3.45,-2.115 -4.587,-2.65 -0.743,-0.349 -1.487,-0.695 -2.231,-1.041 -1.638,5.581 -4.011,10.935 -7.135,15.85 -1.602,2.521 -3.393,4.931 -5.345,7.193 -1.7,1.972 -3.595,3.931 -6.079,4.876 -2.894,1.101 -5.896,0.264 -8.673,-0.786 -3.077,-1.164 -5.996,-2.69 -8.908,-4.21 -4.236,-2.212 -8.608,-4.418 -13.257,-5.284 -0.014,0.001 -0.026,0.005 -0.04,0.006 -6.191,0.295 -11.83,3.667 -15.05,8.956 -0.51,0.838 -2.03,0.785 -2.231,-0.292 -1.127,-6.05 -6.106,-12.085 -12.877,-9.92 -0.77,0.246 -1.535,-0.413 -1.546,-1.177 -0.125,-9.041 -8.163,-15.969 -17.153,-14.509 -0.298,0.049 -0.562,-0.001 -0.785,-0.114zm106.473 31.961c-0.467,-1.665 -0.285,-3.582 -0.253,-5.287 0.042,-2.228 0.128,-4.454 0.26,-6.678 0.245,-4.131 0.641,-8.254 1.199,-12.355 0.395,-2.906 1.683,-5.897 -1.43,-7.501 -3.441,-1.772 -7.01,-3.284 -10.484,-4.987 -6.576,-3.221 -13.281,-7.251 -17.083,-13.745 -4.223,-7.213 -3.266,-15.847 -0.542,-23.417 0.801,0.361 1.613,0.68 2.435,0.968 -0.172,0.66 -0.343,1.32 -0.515,1.981 -0.053,0.206 0.068,0.451 0.285,0.501 0.212,0.048 0.443,-0.065 0.5,-0.285 0.167,-0.645 0.335,-1.29 0.502,-1.935 4.502,1.45 9.271,1.898 14.039,1.982 1.641,0.029 3.282,0.018 4.922,0.002 0.443,-0.004 2.494,-0.307 2.792,-0.031 0.229,0.213 0.233,1.205 0.261,1.63 0.241,3.561 -0.03,7.112 -0.719,10.603 -1.717,-1.753 -3.346,-3.594 -4.875,-5.52 -0.977,-1.231 -2.694,0.507 -1.727,1.727 3.833,4.827 8.264,9.114 13.229,12.77 4.854,3.573 11.38,6.106 14.638,11.423 1.722,2.811 2.341,6.113 2.865,9.321 0.601,3.677 1.05,7.381 1.367,11.093 0.595,6.949 0.694,13.925 0.352,20.889 -3.564,1.083 -7.242,1.585 -10.978,1.394 -3.428,-0.175 -9.927,-0.579 -11.04,-4.543zm-16.451 -18.225c-1.541,2.454 -3.258,4.796 -5.149,6.992 -1.903,2.209 -4.136,4.649 -7.271,4.698 -3.23,0.05 -6.684,-1.801 -9.506,-3.187 -2.64,-1.296 -5.209,-2.733 -7.853,-4.023 -4.912,-2.395 -10.187,-4.284 -15.693,-3.962 -0.336,-8.387 2.391,-16.801 7.866,-23.228 0.604,-0.708 1.251,-1.646 2.084,-2.089 1.389,-0.741 2.704,0.674 3.715,1.57 1.678,1.486 3.287,3.049 4.821,4.683 3.326,3.544 6.254,7.416 8.814,11.544 0.549,0.884 1.946,0.739 2.232,-0.291 1.979,-7.144 3.248,-14.446 3.815,-21.826 2.936,4.067 7.017,7.299 11.351,9.84 2.459,1.442 5.016,2.696 7.592,3.909 -1.555,5.419 -3.817,10.588 -6.818,15.37zm-51.116 -17.81c-0.097,-0.064 -0.205,-0.098 -0.316,-0.109 -0.313,-0.091 -0.665,-0.007 -0.865,0.369 -1.464,2.744 -2.927,5.487 -4.391,8.229 -0.032,-0.403 -0.015,-0.815 -0.013,-1.156 0.006,-1.008 0.111,-2.01 0.307,-2.999 0.405,-2.034 1.132,-3.991 2.062,-5.842 1.589,-3.164 3.732,-6.051 6.422,-8.364 1.37,-1.178 2.892,-2.164 4.512,-2.96 1.833,1.592 3.794,3.033 5.858,4.311 -0.096,0.082 -0.194,0.164 -0.29,0.256 -3.43,3.296 -6.018,7.45 -7.717,11.961l-5.569 -3.696zm3.274 19.647c0.018,0.228 0.099,0.47 0.23,0.679 -3.251,1.362 -6.138,3.515 -8.372,6.309 -0.5,-1.419 -1.19,-2.776 -2.037,-4.002 0.834,0.012 1.726,-0.184 2.675,-0.646 2.64,-1.285 3.172,-4.289 3.483,-6.924 0.5,-4.221 0.939,-8.451 1.403,-12.677 1.453,0.965 2.906,1.929 4.359,2.894 -1.516,4.658 -2.114,9.622 -1.741,14.367zm37.821 -61.565c3.626,2.279 7.693,3.61 11.844,4.608 -1.518,-0.098 -3.032,-0.246 -4.538,-0.482 -1.671,-0.263 -3.326,-0.629 -4.94,-1.135 -0.811,-0.255 -1.61,-0.543 -2.395,-0.869 -0.219,-0.092 -0.484,-0.232 -0.771,-0.377 0.266,-0.582 0.533,-1.163 0.8,-1.745zm2.199 -4.943c7.001,3.524 14.385,6.163 22.042,7.845 -0.289,0.606 -0.577,1.211 -0.869,1.813 -0.789,-0.087 -1.649,0.024 -2.365,0.032 -1.549,0.017 -3.102,0.031 -4.655,0.016 -5.554,-1.13 -11.18,-2.455 -16.01,-5.51 0.636,-1.392 1.266,-2.787 1.857,-4.196zm-1.911 -7.367c-2.751,-2.762 -6.215,-4.87 -8.682,-7.931 -1.369,-1.699 -2.241,-3.673 -2.812,-5.772 5.595,6.377 13.221,10.619 20.998,13.93 7.917,3.372 16.286,5.724 24.846,6.368 -1.391,0.096 -2.781,0.138 -4.13,0.489 -1.716,0.447 -2.88,1.733 -3.754,3.199 -7.784,-1.405 -15.552,-3.579 -22.419,-7.595 -1.399,-0.819 -2.75,-1.717 -4.047,-2.688zm-12.459 -20.381c6.272,7.67 14.926,12.94 23.894,16.961 2.213,0.993 4.454,1.92 6.71,2.813 0.155,0.101 0.31,0.202 0.47,0.297 1.252,0.739 2.871,1.553 4.017,0.395 6.681,2.364 13.811,3.384 20.886,2.986 -0.587,0.439 -1.195,0.849 -1.824,1.221 -0.05,-0.003 -0.097,-0.011 -0.152,-0.008 -10.546,0.449 -20.925,-2.01 -30.608,-6.084 -4.612,-1.94 -9.141,-4.16 -13.261,-7.016 -2.076,-1.44 -4.044,-3.041 -5.825,-4.835 -0.868,-0.876 -1.691,-1.794 -2.459,-2.759 -0.661,-0.829 -1.104,-1.524 -1.402,-2.254 -0.216,-0.531 -0.356,-1.082 -0.446,-1.717zm-0.23 -3.744c2.651,2.81 5.745,5.112 9.28,6.814 0.112,0.054 0.222,0.085 0.332,0.105 1.062,1.18 2.322,2.185 3.812,2.992 2.878,1.558 6.013,2.895 9.2,3.843 0.382,2.373 1.31,4.622 2.684,6.584 -7.131,-3.141 -13.992,-6.917 -19.779,-12.186 -1.971,-1.794 -3.792,-3.754 -5.416,-5.867 0.014,-0.625 0.131,-2.026 -0.113,-2.285zm-0.107 -3.82c-0.006,-0.583 -0.006,-1.165 0,-1.748 1.599,2.427 3.715,4.493 6.185,6.034 0.194,0.587 0.399,1.171 0.635,1.744 0.06,0.148 0.124,0.293 0.188,0.438 -2.653,-1.749 -5.016,-3.895 -6.984,-6.442 -0.007,-0.01 -0.017,-0.017 -0.024,-0.026zm0.192 -6.9c1.287,0.858 2.665,1.529 4.167,2.001 0.077,0.024 0.15,0.036 0.222,0.046 0.138,2.675 0.511,5.352 1.234,7.93 -2.375,-1.649 -4.351,-3.82 -5.787,-6.337 0.031,-1.214 0.085,-2.428 0.164,-3.64zm0.354 -3.984c1.238,0.836 2.577,1.508 3.994,2.001 -0.011,0.489 -0.017,0.977 -0.017,1.465 -1.364,-0.482 -2.646,-1.166 -3.785,-2.066 -0.105,-0.082 -0.214,-0.139 -0.324,-0.184 0.039,-0.406 0.089,-0.811 0.132,-1.216zm0.525 -4.13l2.432 0.197c0.242,0.019 1.425,-0.036 1.418,-0.043 0.119,0.125 -0.115,1.248 -0.131,1.448 -0.102,1.223 -0.176,2.449 -0.221,3.676 -1.394,-0.504 -2.719,-1.199 -3.924,-2.063 0.125,-1.073 0.262,-2.145 0.426,-3.215zm0.513 -6.483c0.156,-1.414 0.269,-2.856 0.925,-4.146 0.601,-1.18 1.476,-2.175 2.451,-3.062 0.945,-0.861 2.029,-1.788 3.29,-2.121 -0.087,0.103 -0.167,0.202 -0.203,0.239 -0.531,0.536 -1.06,1.076 -1.557,1.645 -0.426,0.487 -0.832,0.994 -1.201,1.525 -0.402,0.58 -0.877,1.255 -0.992,1.962 -0.102,0.623 0.188,1.224 0.727,1.555 0.619,0.379 1.346,0.374 2.041,0.284 0.621,-0.08 1.227,-0.225 1.857,-0.176 -0.07,-0.005 0.057,0.025 0.136,0.035 -0.016,0.035 -0.037,0.069 -0.064,0.1 -0.154,0.217 -0.468,0.348 -0.703,0.448 -1.218,0.522 -2.493,0.748 -3.079,2.096 -0.305,0.701 -0.369,1.486 -0.437,2.239 -0.051,0.56 -0.072,1.121 -0.072,1.682 -0.284,-0.011 -0.562,-0.016 -0.815,-0.036l-2.749 -0.222c0.148,-1.349 0.297,-2.698 0.445,-4.047zm23.668 39.741c0.394,2.789 1.646,5.384 3.595,7.374 -0.647,-0.265 -1.292,-0.537 -1.935,-0.811 -0.012,-0.018 -0.015,-0.037 -0.03,-0.054 -1.679,-1.986 -2.795,-4.383 -3.286,-6.927 0.552,0.151 1.104,0.292 1.656,0.418zm4.293 -3.128c0.278,-0.405 0.544,-0.82 0.781,-1.251 0.159,-0.286 0.278,-0.6 0.421,-0.896 0.064,-0.134 0.133,-0.263 0.213,-0.387 0.116,-0.179 0.302,-0.266 0.464,-0.402 0.816,-0.694 0.972,-1.768 1.077,-2.771 0.061,-0.575 -0.566,-0.864 -1.03,-0.785 -0.528,0.09 -0.809,-0.53 -0.739,-0.955 0.046,-0.284 0.216,-0.579 0.454,-0.743 0.116,-0.079 0.407,-0.218 0.464,-0.033 0.308,0.997 1.88,0.572 1.57,-0.433 -0.117,-0.38 -0.345,-0.686 -0.636,-0.906 0.996,-0.79 1.901,-1.704 2.398,-2.86 0.876,0.251 1.811,0.262 2.687,0.04 0.401,1.18 0.739,2.381 0.997,3.602 0.306,1.449 0.623,3.024 0.345,4.503 -0.206,1.096 -0.809,2.25 -1.887,2.706 -1.125,0.477 -2.425,-0.041 -3.29,-0.797 -0.785,-0.687 -1.941,0.46 -1.151,1.151 0.52,0.455 1.112,0.832 1.746,1.088 -0.059,1.624 0.356,3.53 1.587,4.657 -0.536,1.609 -1.056,3.224 -1.617,4.825 -0.169,0.537 -0.372,1.062 -0.598,1.579 -0.064,-0.026 -0.156,-0.05 -0.285,-0.072 -0.698,-0.195 -1.475,-0.797 -2.026,-1.235 -2.271,-1.807 -3.67,-4.509 -3.894,-7.388 0.755,-0.646 1.389,-1.419 1.949,-2.237zm7.333 9.632c0.397,-1.181 0.791,-2.362 1.186,-3.543 0.453,0.105 0.91,0.213 1.369,0.323 -0.325,2.219 -1.194,4.331 -2.491,6.156 -0.341,-0.111 -0.681,-0.222 -1.02,-0.34 0.437,-0.789 0.688,-1.802 0.956,-2.596zm3.339 -3.032c2.081,0.497 4.207,0.987 6.315,1.207 0.087,0.085 0.187,0.163 0.316,0.228 4.359,2.153 8.994,3.404 13.822,3.717 -1.011,1.155 -2.085,2.252 -3.248,3.257 -6.635,0.514 -13.321,-0.236 -19.672,-2.187 1.287,-1.862 2.117,-3.989 2.467,-6.222zm13.459 0.161c3.265,1.082 6.716,1.415 10.126,1.022 -0.433,0.596 -0.872,1.188 -1.323,1.769 -0.167,-0.104 -0.368,-0.173 -0.61,-0.181 -3.476,-0.113 -6.86,-0.746 -10.1,-1.891 0.653,-0.187 1.288,-0.43 1.907,-0.719zm2.709 -1.631c1.487,-1.105 2.913,-2.322 4.292,-3.611 0.122,0.11 0.275,0.2 0.461,0.26 1.982,0.646 4.013,1 6.078,1.072 -0.917,1.35 -1.84,2.713 -2.791,4.056 -0.02,0.001 -0.036,-0.005 -0.056,-0.002 -3.231,0.479 -6.528,0.231 -9.658,-0.679 0.574,-0.327 1.132,-0.694 1.674,-1.096zm7.057 -6.37c2.098,0.745 4.312,0.506 6.477,0.121 -0.348,0.51 -0.695,1.021 -1.043,1.532 -0.009,0 -0.016,-0.002 -0.025,-0.002 -2.15,0.082 -4.221,-0.166 -6.27,-0.746 0.292,-0.296 0.573,-0.604 0.861,-0.905zm6.776 -7.752c0.797,0.672 1.594,1.345 2.391,2.018 0.175,0.148 0.643,0.782 0.838,0.78 -0.267,0.491 -1.084,1.485 -1.217,1.681 -0.556,0.816 -1.112,1.633 -1.668,2.45 -2.119,0.404 -4.404,0.823 -6.507,0.179 2.16,-2.307 4.207,-4.726 6.163,-7.108zm3.653 -5.389c0.773,-1.168 1.565,-2.33 2.501,-3.375 0.379,-0.423 0.782,-0.85 1.219,-1.221 -0.033,0.072 -0.057,0.126 -0.066,0.141 -0.661,1.106 -1.557,2.021 -1.946,3.279 -0.31,1.003 1.26,1.432 1.57,0.432 0.452,-1.458 1.784,-2.452 2.266,-3.909 0.28,-0.846 -0.097,-1.718 -1.01,-1.905 -0.229,-0.047 -0.446,-0.035 -0.652,0.012 -0.003,-0.019 -0.001,-0.037 -0.005,-0.056 -0.804,-4.432 -7.167,-3.236 -10.3,-4.349 -4.267,-1.515 -7.529,-5.037 -10.385,-8.404 -6.147,-7.247 -11.484,-15.157 -16.048,-23.489 7.303,-6.999 16.458,-11.672 26.395,-13.537 2.246,3.903 4.131,7.987 5.881,12.135 1.814,4.299 3.685,8.614 5.117,13.06 1.404,4.363 2.33,8.954 1.917,13.556 -0.21,2.336 -1.2,4.504 -1.407,6.814 -0.173,1.928 0.676,3.453 1.786,4.964 0.063,0.086 0.134,0.159 0.208,0.223 -0.755,1.337 -1.417,2.803 -1.236,4.37 0.194,1.677 1.285,3.07 2.986,3.411 0.831,0.166 1.683,0.106 2.494,-0.136 0.242,-0.071 0.5,-0.158 0.758,-0.258 1.129,1.901 3.174,0.928 4.756,0.113 1.735,-0.894 3.75,-0.8 5.27,0.485 0.617,0.524 1.4,1.408 1.497,2.265 0.118,1.033 -0.702,1.386 -1.434,1.868 -5.224,3.441 -10.708,6.521 -16.271,9.385 -1.341,-2.171 -1.247,-5.134 0.379,-7.157 1.389,-1.728 3.596,-2.833 2.319,-5.349 -0.243,-0.479 -0.649,-0.644 -1.05,-0.606 -0.295,-0.122 -0.629,-0.037 -0.892,0.173 -1.644,1.32 -3.315,2.63 -5.209,3.568 -0.106,-0.101 -0.214,-0.2 -0.323,-0.299 -1.069,-0.971 -2.202,-1.885 -3.318,-2.81 0.743,-1.132 1.485,-2.264 2.233,-3.394zm-30.794 -34.011c0.116,0.035 0.224,0.043 0.324,0.031 2.762,4.396 5.751,8.644 8.971,12.721 -5.113,1.385 -10.878,2.727 -15.768,0.01 -2.112,-1.173 -3.691,-3.06 -4.24,-5.437 -0.531,-2.297 0.128,-4.62 1.941,-6.16 2.431,-2.065 5.869,-2.035 8.772,-1.165zm-1.667 17.774c-4.638,-0.479 -9.078,-2.124 -11.731,-6.173 -2.284,-3.487 -2.52,-8.093 -0.317,-11.69 2.413,-3.939 7.567,-5.567 11.758,-3.547 0.018,0.008 0.035,0.011 0.053,0.019 0.34,0.576 0.688,1.149 1.035,1.72 -2.692,-0.557 -5.566,-0.376 -7.95,1.102 -2.397,1.484 -3.836,4.058 -3.696,6.892 0.136,2.746 1.512,5.33 3.664,7.025 2.292,1.804 5.166,2.648 8.05,2.81 3.809,0.214 7.567,-0.799 11.208,-1.796 0.157,0.194 0.31,0.391 0.468,0.584 0.409,0.499 0.823,0.996 1.24,1.49 -4.31,1.893 -9.149,2.043 -13.782,1.564zm38.67 -17.601c-1.838,-5.25 -3.93,-10.548 -6.342,-15.656 0.49,-3.06 1.11,-6.359 3.243,-8.701 0.998,-1.094 2.265,-1.963 3.723,-2.294 1.439,-0.327 2.879,0.034 4.083,0.858 2.812,1.925 3.449,5.564 3.286,8.739 -0.164,3.182 -0.998,6.359 -2.353,9.24 -1.381,2.937 -3.291,5.586 -5.64,7.814zm1.496 -30.504c5.586,-0.367 9.133,5.048 9.926,9.938 1.473,9.078 -3.087,18.589 -10.29,24.049 -0.175,-0.605 -0.365,-1.205 -0.559,-1.802 5.206,-4.643 8.516,-11.322 9.019,-18.284 0.263,-3.632 -0.444,-7.686 -3.419,-10.109 -1.312,-1.07 -2.93,-1.748 -4.645,-1.686 -1.741,0.063 -3.347,0.8 -4.693,1.874 -2.618,2.09 -3.711,5.228 -4.371,8.412 -0.32,-0.641 -0.641,-1.282 -0.973,-1.914 1.509,-4.706 4.474,-10.116 10.005,-10.478zm0.731 59.501c0.53,-1.037 0.93,-1.289 1.718,-0.255 0.758,0.994 1.391,2.19 1.8,3.372 0.144,0.416 0.258,0.839 0.375,1.263 0.121,0.443 -1.13,0.8 -1.412,0.887 -0.526,0.164 -1.083,0.256 -1.632,0.167 -1.047,-0.171 -1.741,-0.919 -1.865,-1.969 -0.148,-1.254 0.464,-2.387 1.016,-3.465zm-44.463 45.007c-7.808,-1.674 -15.326,-4.332 -22.438,-7.965 0.072,-0.923 -0.141,-1.796 -0.661,-2.659 5.484,3.534 11.702,5.849 18.035,7.413 2.006,0.496 4.03,0.915 6.063,1.285 -0.344,0.635 -0.677,1.278 -0.999,1.926zm7.631 89.409l0 -0.003 0 0.003c-0.038,-0.019 0.003,-0.049 0,-0.003 0.066,-0.247 0.017,-0.458 -0.099,-0.619 -0.002,-0.445 -0.01,-0.887 -0.011,-1.32l-0.006 -3.659c1.141,0.174 2.248,0.284 3.211,0.377 4.254,0.412 8.548,-0.049 12.642,-1.239 0,0.594 -0.379,2.271 -0.212,3.395 0.102,0.688 0.407,1.17 1.128,1.07 2.405,-0.331 4.887,-0.324 7.289,0.032 0.45,0.067 0.898,0.149 1.344,0.239 -1.012,0.386 -2.094,0.604 -3.148,0.832 -4.807,1.043 -9.715,1.649 -14.639,1.584 -1.357,-0.018 -2.714,-0.087 -4.065,-0.212 -0.7,-0.065 -1.4,-0.143 -2.096,-0.242 -0.307,-0.043 -0.617,-0.082 -0.921,-0.14 -0.1,-0.02 -0.246,-0.082 -0.346,-0.082 -0.037,0 -0.058,-0.006 -0.071,-0.013 -0.001,0.009 -0.003,0.02 -0.007,0.034 0.004,-0.012 0.004,-0.022 0.007,-0.034l0 0z"/></g></svg>