<svg viewBox="0 0 32 32" xmlns="http://www.w3.org/2000/svg"><path d="M22 6H5l-4 9v9h5a3 3 0 0 1 6 0h8.53A2.47 2.47 0 0 0 23 21.53V7a1 1 0 0 0-1-1Z" fill="#ffffff" class="fill-00bbff"></path><circle cx="9" cy="24" r="3" fill="none" stroke="#000000" stroke-linecap="round" stroke-linejoin="round" stroke-width="2px" class="stroke-000000"></circle><circle cx="25" cy="24" r="3" fill="none" stroke="#000000" stroke-linecap="round" stroke-linejoin="round" stroke-width="2px" class="stroke-000000"></circle><path d="M21 24h-8M28.2 24H30a1 1 0 0 0 1-1v-7l-.63-4.42A3 3 0 0 0 27.4 9H24M5 24H1v-9l4-9h17a1 1 0 0 1 1 1v11.4" fill="none" stroke="#000000" stroke-linecap="round" stroke-linejoin="round" stroke-width="2px" class="stroke-000000"></path><path d="M26 10v6h4M11 6.7 3 23.5" fill="none" stroke="#000000" stroke-linecap="round" stroke-linejoin="round" stroke-width="2px" class="stroke-000000"></path><circle cx="14" cy="11" r="1" fill="none" stroke="#000000" stroke-miterlimit="10" stroke-width="2px" class="stroke-000000"></circle><path d="m5 13 7.88-1.63M30 20h-1" fill="none" stroke="#000000" stroke-linecap="round" stroke-linejoin="round" stroke-width="2px" class="stroke-000000"></path></svg>